<svg width="431" height="430" viewBox="0 0 431 430" fill="none" xmlns="http://www.w3.org/2000/svg">
<g clip-path="url(#clip0_32_5951)">
<rect width="430.155" height="429.42" rx="11.0296" fill="white"/>
<rect x="304.783" y="368.757" width="100.737" height="37.5007" rx="7.35308" fill="#950FAB"/>
<path d="M338.309 386.693H336.844C336.802 386.453 336.725 386.24 336.613 386.054C336.501 385.866 336.361 385.707 336.194 385.576C336.027 385.446 335.836 385.348 335.622 385.283C335.411 385.215 335.182 385.181 334.937 385.181C334.501 385.181 334.114 385.291 333.777 385.51C333.441 385.727 333.177 386.045 332.986 386.466C332.796 386.883 332.7 387.394 332.7 387.997C332.7 388.611 332.796 389.128 332.986 389.548C333.179 389.966 333.443 390.282 333.777 390.496C334.114 390.707 334.499 390.813 334.933 390.813C335.173 390.813 335.398 390.782 335.607 390.719C335.818 390.654 336.007 390.559 336.174 390.433C336.344 390.308 336.487 390.154 336.601 389.971C336.719 389.788 336.8 389.579 336.844 389.344L338.309 389.352C338.254 389.733 338.135 390.091 337.953 390.425C337.773 390.76 337.536 391.055 337.244 391.311C336.951 391.564 336.609 391.762 336.218 391.906C335.826 392.047 335.391 392.117 334.913 392.117C334.208 392.117 333.579 391.954 333.025 391.628C332.472 391.301 332.036 390.83 331.717 390.214C331.399 389.598 331.239 388.859 331.239 387.997C331.239 387.133 331.4 386.394 331.721 385.78C332.042 385.164 332.48 384.693 333.033 384.366C333.587 384.04 334.214 383.877 334.913 383.877C335.36 383.877 335.775 383.939 336.159 384.065C336.543 384.19 336.885 384.374 337.185 384.617C337.485 384.857 337.732 385.152 337.925 385.502C338.121 385.849 338.249 386.246 338.309 386.693ZM342.201 392.125C341.614 392.125 341.105 391.996 340.674 391.738C340.243 391.479 339.909 391.117 339.671 390.653C339.436 390.188 339.319 389.645 339.319 389.023C339.319 388.402 339.436 387.857 339.671 387.39C339.909 386.923 340.243 386.56 340.674 386.301C341.105 386.043 341.614 385.913 342.201 385.913C342.789 385.913 343.298 386.043 343.729 386.301C344.16 386.56 344.493 386.923 344.728 387.39C344.965 387.857 345.084 388.402 345.084 389.023C345.084 389.645 344.965 390.188 344.728 390.653C344.493 391.117 344.16 391.479 343.729 391.738C343.298 391.996 342.789 392.125 342.201 392.125ZM342.209 390.989C342.528 390.989 342.794 390.902 343.008 390.727C343.222 390.549 343.382 390.312 343.486 390.014C343.593 389.717 343.647 389.385 343.647 389.019C343.647 388.651 343.593 388.318 343.486 388.021C343.382 387.72 343.222 387.481 343.008 387.304C342.794 387.126 342.528 387.037 342.209 387.037C341.883 387.037 341.611 387.126 341.395 387.304C341.18 387.481 341.02 387.72 340.913 388.021C340.808 388.318 340.756 388.651 340.756 389.019C340.756 389.385 340.808 389.717 340.913 390.014C341.02 390.312 341.18 390.549 341.395 390.727C341.611 390.902 341.883 390.989 342.209 390.989ZM347.705 388.483V392.008H346.288V385.992H347.643V387.014H347.713C347.852 386.677 348.072 386.409 348.375 386.211C348.681 386.013 349.058 385.913 349.507 385.913C349.922 385.913 350.284 386.002 350.592 386.18C350.903 386.357 351.143 386.614 351.313 386.951C351.485 387.288 351.57 387.697 351.567 388.177V392.008H350.15V388.397C350.15 387.994 350.045 387.68 349.836 387.453C349.63 387.225 349.344 387.112 348.978 387.112C348.73 387.112 348.51 387.167 348.316 387.276C348.126 387.383 347.976 387.539 347.866 387.742C347.759 387.946 347.705 388.193 347.705 388.483ZM356.013 385.992V387.088H352.554V385.992H356.013ZM353.408 384.55H354.826V390.198C354.826 390.389 354.855 390.535 354.912 390.637C354.972 390.736 355.051 390.804 355.147 390.841C355.244 390.877 355.351 390.895 355.469 390.895C355.557 390.895 355.638 390.889 355.711 390.876C355.787 390.863 355.845 390.851 355.884 390.841L356.123 391.949C356.047 391.975 355.939 392.004 355.798 392.035C355.659 392.067 355.489 392.085 355.288 392.09C354.933 392.101 354.613 392.047 354.329 391.929C354.044 391.809 353.818 391.624 353.651 391.373C353.487 391.123 353.406 390.809 353.408 390.433V384.55ZM357.199 392.008V385.992H358.617V392.008H357.199ZM357.912 385.138C357.687 385.138 357.494 385.063 357.332 384.915C357.17 384.763 357.089 384.582 357.089 384.37C357.089 384.156 357.17 383.975 357.332 383.826C357.494 383.674 357.687 383.599 357.912 383.599C358.139 383.599 358.332 383.674 358.491 383.826C358.653 383.975 358.734 384.156 358.734 384.37C358.734 384.582 358.653 384.763 358.491 384.915C358.332 385.063 358.139 385.138 357.912 385.138ZM361.492 388.483V392.008H360.075V385.992H361.43V387.014H361.5C361.639 386.677 361.859 386.409 362.162 386.211C362.468 386.013 362.845 385.913 363.294 385.913C363.709 385.913 364.071 386.002 364.379 386.18C364.69 386.357 364.93 386.614 365.1 386.951C365.272 387.288 365.357 387.697 365.354 388.177V392.008H363.937V388.397C363.937 387.994 363.832 387.68 363.623 387.453C363.417 387.225 363.131 387.112 362.765 387.112C362.517 387.112 362.297 387.167 362.104 387.276C361.913 387.383 361.763 387.539 361.653 387.742C361.546 387.946 361.492 388.193 361.492 388.483ZM370.63 389.478V385.992H372.048V392.008H370.673V390.939H370.611C370.475 391.275 370.252 391.551 369.941 391.765C369.633 391.979 369.253 392.086 368.801 392.086C368.407 392.086 368.058 391.999 367.755 391.824C367.455 391.646 367.22 391.389 367.05 391.052C366.881 390.713 366.796 390.303 366.796 389.822V385.992H368.214V389.603C368.214 389.984 368.318 390.287 368.527 390.512C368.736 390.736 369.01 390.848 369.35 390.848C369.558 390.848 369.761 390.798 369.957 390.696C370.152 390.594 370.313 390.442 370.438 390.241C370.566 390.038 370.63 389.783 370.63 389.478ZM376.17 392.125C375.566 392.125 375.045 392 374.607 391.749C374.171 391.496 373.835 391.138 373.6 390.676C373.365 390.211 373.248 389.664 373.248 389.035C373.248 388.416 373.365 387.873 373.6 387.406C373.838 386.936 374.169 386.57 374.595 386.309C375.021 386.045 375.521 385.913 376.095 385.913C376.466 385.913 376.816 385.973 377.145 386.093C377.477 386.211 377.769 386.394 378.022 386.642C378.278 386.89 378.479 387.206 378.625 387.59C378.772 387.971 378.845 388.425 378.845 388.953V389.387H373.914V388.432H377.486C377.483 388.16 377.424 387.919 377.309 387.707C377.194 387.493 377.034 387.325 376.828 387.202C376.624 387.079 376.386 387.018 376.115 387.018C375.825 387.018 375.57 387.088 375.351 387.229C375.132 387.368 374.961 387.551 374.838 387.778C374.718 388.002 374.656 388.249 374.654 388.518V389.352C374.654 389.702 374.718 390.002 374.846 390.253C374.974 390.501 375.153 390.692 375.382 390.825C375.612 390.956 375.881 391.021 376.189 391.021C376.395 391.021 376.582 390.992 376.749 390.935C376.916 390.875 377.061 390.787 377.184 390.672C377.307 390.557 377.399 390.415 377.462 390.245L378.786 390.394C378.702 390.744 378.543 391.05 378.308 391.311C378.076 391.569 377.778 391.77 377.415 391.914C377.052 392.055 376.637 392.125 376.17 392.125Z" fill="white"/>
<g opacity="0.2">
<rect x="26.8354" y="368.757" width="100.737" height="37.5007" rx="5.51481" fill="#E7E7E9" fill-opacity="0.5"/>
<path d="M64.4953 392.008V383.986H67.566C68.1457 383.986 68.6275 384.078 69.0113 384.26C69.3978 384.441 69.6863 384.687 69.8769 385.001C70.0702 385.314 70.1668 385.669 70.1668 386.066C70.1668 386.392 70.1041 386.672 69.9788 386.904C69.8534 387.134 69.685 387.321 69.4735 387.464C69.262 387.608 69.0257 387.711 68.7646 387.774V387.852C69.0492 387.868 69.3221 387.955 69.5832 388.115C69.8469 388.271 70.0623 388.493 70.2294 388.78C70.3966 389.068 70.4801 389.415 70.4801 389.822C70.4801 390.237 70.3796 390.611 70.1785 390.942C69.9775 391.271 69.6746 391.531 69.2698 391.722C68.8651 391.913 68.3559 392.008 67.7423 392.008H64.4953ZM65.9484 390.794H67.5112C68.0387 390.794 68.4186 390.693 68.651 390.492C68.886 390.288 69.0035 390.027 69.0035 389.709C69.0035 389.471 68.9447 389.257 68.8272 389.066C68.7097 388.873 68.5426 388.722 68.3259 388.612C68.1092 388.5 67.8507 388.444 67.5504 388.444H65.9484V390.794ZM65.9484 387.398H67.3859C67.6365 387.398 67.8624 387.352 68.0635 387.261C68.2645 387.167 68.4225 387.035 68.5374 386.865C68.6549 386.693 68.7136 386.489 68.7136 386.254C68.7136 385.943 68.604 385.687 68.3846 385.486C68.1679 385.285 67.8454 385.185 67.4172 385.185H65.9484V387.398ZM73.4128 392.129C73.0316 392.129 72.6882 392.061 72.3827 391.926C72.0798 391.787 71.8396 391.583 71.662 391.315C71.487 391.046 71.3996 390.714 71.3996 390.32C71.3996 389.98 71.4622 389.7 71.5876 389.478C71.7129 389.256 71.8839 389.078 72.1007 388.945C72.3174 388.812 72.5615 388.711 72.8331 388.643C73.1073 388.573 73.3906 388.522 73.683 388.491C74.0356 388.454 74.3215 388.421 74.5408 388.393C74.7602 388.361 74.9194 388.314 75.0187 388.252C75.1205 388.186 75.1714 388.086 75.1714 387.95V387.927C75.1714 387.631 75.0839 387.403 74.909 387.241C74.734 387.079 74.4821 386.998 74.1531 386.998C73.8058 386.998 73.5303 387.074 73.3266 387.225C73.1256 387.377 72.9898 387.556 72.9193 387.762L71.5954 387.574C71.6999 387.208 71.8722 386.903 72.1124 386.658C72.3527 386.409 72.6464 386.224 72.9937 386.101C73.341 385.976 73.7248 385.913 74.1452 385.913C74.4351 385.913 74.7236 385.947 75.0108 386.015C75.2981 386.083 75.5605 386.195 75.7981 386.352C76.0357 386.506 76.2263 386.716 76.37 386.983C76.5162 387.249 76.5893 387.582 76.5893 387.981V392.008H75.2263V391.181H75.1793C75.0931 391.348 74.9717 391.505 74.815 391.651C74.6609 391.795 74.4664 391.911 74.2314 392C73.999 392.086 73.7261 392.129 73.4128 392.129ZM73.781 391.087C74.0656 391.087 74.3123 391.031 74.5212 390.919C74.7301 390.804 74.8907 390.653 75.003 390.465C75.1179 390.277 75.1753 390.072 75.1753 389.85V389.141C75.1309 389.177 75.0552 389.211 74.9482 389.243C74.8437 389.274 74.7262 389.301 74.5957 389.325C74.4651 389.348 74.3358 389.369 74.2079 389.387C74.0799 389.406 73.969 389.421 73.875 389.434C73.6635 389.463 73.4742 389.51 73.307 389.575C73.1399 389.641 73.0081 389.732 72.9114 389.85C72.8148 389.965 72.7665 390.113 72.7665 390.296C72.7665 390.557 72.8618 390.754 73.0524 390.888C73.2431 391.021 73.4859 391.087 73.781 391.087ZM80.6392 392.125C80.0387 392.125 79.523 391.993 79.0921 391.73C78.6639 391.466 78.3336 391.102 78.1012 390.637C77.8714 390.17 77.7565 389.632 77.7565 389.023C77.7565 388.412 77.874 387.873 78.109 387.406C78.344 386.936 78.6756 386.57 79.1039 386.309C79.5347 386.045 80.0439 385.913 80.6314 385.913C81.1197 385.913 81.5518 386.003 81.9278 386.184C82.3065 386.361 82.6081 386.613 82.8326 386.94C83.0572 387.263 83.1851 387.642 83.2165 388.075H81.8613C81.8064 387.786 81.6759 387.544 81.4696 387.351C81.2659 387.155 80.993 387.057 80.651 387.057C80.3611 387.057 80.1065 387.135 79.8872 387.292C79.6679 387.446 79.4968 387.668 79.3741 387.958C79.254 388.248 79.1939 388.595 79.1939 389C79.1939 389.41 79.254 389.762 79.3741 390.057C79.4942 390.35 79.6626 390.576 79.8794 390.735C80.0987 390.892 80.3559 390.97 80.651 390.97C80.8599 390.97 81.0466 390.931 81.2111 390.852C81.3782 390.771 81.5179 390.655 81.6302 390.504C81.7425 390.352 81.8195 390.168 81.8613 389.952H83.2165C83.1825 390.377 83.0572 390.754 82.8405 391.083C82.6237 391.41 82.3287 391.666 81.9553 391.851C81.5819 392.034 81.1432 392.125 80.6392 392.125ZM85.6733 390.12L85.6693 388.408H85.8965L88.0586 385.992H89.7154L87.0559 388.953H86.7621L85.6733 390.12ZM84.3807 392.008V383.986H85.7986V392.008H84.3807ZM88.1565 392.008L86.1981 389.27L87.1538 388.271L89.8524 392.008H88.1565Z" fill="black"/>
</g>
<path d="M30.4426 78.0595C30.3948 77.6562 30.2011 77.3431 29.8615 77.1202C29.5219 76.8973 29.1053 76.7859 28.6118 76.7859C28.251 76.7859 27.9352 76.8443 27.6646 76.961C27.3966 77.0778 27.187 77.2383 27.0358 77.4426C26.8872 77.6469 26.8129 77.8791 26.8129 78.1391C26.8129 78.3566 26.8646 78.5437 26.9681 78.7002C27.0742 78.8541 27.2095 78.9828 27.374 79.0863C27.5386 79.1871 27.711 79.2707 27.8914 79.337C28.0719 79.4007 28.2377 79.4524 28.3889 79.4922L29.2167 79.7151C29.429 79.7708 29.6651 79.8478 29.9252 79.946C30.1878 80.0441 30.4386 80.1781 30.6774 80.3479C30.9188 80.5151 31.1178 80.73 31.2744 80.9927C31.4309 81.2553 31.5092 81.5777 31.5092 81.9598C31.5092 82.4002 31.3937 82.7982 31.1629 83.1538C30.9347 83.5093 30.6004 83.7919 30.16 84.0015C29.7222 84.2111 29.1902 84.3159 28.564 84.3159C27.9803 84.3159 27.4749 84.2217 27.0477 84.0333C26.6232 83.8449 26.2889 83.5823 26.0448 83.2453C25.8033 82.9083 25.6667 82.517 25.6348 82.0712H26.6537C26.6802 82.379 26.7837 82.6337 26.9641 82.8354C27.1472 83.0344 27.378 83.1829 27.6566 83.2811C27.9379 83.3766 28.2403 83.4244 28.564 83.4244C28.9408 83.4244 29.2791 83.3634 29.5789 83.2413C29.8787 83.1166 30.1162 82.9441 30.2913 82.7239C30.4664 82.501 30.554 82.241 30.554 81.9439C30.554 81.6732 30.4784 81.453 30.3271 81.2832C30.1759 81.1134 29.9769 80.9754 29.7302 80.8693C29.4834 80.7632 29.2167 80.6703 28.9302 80.5907L27.9273 80.3041C27.2905 80.1211 26.7863 79.8597 26.4149 79.5201C26.0434 79.1805 25.8577 78.7361 25.8577 78.1868C25.8577 77.7305 25.9811 77.3325 26.2278 76.9929C26.4772 76.6506 26.8116 76.3853 27.2308 76.1969C27.6526 76.0058 28.1236 75.9103 28.6436 75.9103C29.169 75.9103 29.636 76.0045 30.0446 76.1929C30.4532 76.3786 30.7769 76.6333 31.0157 76.957C31.2571 77.2807 31.3845 77.6482 31.3977 78.0595H30.4426ZM35.439 78.0595V78.8555H32.271V78.0595H35.439ZM33.1944 76.5949H34.1336V82.4215C34.1336 82.6868 34.1721 82.8858 34.249 83.0184C34.3286 83.1484 34.4295 83.236 34.5515 83.2811C34.6762 83.3236 34.8076 83.3448 34.9455 83.3448C35.049 83.3448 35.1339 83.3395 35.2002 83.3289C35.2666 83.3156 35.3196 83.305 35.3594 83.297L35.5505 84.1408C35.4868 84.1646 35.3979 84.1885 35.2838 84.2124C35.1697 84.2389 35.0251 84.2522 34.85 84.2522C34.5847 84.2522 34.3247 84.1952 34.07 84.0811C33.8179 83.967 33.6083 83.7932 33.4411 83.5597C33.2766 83.3262 33.1944 83.0317 33.1944 82.6762V76.5949ZM39.1251 84.3C38.5361 84.3 38.028 84.17 37.6008 83.9099C37.1763 83.6473 36.8486 83.2811 36.6178 82.8115C36.3896 82.3392 36.2755 81.79 36.2755 81.1638C36.2755 80.5376 36.3896 79.9858 36.6178 79.5082C36.8486 79.0279 37.1697 78.6538 37.5809 78.3858C37.9949 78.1152 38.4777 77.9799 39.0296 77.9799C39.348 77.9799 39.6624 78.0329 39.9729 78.1391C40.2833 78.2452 40.5659 78.4177 40.8206 78.6565C41.0753 78.8926 41.2783 79.2057 41.4295 79.5957C41.5807 79.9858 41.6564 80.466 41.6564 81.0364V81.4344H36.9442V80.6225H40.7012C40.7012 80.2776 40.6322 79.9698 40.4942 79.6992C40.3589 79.4286 40.1652 79.215 39.9132 79.0584C39.6638 78.9019 39.3692 78.8236 39.0296 78.8236C38.6555 78.8236 38.3318 78.9165 38.0585 79.1022C37.7879 79.2853 37.5796 79.5241 37.4337 79.8186C37.2878 80.1131 37.2148 80.4288 37.2148 80.7658V81.3071C37.2148 81.7687 37.2944 82.1601 37.4536 82.4811C37.6154 82.7995 37.8396 83.0423 38.1262 83.2095C38.4127 83.374 38.7457 83.4562 39.1251 83.4562C39.3719 83.4562 39.5948 83.4217 39.7938 83.3527C39.9954 83.2811 40.1692 83.175 40.3151 83.0344C40.4611 82.8911 40.5738 82.7133 40.6534 82.501L41.5608 82.7558C41.4653 83.0635 41.3048 83.3342 41.0793 83.5677C40.8537 83.7985 40.5752 83.9789 40.2435 84.1089C39.9118 84.2363 39.5391 84.3 39.1251 84.3ZM42.861 86.465V78.0595H43.7684V79.0306H43.8799C43.9488 78.9244 44.0444 78.7891 44.1664 78.6246C44.2911 78.4575 44.4689 78.3089 44.6997 78.1789C44.9332 78.0462 45.2489 77.9799 45.6469 77.9799C46.1617 77.9799 46.6154 78.1086 47.0081 78.3659C47.4007 78.6233 47.7072 78.9881 47.9274 79.4604C48.1476 79.9327 48.2577 80.4899 48.2577 81.132C48.2577 81.7794 48.1476 82.3405 47.9274 82.8155C47.7072 83.2877 47.4021 83.6539 47.012 83.9139C46.622 84.1713 46.1723 84.3 45.6629 84.3C45.2702 84.3 44.9558 84.235 44.7196 84.1049C44.4835 83.9723 44.3017 83.8224 44.1744 83.6552C44.047 83.4854 43.9488 83.3448 43.8799 83.2334H43.8003V86.465H42.861ZM43.7843 81.116C43.7843 81.5777 43.852 81.985 43.9873 82.3379C44.1226 82.6881 44.3203 82.9627 44.5803 83.1617C44.8403 83.3581 45.1587 83.4562 45.5355 83.4562C45.9282 83.4562 46.2559 83.3527 46.5185 83.1458C46.7839 82.9362 46.9829 82.6549 47.1155 82.3021C47.2508 81.9465 47.3185 81.5512 47.3185 81.116C47.3185 80.6862 47.2522 80.2988 47.1195 79.9539C46.9895 79.6063 46.7918 79.3317 46.5265 79.1301C46.2638 78.9258 45.9335 78.8236 45.5355 78.8236C45.1534 78.8236 44.8324 78.9205 44.5724 79.1142C44.3123 79.3052 44.116 79.5732 43.9833 79.9181C43.8507 80.2604 43.7843 80.6597 43.7843 81.116ZM55.2439 76.0218V84.1726H54.2569V77.0565H54.2091L52.2192 78.3779V77.3749L54.2569 76.0218H55.2439ZM62.7912 84.3C62.2394 84.3 61.7551 84.1686 61.3386 83.906C60.9247 83.6433 60.601 83.2758 60.3675 82.8035C60.1366 82.3312 60.0212 81.7794 60.0212 81.1479C60.0212 80.5111 60.1366 79.9552 60.3675 79.4803C60.601 79.0054 60.9247 78.6366 61.3386 78.3739C61.7551 78.1112 62.2394 77.9799 62.7912 77.9799C63.3431 77.9799 63.826 78.1112 64.2399 78.3739C64.6565 78.6366 64.9802 79.0054 65.211 79.4803C65.4445 79.9552 65.5612 80.5111 65.5612 81.1479C65.5612 81.7794 65.4445 82.3312 65.211 82.8035C64.9802 83.2758 64.6565 83.6433 64.2399 83.906C63.826 84.1686 63.3431 84.3 62.7912 84.3ZM62.7912 83.4562C63.2105 83.4562 63.5554 83.3488 63.826 83.1339C64.0966 82.9189 64.297 82.6364 64.427 82.2861C64.557 81.9359 64.622 81.5565 64.622 81.1479C64.622 80.7393 64.557 80.3585 64.427 80.0057C64.297 79.6528 64.0966 79.3675 63.826 79.15C63.5554 78.9324 63.2105 78.8236 62.7912 78.8236C62.372 78.8236 62.0271 78.9324 61.7565 79.15C61.4858 79.3675 61.2855 79.6528 61.1555 80.0057C61.0255 80.3585 60.9605 80.7393 60.9605 81.1479C60.9605 81.5565 61.0255 81.9359 61.1555 82.2861C61.2855 82.6364 61.4858 82.9189 61.7565 83.1339C62.0271 83.3488 62.372 83.4562 62.7912 83.4562ZM69.4931 78.0595V78.8555H66.1978V78.0595H69.4931ZM67.1848 84.1726V77.2157C67.1848 76.8655 67.267 76.5736 67.4315 76.3402C67.596 76.1067 67.8096 75.9316 68.0723 75.8148C68.335 75.6981 68.6122 75.6397 68.9041 75.6397C69.1349 75.6397 69.3233 75.6583 69.4692 75.6954C69.6152 75.7326 69.7239 75.7671 69.7956 75.7989L69.5249 76.6108C69.4772 76.5949 69.4109 76.575 69.326 76.5511C69.2437 76.5272 69.1349 76.5153 68.9996 76.5153C68.6892 76.5153 68.465 76.5935 68.327 76.7501C68.1917 76.9066 68.124 77.1361 68.124 77.4386V84.1726H67.1848ZM76.2514 84.284C75.7261 84.284 75.2578 84.1938 74.8465 84.0134C74.4379 83.833 74.1129 83.5823 73.8714 83.2612C73.6326 82.9375 73.5026 82.5621 73.4814 82.1349H74.4843C74.5056 82.3976 74.5958 82.6244 74.755 82.8155C74.9142 83.0038 75.1225 83.1498 75.3798 83.2533C75.6372 83.3567 75.9224 83.4085 76.2355 83.4085C76.5857 83.4085 76.8962 83.3474 77.1668 83.2254C77.4374 83.1033 77.6497 82.9335 77.8036 82.716C77.9575 82.4984 78.0344 82.2463 78.0344 81.9598C78.0344 81.66 77.9601 81.396 77.8115 81.1678C77.663 80.9369 77.4454 80.7565 77.1588 80.6265C76.8723 80.4965 76.5221 80.4315 76.1081 80.4315H75.4554V79.5559H76.1081C76.4318 79.5559 76.7157 79.4975 76.9598 79.3808C77.2066 79.2641 77.399 79.0996 77.5369 78.8873C77.6776 78.675 77.7479 78.4256 77.7479 78.1391C77.7479 77.8631 77.6868 77.623 77.5648 77.4187C77.4427 77.2144 77.2703 77.0552 77.0474 76.9411C76.8272 76.827 76.5672 76.77 76.2673 76.77C75.9861 76.77 75.7208 76.8217 75.4714 76.9252C75.2246 77.026 75.023 77.1733 74.8664 77.367C74.7099 77.558 74.625 77.7888 74.6117 78.0595H73.6565C73.6724 77.6323 73.8011 77.2582 74.0426 76.9371C74.284 76.6134 74.5998 76.3614 74.9898 76.181C75.3825 76.0005 75.8136 75.9103 76.2833 75.9103C76.7874 75.9103 77.2199 76.0125 77.5807 76.2168C77.9416 76.4184 78.2188 76.6851 78.4125 77.0167C78.6062 77.3484 78.703 77.7066 78.703 78.0913C78.703 78.5503 78.5823 78.9417 78.3409 79.2654C78.1021 79.5891 77.777 79.8133 77.3658 79.938V80.0017C77.8805 80.0866 78.2825 80.3055 78.5717 80.6584C78.8609 81.0086 79.0055 81.4424 79.0055 81.9598C79.0055 82.4029 78.8848 82.8009 78.6433 83.1538C78.4045 83.504 78.0782 83.7799 77.6643 83.9816C77.2504 84.1832 76.7794 84.284 76.2514 84.284Z" fill="#667085"/>
<rect x="24.998" y="91.9521" width="380.522" height="2.94123" rx="1.47062" fill="#EEF1F3"/>
<rect x="24.998" y="91.9521" width="126.841" height="2.94123" rx="1.47062" fill="#0C0A40"/>
<g clip-path="url(#clip1_32_5951)">
<path d="M32.3588 123.108V130.921H31.4432L27.1854 124.786H27.1091V130.921H26.163V123.108H27.0786L31.3516 129.258H31.4279V123.108H32.3588ZM35.8545 131.058C35.4832 131.058 35.1462 130.988 34.8435 130.849C34.5408 130.706 34.3005 130.501 34.1224 130.234C33.9444 129.965 33.8553 129.639 33.8553 129.258C33.8553 128.922 33.9215 128.65 34.0537 128.441C34.186 128.23 34.3628 128.065 34.5841 127.945C34.8053 127.826 35.0495 127.737 35.3166 127.678C35.5862 127.617 35.8571 127.569 36.1292 127.533C36.4853 127.487 36.774 127.453 36.9953 127.43C37.2191 127.405 37.3819 127.363 37.4836 127.304C37.5879 127.246 37.64 127.144 37.64 126.999V126.969C37.64 126.592 37.537 126.3 37.331 126.091C37.1275 125.882 36.8185 125.778 36.4039 125.778C35.9741 125.778 35.637 125.872 35.3929 126.061C35.1487 126.249 34.977 126.45 34.8778 126.663L34.0232 126.358C34.1758 126.002 34.3793 125.725 34.6336 125.526C34.8905 125.325 35.1703 125.186 35.473 125.107C35.7782 125.025 36.0783 124.985 36.3734 124.985C36.5616 124.985 36.7778 125.008 37.022 125.053C37.2687 125.097 37.5065 125.187 37.7354 125.324C37.9669 125.462 38.1589 125.669 38.3115 125.946C38.4641 126.223 38.5404 126.595 38.5404 127.06V130.921H37.64V130.128H37.5942C37.5332 130.255 37.4315 130.391 37.289 130.536C37.1466 130.681 36.9571 130.804 36.7206 130.906C36.484 131.008 36.1953 131.058 35.8545 131.058ZM35.9919 130.25C36.3479 130.25 36.6481 130.18 36.8922 130.04C37.139 129.9 37.3246 129.719 37.4493 129.498C37.5764 129.277 37.64 129.044 37.64 128.8V127.976C37.6019 128.022 37.5179 128.064 37.3882 128.102C37.261 128.137 37.1135 128.169 36.9457 128.197C36.7803 128.222 36.6188 128.245 36.4611 128.266C36.306 128.284 36.1801 128.299 36.0834 128.311C35.8494 128.342 35.6307 128.392 35.4272 128.46C35.2263 128.526 35.0635 128.627 34.9389 128.762C34.8168 128.894 34.7557 129.075 34.7557 129.303C34.7557 129.616 34.8715 129.853 35.1029 130.013C35.3369 130.171 35.6332 130.25 35.9919 130.25ZM40.1838 130.921V125.061H41.0537V125.977H41.13C41.2521 125.664 41.4492 125.421 41.7213 125.248C41.9935 125.072 42.3203 124.985 42.7018 124.985C43.0884 124.985 43.4102 125.072 43.6671 125.248C43.9265 125.421 44.1287 125.664 44.2737 125.977H44.3347C44.4848 125.674 44.7099 125.434 45.01 125.256C45.3101 125.075 45.67 124.985 46.0897 124.985C46.6137 124.985 47.0422 125.149 47.3754 125.477C47.7086 125.802 47.8752 126.31 47.8752 126.999V130.921H46.9748V126.999C46.9748 126.567 46.8566 126.258 46.62 126.072C46.3835 125.886 46.105 125.793 45.7845 125.793C45.3725 125.793 45.0533 125.918 44.8269 126.167C44.6005 126.414 44.4873 126.727 44.4873 127.106V130.921H43.5717V126.907C43.5717 126.574 43.4636 126.306 43.2474 126.102C43.0312 125.896 42.7527 125.793 42.4119 125.793C42.1779 125.793 41.9591 125.856 41.7557 125.98C41.5547 126.105 41.3919 126.278 41.2673 126.499C41.1452 126.718 41.0842 126.971 41.0842 127.258V130.921H40.1838ZM51.9785 131.043C51.4138 131.043 50.9267 130.919 50.5173 130.669C50.1103 130.417 49.7962 130.066 49.5749 129.616C49.3562 129.164 49.2468 128.637 49.2468 128.037C49.2468 127.437 49.3562 126.907 49.5749 126.45C49.7962 125.989 50.1039 125.631 50.4982 125.374C50.895 125.114 51.3579 124.985 51.8869 124.985C52.1921 124.985 52.4935 125.036 52.7911 125.137C53.0887 125.239 53.3596 125.404 53.6037 125.633C53.8479 125.86 54.0425 126.16 54.1875 126.534C54.3324 126.907 54.4049 127.368 54.4049 127.915V128.296H49.8877V127.518H53.4893C53.4893 127.187 53.4232 126.892 53.2909 126.633C53.1612 126.373 52.9755 126.169 52.7339 126.019C52.4948 125.868 52.2125 125.793 51.8869 125.793C51.5283 125.793 51.218 125.882 50.956 126.061C50.6966 126.236 50.4969 126.465 50.357 126.747C50.2171 127.03 50.1472 127.332 50.1472 127.655V128.174C50.1472 128.617 50.2235 128.992 50.3761 129.3C50.5312 129.605 50.7462 129.838 51.0209 129.998C51.2956 130.155 51.6148 130.234 51.9785 130.234C52.215 130.234 52.4287 130.201 52.6194 130.135C52.8127 130.066 52.9793 129.965 53.1192 129.83C53.2591 129.693 53.3672 129.522 53.4435 129.319L54.3134 129.563C54.2218 129.858 54.0679 130.117 53.8517 130.341C53.6355 130.562 53.3685 130.735 53.0505 130.86C52.7326 130.982 52.3753 131.043 51.9785 131.043Z" fill="#101828"/>
<rect x="25.4503" y="138.726" width="379.651" height="39.8447" rx="2.58847" stroke="black" stroke-opacity="0.1" stroke-width="0.466975"/>
<path opacity="0.5" d="M40.7054 155.218V162.914H40.0026V155.218H40.7054ZM43.2814 159.307V162.914H42.6125V157.142H43.2626V158.048H43.3228C43.458 157.752 43.6685 157.515 43.9541 157.338C44.2422 157.157 44.5979 157.067 45.0213 157.067C45.4097 157.067 45.7504 157.148 46.0435 157.311C46.3391 157.472 46.5684 157.708 46.7312 158.022C46.8965 158.335 46.9792 158.719 46.9792 159.175V162.914H46.3103V159.217C46.3103 158.743 46.1775 158.369 45.912 158.093C45.6489 157.817 45.2957 157.68 44.8522 157.68C44.5491 157.68 44.2798 157.745 44.0443 157.875C43.8088 158.005 43.6221 158.193 43.4843 158.439C43.3491 158.682 43.2814 158.971 43.2814 159.307ZM48.7408 165.079V157.142H49.3909V158.243H49.4698C49.55 158.07 49.6602 157.894 49.8005 157.713C49.9408 157.531 50.1262 157.376 50.3567 157.251C50.5897 157.126 50.8828 157.063 51.236 157.063C51.712 157.063 52.1279 157.189 52.4836 157.439C52.8419 157.687 53.12 158.035 53.3179 158.484C53.5183 158.93 53.6185 159.45 53.6185 160.043C53.6185 160.64 53.5183 161.162 53.3179 161.61C53.12 162.059 52.8419 162.408 52.4836 162.659C52.1279 162.909 51.7145 163.035 51.2435 163.035C50.8953 163.035 50.6034 162.972 50.3679 162.847C50.1349 162.721 49.9458 162.567 49.8005 162.384C49.6577 162.199 49.5475 162.019 49.4698 161.843H49.4097V165.079H48.7408ZM49.4021 160.032C49.4021 160.498 49.471 160.911 49.6088 161.272C49.7491 161.63 49.9496 161.912 50.2101 162.118C50.4732 162.321 50.7913 162.422 51.1646 162.422C51.5479 162.422 51.8711 162.317 52.1342 162.106C52.3997 161.893 52.6014 161.607 52.7392 161.246C52.8795 160.885 52.9496 160.48 52.9496 160.032C52.9496 159.589 52.8807 159.189 52.7429 158.833C52.6077 158.478 52.4072 158.196 52.1417 157.988C51.8761 157.777 51.5504 157.672 51.1646 157.672C50.7888 157.672 50.4694 157.774 50.2063 157.976C49.9433 158.177 49.7429 158.455 49.6051 158.811C49.4698 159.164 49.4021 159.571 49.4021 160.032ZM58.7538 160.708V157.142H59.4227V162.914H58.7538V161.956H58.7011C58.5659 162.252 58.3517 162.498 58.0585 162.696C57.7654 162.892 57.4072 162.99 56.9838 162.99C56.6155 162.99 56.2886 162.909 56.0029 162.749C55.7173 162.586 55.4931 162.348 55.3303 162.035C55.1674 161.722 55.086 161.337 55.086 160.881V157.142H55.7549V160.84C55.7549 161.291 55.8877 161.654 56.1533 161.93C56.4188 162.203 56.7595 162.339 57.1754 162.339C57.436 162.339 57.6865 162.277 57.927 162.152C58.1675 162.026 58.3654 161.843 58.5208 161.603C58.6761 161.36 58.7538 161.062 58.7538 160.708ZM63.4671 157.142V157.725H60.7126V157.142H63.4671ZM61.5731 155.759H62.2458V161.407C62.2458 161.648 62.2871 161.837 62.3698 161.975C62.4525 162.11 62.5602 162.207 62.693 162.264C62.8258 162.319 62.9673 162.347 63.1176 162.347C63.2053 162.347 63.2805 162.342 63.3431 162.332C63.4058 162.319 63.4609 162.307 63.5085 162.294L63.6513 162.899C63.5861 162.924 63.506 162.947 63.4108 162.967C63.3156 162.99 63.1978 163.001 63.0575 163.001C62.812 163.001 62.5753 162.947 62.3473 162.839C62.1218 162.731 61.9364 162.571 61.7911 162.358C61.6458 162.145 61.5731 161.881 61.5731 161.565V155.759ZM68.6315 159.307V162.914H67.9626V157.142H68.6127V158.048H68.6728C68.8081 157.752 69.0185 157.515 69.3041 157.338C69.5922 157.157 69.948 157.067 70.3714 157.067C70.7597 157.067 71.1004 157.148 71.3935 157.311C71.6892 157.472 71.9184 157.708 72.0812 158.022C72.2466 158.335 72.3293 158.719 72.3293 159.175V162.914H71.6604V159.217C71.6604 158.743 71.5276 158.369 71.262 158.093C70.999 157.817 70.6457 157.68 70.2023 157.68C69.8991 157.68 69.6298 157.745 69.3943 157.875C69.1588 158.005 68.9722 158.193 68.8344 158.439C68.6991 158.682 68.6315 158.971 68.6315 159.307ZM75.703 163.046C75.3547 163.046 75.0365 162.978 74.7484 162.843C74.4603 162.705 74.2311 162.507 74.0607 162.249C73.8904 161.989 73.8052 161.673 73.8052 161.302C73.8052 161.017 73.8591 160.776 73.9668 160.581C74.0745 160.385 74.2273 160.225 74.4253 160.1C74.6232 159.974 74.8574 159.875 75.128 159.803C75.3986 159.73 75.6967 159.674 76.0224 159.634C76.3456 159.594 76.6186 159.559 76.8416 159.528C77.0671 159.498 77.2387 159.451 77.3564 159.386C77.4742 159.321 77.5331 159.215 77.5331 159.07V158.935C77.5331 158.541 77.4153 158.232 77.1798 158.007C76.9468 157.779 76.6111 157.665 76.1727 157.665C75.7568 157.665 75.4173 157.756 75.1543 157.939C74.8937 158.122 74.7109 158.337 74.6056 158.585L73.9705 158.356C74.1008 158.04 74.2812 157.789 74.5117 157.601C74.7422 157.41 75.0002 157.274 75.2858 157.191C75.5714 157.106 75.8608 157.063 76.1539 157.063C76.3744 157.063 76.6036 157.092 76.8416 157.15C77.0821 157.207 77.3051 157.308 77.5105 157.45C77.7159 157.591 77.8826 157.787 78.0103 158.04C78.1381 158.291 78.202 158.609 78.202 158.995V162.914H77.5331V162.001H77.4917C77.4116 162.172 77.2926 162.337 77.1347 162.497C76.9769 162.658 76.779 162.789 76.541 162.892C76.303 162.995 76.0236 163.046 75.703 163.046ZM75.7931 162.433C76.1489 162.433 76.457 162.354 76.7176 162.197C76.9781 162.039 77.1786 161.83 77.3189 161.569C77.4617 161.306 77.5331 161.017 77.5331 160.701V159.867C77.483 159.914 77.399 159.957 77.2813 159.994C77.166 160.032 77.032 160.066 76.8792 160.096C76.7289 160.123 76.5786 160.147 76.4282 160.167C76.2779 160.187 76.1426 160.205 76.0224 160.22C75.6967 160.26 75.4186 160.323 75.1881 160.408C74.9576 160.493 74.781 160.611 74.6582 160.761C74.5355 160.909 74.4741 161.099 74.4741 161.332C74.4741 161.683 74.5994 161.955 74.8499 162.148C75.1004 162.338 75.4148 162.433 75.7931 162.433ZM79.9814 162.914V157.142H80.6315V158.029H80.6916C80.8068 157.731 80.9985 157.497 81.2666 157.326C81.5371 157.153 81.8616 157.067 82.2399 157.067C82.6382 157.067 82.9652 157.161 83.2207 157.349C83.4787 157.534 83.6716 157.79 83.7994 158.115H83.8483C83.9785 157.795 84.1902 157.541 84.4834 157.353C84.779 157.162 85.1372 157.067 85.5581 157.067C86.0943 157.067 86.5176 157.236 86.8283 157.574C87.139 157.91 87.2943 158.401 87.2943 159.047V162.914H86.6254V159.047C86.6254 158.591 86.5089 158.25 86.2759 158.022C86.0429 157.794 85.736 157.68 85.3552 157.68C84.9143 157.68 84.5748 157.815 84.3368 158.085C84.0988 158.356 83.9798 158.699 83.9798 159.115V162.914H83.2959V158.987C83.2959 158.597 83.1869 158.281 82.9689 158.04C82.751 157.8 82.4441 157.68 82.0482 157.68C81.7827 157.68 81.5434 157.745 81.3305 157.875C81.12 158.005 80.9534 158.187 80.8306 158.42C80.7104 158.65 80.6503 158.916 80.6503 159.217V162.914H79.9814ZM91.3989 163.035C90.8602 163.035 90.3943 162.909 90.0009 162.659C89.6076 162.406 89.3032 162.056 89.0878 161.61C88.8748 161.162 88.7683 160.646 88.7683 160.062C88.7683 159.481 88.8748 158.965 89.0878 158.514C89.3032 158.06 89.6001 157.706 89.9784 157.45C90.3592 157.192 90.7989 157.063 91.2974 157.063C91.6106 157.063 91.9125 157.121 92.2031 157.236C92.4937 157.349 92.7542 157.523 92.9847 157.758C93.2177 157.991 93.4019 158.286 93.5371 158.642C93.6724 158.995 93.7401 159.413 93.7401 159.897V160.227H89.2306V159.637H93.0561C93.0561 159.267 92.981 158.933 92.8307 158.638C92.6828 158.34 92.4762 158.104 92.2106 157.931C91.9475 157.758 91.6432 157.672 91.2974 157.672C90.9317 157.672 90.6097 157.77 90.3316 157.965C90.0535 158.161 89.8356 158.419 89.6778 158.739C89.5224 159.06 89.4435 159.411 89.441 159.792V160.145C89.441 160.603 89.5199 161.004 89.6778 161.347C89.8381 161.688 90.0648 161.952 90.3579 162.14C90.6511 162.328 90.998 162.422 91.3989 162.422C91.672 162.422 91.9112 162.379 92.1167 162.294C92.3246 162.209 92.4987 162.095 92.639 161.952C92.7818 161.807 92.8895 161.648 92.9622 161.475L93.5973 161.682C93.5096 161.925 93.3655 162.149 93.1651 162.354C92.9672 162.56 92.7192 162.725 92.421 162.85C92.1254 162.973 91.7847 163.035 91.3989 163.035ZM100.434 163.035C99.9353 163.035 99.4944 162.908 99.1111 162.655C98.7303 162.402 98.4322 162.053 98.2167 161.607C98.0013 161.158 97.8935 160.641 97.8935 160.055C97.8935 159.463 98.0013 158.943 98.2167 158.495C98.4322 158.044 98.7303 157.693 99.1111 157.443C99.4944 157.19 99.9353 157.063 100.434 157.063C100.932 157.063 101.372 157.19 101.753 157.443C102.134 157.696 102.432 158.047 102.647 158.495C102.865 158.943 102.974 159.463 102.974 160.055C102.974 160.641 102.867 161.158 102.651 161.607C102.436 162.053 102.136 162.402 101.753 162.655C101.372 162.908 100.932 163.035 100.434 163.035ZM100.434 162.422C100.835 162.422 101.174 162.314 101.452 162.099C101.73 161.883 101.941 161.597 102.084 161.238C102.229 160.88 102.302 160.485 102.302 160.055C102.302 159.624 102.229 159.228 102.084 158.867C101.941 158.506 101.73 158.217 101.452 157.999C101.174 157.781 100.835 157.672 100.434 157.672C100.036 157.672 99.6961 157.781 99.4155 157.999C99.1374 158.217 98.9257 158.506 98.7804 158.867C98.6376 159.228 98.5662 159.624 98.5662 160.055C98.5662 160.485 98.6376 160.88 98.7804 161.238C98.9257 161.597 99.1374 161.883 99.4155 162.099C99.6936 162.314 100.033 162.422 100.434 162.422ZM106.818 157.142V157.725H103.98V157.142H106.818ZM104.867 162.914V156.297C104.867 155.986 104.939 155.724 105.082 155.511C105.227 155.298 105.416 155.137 105.649 155.026C105.882 154.916 106.129 154.861 106.389 154.861C106.565 154.861 106.71 154.876 106.825 154.906C106.943 154.934 107.036 154.961 107.103 154.989L106.908 155.575C106.858 155.56 106.796 155.543 106.724 155.523C106.651 155.502 106.56 155.492 106.449 155.492C106.159 155.492 105.935 155.574 105.777 155.737C105.619 155.9 105.54 156.133 105.54 156.436L105.536 162.914H104.867ZM111.268 162.914V155.218H111.941V158.243H112.001C112.076 158.07 112.184 157.893 112.324 157.71C112.467 157.527 112.653 157.374 112.884 157.251C113.117 157.126 113.41 157.063 113.763 157.063C114.237 157.063 114.653 157.189 115.011 157.439C115.369 157.687 115.648 158.035 115.849 158.484C116.049 158.93 116.15 159.45 116.15 160.043C116.15 160.64 116.049 161.162 115.849 161.61C115.651 162.059 115.373 162.408 115.015 162.659C114.659 162.909 114.246 163.035 113.775 163.035C113.424 163.035 113.131 162.972 112.895 162.847C112.662 162.721 112.474 162.567 112.331 162.384C112.189 162.199 112.078 162.019 112.001 161.843H111.918V162.914H111.268ZM111.929 160.032C111.929 160.498 111.998 160.911 112.136 161.272C112.276 161.63 112.477 161.912 112.737 162.118C113 162.321 113.319 162.422 113.692 162.422C114.075 162.422 114.4 162.317 114.665 162.106C114.931 161.893 115.132 161.607 115.27 161.246C115.408 160.885 115.477 160.48 115.477 160.032C115.477 159.589 115.408 159.189 115.27 158.833C115.135 158.478 114.934 158.196 114.669 157.988C114.403 157.777 114.078 157.672 113.692 157.672C113.316 157.672 112.997 157.774 112.734 157.976C112.473 158.177 112.274 158.455 112.136 158.811C111.998 159.164 111.929 159.571 111.929 160.032ZM117.626 162.914V157.142H118.299V162.914H117.626ZM117.968 156.15C117.831 156.15 117.713 156.104 117.615 156.011C117.517 155.916 117.469 155.802 117.469 155.669C117.469 155.536 117.517 155.424 117.615 155.331C117.713 155.236 117.831 155.188 117.968 155.188C118.106 155.188 118.224 155.236 118.322 155.331C118.419 155.424 118.468 155.536 118.468 155.669C118.468 155.802 118.419 155.916 118.322 156.011C118.224 156.104 118.106 156.15 117.968 156.15ZM120.737 155.218V162.914H120.068V155.218H120.737ZM123.176 155.218V162.914H122.507V155.218H123.176Z" fill="#101828"/>
<path d="M26.163 206.205V198.392H28.8946C29.4389 198.392 29.8879 198.486 30.2414 198.674C30.5949 198.86 30.8582 199.11 31.0312 199.426C31.2041 199.739 31.2906 200.086 31.2906 200.467C31.2906 200.803 31.2308 201.08 31.1113 201.299C30.9943 201.518 30.8391 201.691 30.6458 201.818C30.4551 201.945 30.2478 202.039 30.0239 202.1V202.177C30.263 202.192 30.5034 202.276 30.745 202.428C30.9866 202.581 31.1888 202.8 31.3516 203.085C31.5144 203.369 31.5958 203.718 31.5958 204.13C31.5958 204.522 31.5068 204.874 31.3287 205.187C31.1507 205.5 30.8696 205.748 30.4856 205.931C30.1015 206.114 29.6017 206.205 28.9862 206.205H26.163ZM27.1091 205.366H28.9862C29.6043 205.366 30.043 205.247 30.3024 205.007C30.5644 204.766 30.6954 204.473 30.6954 204.13C30.6954 203.865 30.628 203.621 30.4932 203.397C30.3584 203.171 30.1664 202.991 29.9171 202.856C29.6679 202.718 29.3728 202.65 29.032 202.65H27.1091V205.366ZM27.1091 201.826H28.8641C29.149 201.826 29.4059 201.77 29.6348 201.658C29.8662 201.546 30.0494 201.388 30.1842 201.185C30.3215 200.981 30.3902 200.742 30.3902 200.467C30.3902 200.124 30.2707 199.833 30.0316 199.594C29.7925 199.352 29.4135 199.231 28.8946 199.231H27.1091V201.826ZM33.0284 206.205V200.345H33.9288V206.205H33.0284ZM33.4862 199.369C33.3107 199.369 33.1594 199.309 33.0322 199.189C32.9076 199.07 32.8453 198.926 32.8453 198.758C32.8453 198.59 32.9076 198.447 33.0322 198.327C33.1594 198.208 33.3107 198.148 33.4862 198.148C33.6617 198.148 33.8118 198.208 33.9364 198.327C34.0636 198.447 34.1272 198.59 34.1272 198.758C34.1272 198.926 34.0636 199.07 33.9364 199.189C33.8118 199.309 33.6617 199.369 33.4862 199.369ZM36.4783 198.392V206.205H35.5779V198.392H36.4783ZM39.0278 198.392V206.205H38.1274V198.392H39.0278ZM43.1339 206.328C42.5693 206.328 42.0822 206.203 41.6727 205.954C41.2657 205.702 40.9516 205.351 40.7303 204.901C40.5116 204.448 40.4022 203.921 40.4022 203.321C40.4022 202.721 40.5116 202.192 40.7303 201.734C40.9516 201.274 41.2594 200.915 41.6536 200.658C42.0504 200.399 42.5133 200.269 43.0423 200.269C43.3476 200.269 43.649 200.32 43.9465 200.422C44.2441 200.523 44.515 200.689 44.7592 200.918C45.0033 201.144 45.1979 201.444 45.3429 201.818C45.4879 202.192 45.5604 202.652 45.5604 203.199V203.581H41.0432V202.802H44.6447C44.6447 202.472 44.5786 202.177 44.4463 201.917C44.3166 201.658 44.1309 201.453 43.8893 201.303C43.6502 201.153 43.3679 201.078 43.0423 201.078C42.6837 201.078 42.3734 201.167 42.1114 201.345C41.852 201.52 41.6523 201.749 41.5124 202.032C41.3726 202.314 41.3026 202.617 41.3026 202.94V203.459C41.3026 203.901 41.3789 204.276 41.5315 204.584C41.6867 204.889 41.9016 205.122 42.1763 205.282C42.451 205.44 42.7702 205.519 43.1339 205.519C43.3704 205.519 43.5841 205.486 43.7749 205.42C43.9682 205.351 44.1348 205.249 44.2746 205.114C44.4145 204.977 44.5226 204.807 44.5989 204.603L45.4688 204.847C45.3772 205.142 45.2234 205.402 45.0072 205.626C44.791 205.847 44.5239 206.02 44.206 206.144C43.888 206.266 43.5307 206.328 43.1339 206.328ZM46.93 206.205V200.345H47.7999V201.23H47.8609C47.9677 200.94 48.1611 200.705 48.4408 200.525C48.7206 200.344 49.036 200.254 49.387 200.254C49.4531 200.254 49.5358 200.255 49.635 200.258C49.7342 200.26 49.8092 200.264 49.8601 200.269V201.185C49.8296 201.177 49.7596 201.166 49.6502 201.15C49.5434 201.133 49.4302 201.124 49.3107 201.124C49.0258 201.124 48.7715 201.183 48.5477 201.303C48.3264 201.42 48.1509 201.583 48.0212 201.791C47.894 201.997 47.8304 202.233 47.8304 202.497V206.205H46.93Z" fill="#101828"/>
<rect x="25.4503" y="214.011" width="379.651" height="40.2139" rx="2.58847" stroke="black" stroke-opacity="0.1" stroke-width="0.466975"/>
<path opacity="0.5" d="M44.1814 231.12C44.1389 230.692 43.9497 230.351 43.614 230.098C43.2783 229.845 42.8561 229.719 42.3476 229.719C41.9893 229.719 41.6737 229.78 41.4006 229.903C41.13 230.026 40.9171 230.196 40.7617 230.414C40.6089 230.629 40.5325 230.875 40.5325 231.15C40.5325 231.353 40.5763 231.531 40.664 231.684C40.7517 231.837 40.8695 231.968 41.0173 232.079C41.1676 232.186 41.3329 232.279 41.5133 232.357C41.6962 232.434 41.8803 232.499 42.0657 232.552L42.8774 232.785C43.123 232.853 43.3685 232.939 43.614 233.044C43.8595 233.15 44.0837 233.282 44.2867 233.443C44.4921 233.601 44.6562 233.795 44.779 234.025C44.9042 234.253 44.9669 234.528 44.9669 234.848C44.9669 235.259 44.8604 235.629 44.6474 235.957C44.4345 236.285 44.1288 236.546 43.7305 236.738C43.3322 236.929 42.8549 237.024 42.2987 237.024C41.7751 237.024 41.3204 236.938 40.9346 236.765C40.5488 236.589 40.2456 236.348 40.0252 236.039C39.8047 235.731 39.6807 235.374 39.6531 234.968H40.3747C40.3997 235.272 40.4999 235.528 40.6753 235.739C40.8507 235.949 41.0786 236.11 41.3592 236.22C41.6398 236.328 41.953 236.381 42.2987 236.381C42.682 236.381 43.0227 236.318 43.3209 236.19C43.6215 236.06 43.857 235.879 44.0274 235.649C44.2002 235.416 44.2867 235.145 44.2867 234.837C44.2867 234.576 44.219 234.358 44.0837 234.183C43.9485 234.005 43.7593 233.856 43.5163 233.736C43.2758 233.616 42.9964 233.509 42.6783 233.416L41.7576 233.146C41.1538 232.965 40.6853 232.716 40.3521 232.398C40.0189 232.08 39.8523 231.674 39.8523 231.18C39.8523 230.767 39.9625 230.404 40.183 230.091C40.406 229.775 40.7066 229.529 41.0849 229.354C41.4657 229.176 41.8929 229.087 42.3664 229.087C42.8449 229.087 43.2683 229.175 43.6365 229.35C44.0048 229.526 44.2967 229.767 44.5121 230.076C44.7301 230.381 44.8466 230.73 44.8616 231.12H44.1814ZM48.8525 237.013C48.3139 237.013 47.8479 236.888 47.4546 236.637C47.0613 236.384 46.7569 236.034 46.5414 235.589C46.3285 235.14 46.222 234.624 46.222 234.04C46.222 233.459 46.3285 232.943 46.5414 232.492C46.7569 232.039 47.0538 231.684 47.4321 231.428C47.8129 231.17 48.2525 231.041 48.7511 231.041C49.0642 231.041 49.3661 231.099 49.6567 231.214C49.9474 231.327 50.2079 231.501 50.4384 231.737C50.6714 231.97 50.8555 232.264 50.9908 232.62C51.1261 232.973 51.1937 233.391 51.1937 233.875V234.206H46.6842V233.616H50.5098C50.5098 233.245 50.4346 232.912 50.2843 232.616C50.1365 232.318 49.9298 232.082 49.6643 231.91C49.4012 231.737 49.0968 231.65 48.7511 231.65C48.3853 231.65 48.0634 231.748 47.7853 231.943C47.5072 232.139 47.2893 232.397 47.1314 232.717C46.9761 233.038 46.8972 233.389 46.8947 233.77V234.123C46.8947 234.581 46.9736 234.982 47.1314 235.325C47.2918 235.666 47.5185 235.93 47.8116 236.118C48.1047 236.306 48.4517 236.4 48.8525 236.4C49.1256 236.4 49.3649 236.358 49.5703 236.272C49.7783 236.187 49.9524 236.073 50.0927 235.93C50.2355 235.785 50.3432 235.626 50.4158 235.453L51.0509 235.66C50.9633 235.903 50.8192 236.127 50.6188 236.333C50.4209 236.538 50.1728 236.703 49.8747 236.829C49.5791 236.951 49.2384 237.013 48.8525 237.013ZM53.3367 229.196V236.893H52.6678V229.196H53.3367ZM57.4404 237.013C56.9017 237.013 56.4357 236.888 56.0424 236.637C55.6491 236.384 55.3447 236.034 55.1292 235.589C54.9163 235.14 54.8098 234.624 54.8098 234.04C54.8098 233.459 54.9163 232.943 55.1292 232.492C55.3447 232.039 55.6416 231.684 56.0199 231.428C56.4007 231.17 56.8403 231.041 57.3389 231.041C57.6521 231.041 57.9539 231.099 58.2446 231.214C58.5352 231.327 58.7957 231.501 59.0262 231.737C59.2592 231.97 59.4433 232.264 59.5786 232.62C59.7139 232.973 59.7815 233.391 59.7815 233.875V234.206H55.272V233.616H59.0976C59.0976 233.245 59.0224 232.912 58.8721 232.616C58.7243 232.318 58.5176 232.082 58.2521 231.91C57.989 231.737 57.6846 231.65 57.3389 231.65C56.9731 231.65 56.6512 231.748 56.3731 231.943C56.095 232.139 55.8771 232.397 55.7192 232.717C55.5639 233.038 55.485 233.389 55.4825 233.77V234.123C55.4825 234.581 55.5614 234.982 55.7192 235.325C55.8796 235.666 56.1063 235.93 56.3994 236.118C56.6925 236.306 57.0395 236.4 57.4404 236.4C57.7134 236.4 57.9527 236.358 58.1581 236.272C58.3661 236.187 58.5402 236.073 58.6805 235.93C58.8233 235.785 58.931 235.626 59.0037 235.453L59.6387 235.66C59.5511 235.903 59.407 236.127 59.2066 236.333C59.0087 236.538 58.7606 236.703 58.4625 236.829C58.1669 236.951 57.8262 237.013 57.4404 237.013ZM63.5104 237.013C62.9943 237.013 62.5446 236.884 62.1613 236.626C61.7805 236.368 61.4848 236.014 61.2744 235.566C61.0639 235.118 60.9587 234.606 60.9587 234.033C60.9587 233.454 61.0652 232.939 61.2781 232.488C61.4936 232.037 61.7917 231.684 62.1725 231.428C62.5533 231.17 62.9955 231.041 63.4991 231.041C63.8849 231.041 64.2344 231.117 64.5475 231.267C64.8607 231.415 65.1187 231.624 65.3217 231.894C65.5271 232.163 65.6561 232.476 65.7087 232.834H65.0323C64.9622 232.508 64.7931 232.23 64.525 232C64.2594 231.767 63.9212 231.65 63.5104 231.65C63.1421 231.65 62.8164 231.75 62.5333 231.951C62.2502 232.149 62.0285 232.426 61.8681 232.781C61.7103 233.135 61.6314 233.544 61.6314 234.01C61.6314 234.479 61.7091 234.893 61.8644 235.254C62.0197 235.612 62.2377 235.893 62.5183 236.096C62.8014 236.299 63.1321 236.4 63.5104 236.4C63.7659 236.4 63.9989 236.353 64.2093 236.257C64.4223 236.16 64.6002 236.022 64.743 235.844C64.8883 235.666 64.986 235.454 65.0361 235.209H65.7125C65.6624 235.557 65.5384 235.868 65.3405 236.141C65.1451 236.412 64.8908 236.624 64.5776 236.78C64.2669 236.935 63.9112 237.013 63.5104 237.013ZM69.4197 231.12V231.703H66.6651V231.12H69.4197ZM67.5257 229.737H68.1984V235.386C68.1984 235.626 68.2397 235.815 68.3224 235.953C68.4051 236.088 68.5128 236.185 68.6456 236.242C68.7783 236.298 68.9199 236.325 69.0702 236.325C69.1579 236.325 69.2331 236.32 69.2957 236.31C69.3583 236.298 69.4134 236.285 69.461 236.272L69.6038 236.877C69.5387 236.903 69.4585 236.925 69.3633 236.945C69.2681 236.968 69.1504 236.979 69.0101 236.979C68.7646 236.979 68.5278 236.925 68.2998 236.817C68.0744 236.71 67.889 236.549 67.7437 236.336C67.5984 236.123 67.5257 235.859 67.5257 235.543V229.737ZM74.0542 236.893V229.196H76.6509C77.1519 229.196 77.5691 229.284 77.9023 229.459C78.238 229.635 78.4898 229.874 78.6576 230.177C78.8255 230.48 78.9094 230.825 78.9094 231.211C78.9094 231.531 78.8555 231.806 78.7478 232.034C78.6401 232.261 78.4935 232.446 78.3081 232.586C78.1227 232.726 77.9161 232.828 77.6881 232.89V232.95C77.9361 232.968 78.1766 233.056 78.4096 233.214C78.6426 233.369 78.8342 233.587 78.9846 233.867C79.1349 234.148 79.21 234.484 79.21 234.875C79.21 235.263 79.1236 235.61 78.9507 235.915C78.7779 236.219 78.5123 236.458 78.1541 236.633C77.7983 236.806 77.3449 236.893 76.7937 236.893H74.0542ZM74.7569 236.261H76.7937C77.3874 236.261 77.8259 236.13 78.109 235.867C78.3946 235.604 78.5374 235.273 78.5374 234.875C78.5374 234.581 78.466 234.316 78.3232 234.078C78.1829 233.837 77.9837 233.647 77.7257 233.507C77.4701 233.366 77.1695 233.296 76.8238 233.296H74.7569V236.261ZM74.7569 232.672H76.7148C77.0179 232.672 77.2835 232.61 77.5115 232.484C77.7394 232.359 77.9173 232.186 78.0451 231.966C78.1729 231.745 78.2367 231.494 78.2367 231.211C78.2367 230.802 78.104 230.47 77.8384 230.215C77.5728 229.957 77.177 229.828 76.6509 229.828H74.7569V232.672ZM80.7743 236.893V231.12H81.447V236.893H80.7743ZM81.1163 230.128C80.9785 230.128 80.8607 230.082 80.763 229.989C80.6653 229.894 80.6164 229.78 80.6164 229.647C80.6164 229.514 80.6653 229.402 80.763 229.309C80.8607 229.214 80.9785 229.166 81.1163 229.166C81.254 229.166 81.3718 229.214 81.4695 229.309C81.5672 229.402 81.6161 229.514 81.6161 229.647C81.6161 229.78 81.5672 229.894 81.4695 229.989C81.3718 230.082 81.254 230.128 81.1163 230.128ZM83.8849 229.196V236.893H83.216V229.196H83.8849ZM86.3238 229.196V236.893H85.6549V229.196H86.3238ZM90.4275 237.013C89.8888 237.013 89.4228 236.888 89.0295 236.637C88.6362 236.384 88.3318 236.034 88.1163 235.589C87.9034 235.14 87.7969 234.624 87.7969 234.04C87.7969 233.459 87.9034 232.943 88.1163 232.492C88.3318 232.039 88.6287 231.684 89.007 231.428C89.3878 231.17 89.8274 231.041 90.326 231.041C90.6392 231.041 90.941 231.099 91.2317 231.214C91.5223 231.327 91.7828 231.501 92.0133 231.737C92.2463 231.97 92.4304 232.264 92.5657 232.62C92.701 232.973 92.7687 233.391 92.7687 233.875V234.206H88.2591V233.616H92.0847C92.0847 233.245 92.0096 232.912 91.8592 232.616C91.7114 232.318 91.5047 232.082 91.2392 231.91C90.9761 231.737 90.6717 231.65 90.326 231.65C89.9602 231.65 89.6383 231.748 89.3602 231.943C89.0821 232.139 88.8642 232.397 88.7063 232.717C88.551 233.038 88.4721 233.389 88.4696 233.77V234.123C88.4696 234.581 88.5485 234.982 88.7063 235.325C88.8667 235.666 89.0934 235.93 89.3865 236.118C89.6796 236.306 90.0266 236.4 90.4275 236.4C90.7005 236.4 90.9398 236.358 91.1452 236.272C91.3532 236.187 91.5273 236.073 91.6676 235.93C91.8104 235.785 91.9181 235.626 91.9908 235.453L92.6259 235.66C92.5382 235.903 92.3941 236.127 92.1937 236.333C91.9958 236.538 91.7477 236.703 91.4496 236.829C91.154 236.951 90.8133 237.013 90.4275 237.013ZM94.2427 236.893V231.12H94.8928V232.007H94.9417C95.0569 231.717 95.2573 231.482 95.5429 231.304C95.831 231.124 96.1567 231.034 96.52 231.034C96.5751 231.034 96.6365 231.035 96.7041 231.038C96.7718 231.04 96.8282 231.043 96.8732 231.045V231.725C96.8432 231.72 96.7906 231.713 96.7154 231.703C96.6403 231.693 96.5588 231.688 96.4712 231.688C96.1705 231.688 95.9025 231.752 95.667 231.879C95.434 232.005 95.2498 232.179 95.1145 232.402C94.9793 232.625 94.9116 232.879 94.9116 233.165V236.893H94.2427Z" fill="#101828"/>
<path d="M383.612 236.63C383.089 236.63 382.567 236.441 382.171 236.069L377.303 231.502C377.086 231.299 377.086 230.963 377.303 230.76C377.52 230.557 377.878 230.557 378.094 230.76L382.962 235.327C383.321 235.663 383.903 235.663 384.261 235.327L389.129 230.76C389.346 230.557 389.704 230.557 389.921 230.76C390.137 230.963 390.137 231.299 389.921 231.502L385.053 236.069C384.657 236.441 384.134 236.63 383.612 236.63Z" fill="#292D32"/>
<path d="M26.163 281.859V274.045H28.8031C29.4161 274.045 29.9171 274.156 30.3063 274.377C30.698 274.596 30.9879 274.892 31.1761 275.266C31.3643 275.64 31.4585 276.057 31.4585 276.518C31.4585 276.978 31.3643 277.397 31.1761 277.773C30.9905 278.149 30.703 278.449 30.3139 278.673C29.9247 278.895 29.4262 279.005 28.8183 279.005H26.926V278.166H28.7878C29.2075 278.166 29.5445 278.093 29.7988 277.948C30.0532 277.803 30.2376 277.608 30.352 277.361C30.469 277.112 30.5275 276.831 30.5275 276.518C30.5275 276.205 30.469 275.925 30.352 275.678C30.2376 275.432 30.0519 275.238 29.795 275.098C29.5381 274.956 29.1973 274.885 28.7726 274.885H27.1091V281.859H26.163ZM32.8605 281.859V275.999H33.7304V276.884H33.7914C33.8983 276.594 34.0916 276.359 34.3714 276.178C34.6511 275.998 34.9665 275.907 35.3175 275.907C35.3837 275.907 35.4663 275.909 35.5655 275.911C35.6647 275.914 35.7397 275.917 35.7906 275.923V276.838C35.7601 276.831 35.6901 276.819 35.5808 276.804C35.4739 276.786 35.3608 276.777 35.2412 276.777C34.9564 276.777 34.702 276.837 34.4782 276.956C34.2569 277.073 34.0814 277.236 33.9517 277.445C33.8245 277.651 33.7609 277.886 33.7609 278.151V281.859H32.8605ZM39.0602 281.981C38.5312 281.981 38.067 281.855 37.6677 281.603C37.2709 281.352 36.9606 280.999 36.7368 280.547C36.5155 280.094 36.4049 279.565 36.4049 278.959C36.4049 278.349 36.5155 277.816 36.7368 277.361C36.9606 276.906 37.2709 276.552 37.6677 276.3C38.067 276.048 38.5312 275.923 39.0602 275.923C39.5893 275.923 40.0522 276.048 40.449 276.3C40.8483 276.552 41.1586 276.906 41.3799 277.361C41.6037 277.816 41.7156 278.349 41.7156 278.959C41.7156 279.565 41.6037 280.094 41.3799 280.547C41.1586 280.999 40.8483 281.352 40.449 281.603C40.0522 281.855 39.5893 281.981 39.0602 281.981ZM39.0602 281.172C39.4621 281.172 39.7927 281.069 40.0522 280.863C40.3116 280.657 40.5036 280.386 40.6283 280.051C40.7529 279.715 40.8152 279.351 40.8152 278.959C40.8152 278.568 40.7529 278.203 40.6283 277.865C40.5036 277.526 40.3116 277.253 40.0522 277.044C39.7927 276.836 39.4621 276.731 39.0602 276.731C38.6584 276.731 38.3277 276.836 38.0683 277.044C37.8088 277.253 37.6168 277.526 37.4922 277.865C37.3676 278.203 37.3052 278.568 37.3052 278.959C37.3052 279.351 37.3676 279.715 37.4922 280.051C37.6168 280.386 37.8088 280.657 38.0683 280.863C38.3277 281.069 38.6584 281.172 39.0602 281.172ZM45.3028 281.981C44.8145 281.981 44.3834 281.858 44.0095 281.611C43.6356 281.362 43.3431 281.011 43.132 280.558C42.9209 280.103 42.8153 279.565 42.8153 278.944C42.8153 278.329 42.9209 277.795 43.132 277.342C43.3431 276.889 43.6369 276.539 44.0133 276.293C44.3897 276.046 44.8247 275.923 45.3181 275.923C45.6996 275.923 46.001 275.986 46.2223 276.113C46.4461 276.238 46.6165 276.38 46.7335 276.541C46.8531 276.698 46.9459 276.828 47.012 276.93H47.0883V274.045H47.9887V281.859H47.1189V280.959H47.012C46.9459 281.065 46.8518 281.2 46.7297 281.363C46.6076 281.523 46.4334 281.667 46.207 281.794C45.9807 281.919 45.6793 281.981 45.3028 281.981ZM45.4249 281.172C45.7861 281.172 46.0913 281.078 46.3406 280.89C46.5898 280.699 46.7793 280.436 46.909 280.1C47.0387 279.762 47.1036 279.372 47.1036 278.929C47.1036 278.491 47.04 278.109 46.9128 277.781C46.7857 277.45 46.5975 277.193 46.3482 277.01C46.0989 276.824 45.7912 276.731 45.4249 276.731C45.0434 276.731 44.7255 276.829 44.4711 277.025C44.2193 277.218 44.0298 277.482 43.9027 277.815C43.778 278.146 43.7157 278.517 43.7157 278.929C43.7157 279.346 43.7793 279.725 43.9065 280.066C44.0362 280.404 44.227 280.674 44.4788 280.875C44.7331 281.073 45.0485 281.172 45.4249 281.172ZM53.4559 279.463V275.999H54.3563V281.859H53.4559V280.867H53.3949C53.2575 281.165 53.0439 281.418 52.7539 281.626C52.464 281.832 52.0977 281.935 51.6551 281.935C51.2889 281.935 50.9633 281.855 50.6784 281.695C50.3936 281.532 50.1698 281.288 50.007 280.962C49.8442 280.634 49.7628 280.221 49.7628 279.723V275.999H50.6632V279.661C50.6632 280.089 50.7827 280.43 51.0218 280.684C51.2634 280.938 51.5712 281.065 51.9451 281.065C52.1689 281.065 52.3966 281.008 52.628 280.894C52.862 280.779 53.0579 280.604 53.2155 280.367C53.3758 280.131 53.4559 279.829 53.4559 279.463ZM58.3861 281.981C57.8367 281.981 57.3636 281.851 56.9668 281.592C56.5701 281.333 56.2648 280.975 56.0512 280.52C55.8375 280.065 55.7307 279.544 55.7307 278.959C55.7307 278.364 55.8401 277.839 56.0588 277.384C56.2801 276.926 56.5879 276.569 56.9821 276.312C57.3789 276.052 57.8418 275.923 58.3708 275.923C58.7829 275.923 59.1542 275.999 59.4849 276.151C59.8155 276.304 60.0864 276.518 60.2975 276.792C60.5086 277.067 60.6396 277.388 60.6905 277.754H59.7901C59.7214 277.487 59.5688 277.25 59.3323 277.044C59.0983 276.836 58.7829 276.731 58.3861 276.731C58.0351 276.731 57.7273 276.823 57.4628 277.006C57.2008 277.187 56.9961 277.442 56.8486 277.773C56.7036 278.101 56.6311 278.486 56.6311 278.929C56.6311 279.382 56.7023 279.776 56.8448 280.112C56.9897 280.447 57.1932 280.708 57.4552 280.894C57.7197 281.079 58.03 281.172 58.3861 281.172C58.6201 281.172 58.8325 281.132 59.0232 281.05C59.214 280.969 59.3755 280.852 59.5078 280.699C59.64 280.547 59.7341 280.363 59.7901 280.15H60.6905C60.6396 280.496 60.5137 280.807 60.3128 281.085C60.1144 281.359 59.8511 281.578 59.523 281.741C59.1975 281.901 58.8185 281.981 58.3861 281.981ZM64.5553 275.999V276.762H61.5184V275.999H64.5553ZM62.4035 274.595H63.3039V280.18C63.3039 280.435 63.3408 280.625 63.4145 280.753C63.4908 280.877 63.5875 280.961 63.7045 281.004C63.824 281.045 63.9499 281.065 64.0822 281.065C64.1814 281.065 64.2628 281.06 64.3263 281.05C64.3899 281.037 64.4408 281.027 64.479 281.02L64.6621 281.828C64.601 281.851 64.5158 281.874 64.4065 281.897C64.2971 281.923 64.1585 281.935 63.9906 281.935C63.7363 281.935 63.487 281.881 63.2428 281.771C63.0012 281.662 62.8003 281.495 62.64 281.271C62.4823 281.048 62.4035 280.765 62.4035 280.424V274.595Z" fill="#101828"/>
<rect x="25.4503" y="289.664" width="379.651" height="40.2139" rx="2.58847" stroke="black" stroke-opacity="0.1" stroke-width="0.466975"/>
<path opacity="0.5" d="M44.1814 306.774C44.1389 306.345 43.9497 306.005 43.614 305.752C43.2783 305.499 42.8561 305.372 42.3476 305.372C41.9893 305.372 41.6737 305.434 41.4006 305.556C41.13 305.679 40.9171 305.849 40.7617 306.067C40.6089 306.283 40.5325 306.528 40.5325 306.804C40.5325 307.007 40.5763 307.185 40.664 307.338C40.7517 307.49 40.8695 307.622 41.0173 307.732C41.1676 307.84 41.3329 307.933 41.5133 308.01C41.6962 308.088 41.8803 308.153 42.0657 308.206L42.8774 308.439C43.123 308.506 43.3685 308.593 43.614 308.698C43.8595 308.803 44.0837 308.936 44.2867 309.096C44.4921 309.254 44.6562 309.448 44.779 309.679C44.9042 309.907 44.9669 310.181 44.9669 310.502C44.9669 310.913 44.8604 311.282 44.6474 311.61C44.4345 311.938 44.1288 312.199 43.7305 312.392C43.3322 312.582 42.8549 312.678 42.2987 312.678C41.7751 312.678 41.3204 312.591 40.9346 312.418C40.5488 312.243 40.2456 312.001 40.0252 311.693C39.8047 311.385 39.6807 311.028 39.6531 310.622H40.3747C40.3997 310.925 40.4999 311.182 40.6753 311.392C40.8507 311.603 41.0786 311.763 41.3592 311.873C41.6398 311.981 41.953 312.035 42.2987 312.035C42.682 312.035 43.0227 311.971 43.3209 311.843C43.6215 311.713 43.857 311.533 44.0274 311.302C44.2002 311.069 44.2867 310.799 44.2867 310.49C44.2867 310.23 44.219 310.012 44.0837 309.837C43.9485 309.659 43.7593 309.51 43.5163 309.389C43.2758 309.269 42.9964 309.163 42.6783 309.07L41.7576 308.799C41.1538 308.619 40.6853 308.37 40.3521 308.052C40.0189 307.733 39.8523 307.328 39.8523 306.834C39.8523 306.421 39.9625 306.057 40.183 305.744C40.406 305.429 40.7066 305.183 41.0849 305.008C41.4657 304.83 41.8929 304.741 42.3664 304.741C42.8449 304.741 43.2683 304.828 43.6365 305.004C44.0048 305.179 44.2967 305.421 44.5121 305.729C44.7301 306.035 44.8466 306.383 44.8616 306.774H44.1814ZM48.8525 312.666C48.3139 312.666 47.8479 312.541 47.4546 312.29C47.0613 312.037 46.7569 311.688 46.5414 311.242C46.3285 310.794 46.222 310.277 46.222 309.694C46.222 309.113 46.3285 308.596 46.5414 308.145C46.7569 307.692 47.0538 307.338 47.4321 307.082C47.8129 306.824 48.2525 306.695 48.7511 306.695C49.0642 306.695 49.3661 306.753 49.6567 306.868C49.9474 306.981 50.2079 307.155 50.4384 307.39C50.6714 307.623 50.8555 307.918 50.9908 308.273C51.1261 308.627 51.1937 309.045 51.1937 309.528V309.859H46.6842V309.269H50.5098C50.5098 308.898 50.4346 308.565 50.2843 308.269C50.1365 307.971 49.9298 307.736 49.6643 307.563C49.4012 307.39 49.0968 307.304 48.7511 307.304C48.3853 307.304 48.0634 307.401 47.7853 307.597C47.5072 307.792 47.2893 308.05 47.1314 308.371C46.9761 308.692 46.8972 309.042 46.8947 309.423V309.776C46.8947 310.235 46.9736 310.636 47.1314 310.979C47.2918 311.32 47.5185 311.584 47.8116 311.772C48.1047 311.96 48.4517 312.054 48.8525 312.054C49.1256 312.054 49.3649 312.011 49.5703 311.926C49.7783 311.841 49.9524 311.727 50.0927 311.584C50.2355 311.439 50.3432 311.28 50.4158 311.107L51.0509 311.313C50.9633 311.556 50.8192 311.781 50.6188 311.986C50.4209 312.192 50.1728 312.357 49.8747 312.482C49.5791 312.605 49.2384 312.666 48.8525 312.666ZM53.3367 304.85V312.546H52.6678V304.85H53.3367ZM57.4404 312.666C56.9017 312.666 56.4357 312.541 56.0424 312.29C55.6491 312.037 55.3447 311.688 55.1292 311.242C54.9163 310.794 54.8098 310.277 54.8098 309.694C54.8098 309.113 54.9163 308.596 55.1292 308.145C55.3447 307.692 55.6416 307.338 56.0199 307.082C56.4007 306.824 56.8403 306.695 57.3389 306.695C57.6521 306.695 57.9539 306.753 58.2446 306.868C58.5352 306.981 58.7957 307.155 59.0262 307.39C59.2592 307.623 59.4433 307.918 59.5786 308.273C59.7139 308.627 59.7815 309.045 59.7815 309.528V309.859H55.272V309.269H59.0976C59.0976 308.898 59.0224 308.565 58.8721 308.269C58.7243 307.971 58.5176 307.736 58.2521 307.563C57.989 307.39 57.6846 307.304 57.3389 307.304C56.9731 307.304 56.6512 307.401 56.3731 307.597C56.095 307.792 55.8771 308.05 55.7192 308.371C55.5639 308.692 55.485 309.042 55.4825 309.423V309.776C55.4825 310.235 55.5614 310.636 55.7192 310.979C55.8796 311.32 56.1063 311.584 56.3994 311.772C56.6925 311.96 57.0395 312.054 57.4404 312.054C57.7134 312.054 57.9527 312.011 58.1581 311.926C58.3661 311.841 58.5402 311.727 58.6805 311.584C58.8233 311.439 58.931 311.28 59.0037 311.107L59.6387 311.313C59.5511 311.556 59.407 311.781 59.2066 311.986C59.0087 312.192 58.7606 312.357 58.4625 312.482C58.1669 312.605 57.8262 312.666 57.4404 312.666ZM63.5104 312.666C62.9943 312.666 62.5446 312.537 62.1613 312.279C61.7805 312.021 61.4848 311.668 61.2744 311.219C61.0639 310.771 60.9587 310.26 60.9587 309.686C60.9587 309.108 61.0652 308.593 61.2781 308.142C61.4936 307.691 61.7917 307.338 62.1725 307.082C62.5533 306.824 62.9955 306.695 63.4991 306.695C63.8849 306.695 64.2344 306.77 64.5475 306.92C64.8607 307.068 65.1187 307.277 65.3217 307.548C65.5271 307.816 65.6561 308.129 65.7087 308.487H65.0323C64.9622 308.162 64.7931 307.884 64.525 307.653C64.2594 307.42 63.9212 307.304 63.5104 307.304C63.1421 307.304 62.8164 307.404 62.5333 307.604C62.2502 307.802 62.0285 308.079 61.8681 308.435C61.7103 308.788 61.6314 309.198 61.6314 309.664C61.6314 310.132 61.7091 310.547 61.8644 310.908C62.0197 311.266 62.2377 311.546 62.5183 311.749C62.8014 311.952 63.1321 312.054 63.5104 312.054C63.7659 312.054 63.9989 312.006 64.2093 311.911C64.4223 311.813 64.6002 311.675 64.743 311.498C64.8883 311.32 64.986 311.108 65.0361 310.862H65.7125C65.6624 311.211 65.5384 311.521 65.3405 311.794C65.1451 312.065 64.8908 312.278 64.5776 312.433C64.2669 312.589 63.9112 312.666 63.5104 312.666ZM69.4197 306.774V307.356H66.6651V306.774H69.4197ZM67.5257 305.391H68.1984V311.039C68.1984 311.28 68.2397 311.469 68.3224 311.607C68.4051 311.742 68.5128 311.838 68.6456 311.896C68.7783 311.951 68.9199 311.979 69.0702 311.979C69.1579 311.979 69.2331 311.974 69.2957 311.964C69.3583 311.951 69.4134 311.938 69.461 311.926L69.6038 312.531C69.5387 312.556 69.4585 312.579 69.3633 312.599C69.2681 312.621 69.1504 312.632 69.0101 312.632C68.7646 312.632 68.5278 312.579 68.2998 312.471C68.0744 312.363 67.889 312.203 67.7437 311.99C67.5984 311.777 67.5257 311.513 67.5257 311.197V305.391ZM74.0542 312.546V304.85H76.5382C77.0843 304.85 77.5403 304.955 77.906 305.165C78.2743 305.373 78.5512 305.656 78.7365 306.015C78.9244 306.373 79.0184 306.776 79.0184 307.225C79.0184 307.673 78.9257 308.078 78.7403 308.439C78.5549 308.797 78.2793 309.081 77.9136 309.292C77.5478 309.5 77.0931 309.604 76.5494 309.604H74.5953V308.972H76.5306C76.934 308.972 77.2684 308.897 77.534 308.747C77.7996 308.594 77.9975 308.386 78.1278 308.123C78.2605 307.86 78.3269 307.561 78.3269 307.225C78.3269 306.889 78.2605 306.59 78.1278 306.327C77.9975 306.064 77.7983 305.857 77.5302 305.707C77.2647 305.556 76.9277 305.481 76.5194 305.481H74.7569V312.546H74.0542ZM80.5291 312.546V306.774H81.1792V307.661H81.2281C81.3433 307.37 81.5437 307.136 81.8293 306.958C82.1174 306.778 82.4431 306.687 82.8064 306.687C82.8615 306.687 82.9229 306.689 82.9905 306.691C83.0582 306.694 83.1145 306.696 83.1596 306.699V307.379C83.1296 307.374 83.077 307.366 83.0018 307.356C82.9266 307.346 82.8452 307.341 82.7575 307.341C82.4569 307.341 82.1888 307.405 81.9533 307.533C81.7203 307.658 81.5362 307.832 81.4009 308.055C81.2656 308.278 81.198 308.533 81.198 308.818V312.546H80.5291ZM86.3689 312.666C85.8703 312.666 85.4294 312.54 85.0461 312.287C84.6653 312.034 84.3672 311.684 84.1517 311.238C83.9363 310.79 83.8285 310.272 83.8285 309.686C83.8285 309.095 83.9363 308.575 84.1517 308.127C84.3672 307.676 84.6653 307.325 85.0461 307.074C85.4294 306.821 85.8703 306.695 86.3689 306.695C86.8674 306.695 87.3071 306.821 87.6879 307.074C88.0687 307.328 88.3669 307.678 88.5823 308.127C88.8003 308.575 88.9093 309.095 88.9093 309.686C88.9093 310.272 88.8015 310.79 88.5861 311.238C88.3706 311.684 88.0712 312.034 87.6879 312.287C87.3071 312.54 86.8674 312.666 86.3689 312.666ZM86.3689 312.054C86.7697 312.054 87.1092 311.946 87.3873 311.731C87.6654 311.515 87.8758 311.228 88.0186 310.87C88.1639 310.512 88.2366 310.117 88.2366 309.686C88.2366 309.255 88.1639 308.859 88.0186 308.499C87.8758 308.138 87.6654 307.849 87.3873 307.631C87.1092 307.413 86.7697 307.304 86.3689 307.304C85.9706 307.304 85.6311 307.413 85.3505 307.631C85.0724 307.849 84.8607 308.138 84.7154 308.499C84.5726 308.859 84.5012 309.255 84.5012 309.686C84.5012 310.117 84.5726 310.512 84.7154 310.87C84.8607 311.228 85.0724 311.515 85.3505 311.731C85.6286 311.946 85.968 312.054 86.3689 312.054ZM92.4558 312.666C91.9823 312.666 91.5677 312.541 91.2119 312.29C90.8562 312.04 90.5781 311.69 90.3777 311.242C90.1797 310.794 90.0808 310.271 90.0808 309.675C90.0808 309.081 90.1797 308.561 90.3777 308.115C90.5781 307.667 90.8574 307.319 91.2157 307.071C91.5739 306.82 91.9911 306.695 92.4671 306.695C92.8178 306.695 93.1097 306.758 93.3427 306.883C93.5757 307.006 93.7623 307.158 93.9026 307.341C94.0429 307.524 94.1519 307.702 94.2295 307.875H94.2897V304.85H94.9623V312.546H94.3085V311.475H94.2295C94.1519 311.65 94.0416 311.831 93.8988 312.016C93.756 312.199 93.5669 312.353 93.3314 312.478C93.0984 312.604 92.8065 312.666 92.4558 312.666ZM92.5347 312.054C92.908 312.054 93.2262 311.952 93.4892 311.749C93.7523 311.544 93.9527 311.262 94.0905 310.904C94.2308 310.543 94.3009 310.13 94.3009 309.664C94.3009 309.203 94.232 308.796 94.0943 308.442C93.9565 308.087 93.756 307.809 93.493 307.608C93.2299 307.405 92.9105 307.304 92.5347 307.304C92.1489 307.304 91.8232 307.409 91.5577 307.619C91.2946 307.827 91.0942 308.109 90.9564 308.465C90.8211 308.821 90.7535 309.22 90.7535 309.664C90.7535 310.112 90.8224 310.517 90.9601 310.877C91.0979 311.238 91.2984 311.525 91.5614 311.738C91.827 311.949 92.1514 312.054 92.5347 312.054ZM100.535 310.34V306.774H101.204V312.546H100.535V311.588H100.483C100.347 311.883 100.133 312.13 99.8401 312.328C99.547 312.523 99.1888 312.621 98.7654 312.621C98.3971 312.621 98.0701 312.541 97.7845 312.381C97.4989 312.218 97.2747 311.98 97.1119 311.667C96.949 311.354 96.8676 310.969 96.8676 310.513V306.774H97.5365V310.472C97.5365 310.923 97.6693 311.286 97.9349 311.561C98.2004 311.835 98.5411 311.971 98.957 311.971C99.2176 311.971 99.4681 311.908 99.7086 311.783C99.9491 311.658 100.147 311.475 100.302 311.235C100.458 310.991 100.535 310.693 100.535 310.34ZM105.23 312.666C104.714 312.666 104.264 312.537 103.881 312.279C103.5 312.021 103.204 311.668 102.994 311.219C102.784 310.771 102.678 310.26 102.678 309.686C102.678 309.108 102.785 308.593 102.998 308.142C103.213 307.691 103.511 307.338 103.892 307.082C104.273 306.824 104.715 306.695 105.219 306.695C105.604 306.695 105.954 306.77 106.267 306.92C106.58 307.068 106.838 307.277 107.041 307.548C107.247 307.816 107.376 308.129 107.428 308.487H106.752C106.682 308.162 106.513 307.884 106.245 307.653C105.979 307.42 105.641 307.304 105.23 307.304C104.862 307.304 104.536 307.404 104.253 307.604C103.97 307.802 103.748 308.079 103.588 308.435C103.43 308.788 103.351 309.198 103.351 309.664C103.351 310.132 103.429 310.547 103.584 310.908C103.739 311.266 103.957 311.546 104.238 311.749C104.521 311.952 104.852 312.054 105.23 312.054C105.485 312.054 105.718 312.006 105.929 311.911C106.142 311.813 106.32 311.675 106.463 311.498C106.608 311.32 106.706 311.108 106.756 310.862H107.432C107.382 311.211 107.258 311.521 107.06 311.794C106.865 312.065 106.61 312.278 106.297 312.433C105.987 312.589 105.631 312.666 105.23 312.666ZM111.139 306.774V307.356H108.385V306.774H111.139ZM109.245 305.391H109.918V311.039C109.918 311.28 109.959 311.469 110.042 311.607C110.125 311.742 110.232 311.838 110.365 311.896C110.498 311.951 110.639 311.979 110.79 311.979C110.877 311.979 110.953 311.974 111.015 311.964C111.078 311.951 111.133 311.938 111.181 311.926L111.323 312.531C111.258 312.556 111.178 312.579 111.083 312.599C110.988 312.621 110.87 312.632 110.73 312.632C110.484 312.632 110.247 312.579 110.019 312.471C109.794 312.363 109.609 312.203 109.463 311.99C109.318 311.777 109.245 311.513 109.245 311.197V305.391Z" fill="#101828"/>
<path d="M383.612 312.075C383.121 312.075 382.631 311.898 382.26 311.55L377.693 307.265C377.49 307.074 377.49 306.759 377.693 306.568C377.896 306.378 378.232 306.378 378.435 306.568L383.002 310.853C383.339 311.169 383.885 311.169 384.221 310.853L388.788 306.568C388.991 306.378 389.328 306.378 389.531 306.568C389.734 306.759 389.734 307.074 389.531 307.265L384.964 311.55C384.592 311.898 384.102 312.075 383.612 312.075Z" fill="#292D32"/>
</g>
<rect width="478.183" height="70.0463" transform="translate(-25.2168 -13.0753)" fill="#FEF6FF"/>
<path d="M27.5286 38.7233H25.5598L29.1444 28.5414H31.4213L35.0108 38.7233H33.0421L30.3226 30.6295H30.2431L27.5286 38.7233ZM27.5932 34.7311H32.9625V36.2126H27.5932V34.7311ZM38.9438 38.8575C38.3439 38.8575 37.8069 38.7034 37.333 38.3951C36.859 38.0869 36.4845 37.6395 36.2094 37.0528C35.9343 36.4662 35.7967 35.7536 35.7967 34.915C35.7967 34.0665 35.9359 33.3506 36.2144 32.7673C36.4961 32.1807 36.8756 31.7382 37.3528 31.4399C37.8301 31.1383 38.3621 30.9875 38.9487 30.9875C39.3962 30.9875 39.7641 31.0637 40.0524 31.2162C40.3408 31.3653 40.5695 31.5459 40.7385 31.7581C40.9075 31.9669 41.0385 32.1641 41.1313 32.3497H41.2058V28.5414H43.0105V38.7233H41.2406V37.5201H41.1313C41.0385 37.7057 40.9042 37.903 40.7286 38.1118C40.5529 38.3173 40.3209 38.4929 40.0325 38.6387C39.7442 38.7846 39.3813 38.8575 38.9438 38.8575ZM39.4459 37.3809C39.827 37.3809 40.1519 37.2782 40.4203 37.0727C40.6888 36.8639 40.8926 36.5739 41.0318 36.2027C41.171 35.8315 41.2406 35.3989 41.2406 34.9051C41.2406 34.4112 41.171 33.982 41.0318 33.6174C40.8959 33.2529 40.6938 32.9695 40.4253 32.7673C40.1601 32.5651 39.8337 32.464 39.4459 32.464C39.0448 32.464 38.7101 32.5684 38.4416 32.7772C38.1732 32.9861 37.971 33.2744 37.8351 33.6423C37.6992 34.0102 37.6313 34.4311 37.6313 34.9051C37.6313 35.3824 37.6992 35.8083 37.8351 36.1828C37.9743 36.554 38.1781 36.8473 38.4466 37.0628C38.7184 37.2749 39.0515 37.3809 39.4459 37.3809ZM47.8321 38.8575C47.2322 38.8575 46.6953 38.7034 46.2213 38.3951C45.7474 38.0869 45.3728 37.6395 45.0977 37.0528C44.8226 36.4662 44.6851 35.7536 44.6851 34.915C44.6851 34.0665 44.8243 33.3506 45.1027 32.7673C45.3844 32.1807 45.7639 31.7382 46.2412 31.4399C46.7185 31.1383 47.2504 30.9875 47.8371 30.9875C48.2845 30.9875 48.6524 31.0637 48.9408 31.2162C49.2291 31.3653 49.4578 31.5459 49.6269 31.7581C49.7959 31.9669 49.9268 32.1641 50.0196 32.3497H50.0942V28.5414H51.8989V38.7233H50.129V37.5201H50.0196C49.9268 37.7057 49.7926 37.903 49.6169 38.1118C49.4413 38.3173 49.2092 38.4929 48.9209 38.6387C48.6325 38.7846 48.2696 38.8575 47.8321 38.8575ZM48.3342 37.3809C48.7154 37.3809 49.0402 37.2782 49.3087 37.0727C49.5771 36.8639 49.781 36.5739 49.9202 36.2027C50.0594 35.8315 50.129 35.3989 50.129 34.9051C50.129 34.4112 50.0594 33.982 49.9202 33.6174C49.7843 33.2529 49.5821 32.9695 49.3137 32.7673C49.0485 32.5651 48.722 32.464 48.3342 32.464C47.9332 32.464 47.5985 32.5684 47.33 32.7772C47.0615 32.9861 46.8593 33.2744 46.7235 33.6423C46.5876 34.0102 46.5196 34.4311 46.5196 34.9051C46.5196 35.3824 46.5876 35.8083 46.7235 36.1828C46.8627 36.554 47.0665 36.8473 47.335 37.0628C47.6067 37.2749 47.9398 37.3809 48.3342 37.3809ZM65.8761 28.5414V38.7233H64.2354L59.4378 31.7879H59.3533V38.7233H57.5089V28.5414H59.1594L63.9521 35.4818H64.0415V28.5414H65.8761ZM71.257 38.8724C70.4913 38.8724 69.8301 38.7133 69.2733 38.3951C68.7198 38.0736 68.2939 37.6196 67.9956 37.0329C67.6973 36.443 67.5482 35.7486 67.5482 34.9498C67.5482 34.1643 67.6973 33.4749 67.9956 32.8816C68.2972 32.2851 68.7181 31.821 69.2584 31.4896C69.7986 31.1548 70.4333 30.9875 71.1625 30.9875C71.6331 30.9875 72.0773 31.0637 72.4949 31.2162C72.9158 31.3653 73.287 31.5973 73.6085 31.9122C73.9333 32.2271 74.1885 32.6281 74.3741 33.1153C74.5598 33.5992 74.6526 34.1759 74.6526 34.8454V35.3973H68.3933V34.1842H72.9274C72.9241 33.8395 72.8495 33.5329 72.7037 33.2645C72.5579 32.9927 72.354 32.7789 72.0922 32.6231C71.8337 32.4673 71.5321 32.3895 71.1874 32.3895C70.8195 32.3895 70.4963 32.4789 70.2179 32.6579C69.9395 32.8336 69.7224 33.0656 69.5666 33.3539C69.4142 33.639 69.3363 33.9522 69.333 34.2936V35.3525C69.333 35.7967 69.4142 36.1778 69.5766 36.496C69.739 36.8109 69.966 37.0528 70.2577 37.2218C70.5493 37.3876 70.8907 37.4704 71.2818 37.4704C71.5437 37.4704 71.7806 37.434 71.9928 37.3611C72.2049 37.2848 72.3888 37.1738 72.5446 37.028C72.7004 36.8821 72.818 36.7015 72.8976 36.4861L74.578 36.675C74.4719 37.1191 74.2697 37.5069 73.9714 37.8383C73.6765 38.1664 73.2986 38.4217 72.8379 38.6039C72.3772 38.7829 71.8502 38.8724 71.257 38.8724ZM77.7801 38.7233L75.6224 31.0869H77.4569L78.7993 36.4562H78.8689L80.241 31.0869H82.0557L83.4278 36.4264H83.5024L84.8248 31.0869H86.6643L84.5017 38.7233H82.6274L81.1956 33.5628H81.0912L79.6593 38.7233H77.7801ZM91.6131 38.7233V28.5414H95.5108C96.2466 28.5414 96.8581 28.6575 97.3453 28.8895C97.8359 29.1182 98.2021 29.4314 98.4441 29.8291C98.6893 30.2268 98.812 30.6776 98.812 31.1814C98.812 31.5957 98.7324 31.9503 98.5733 32.2453C98.4142 32.5369 98.2004 32.7739 97.932 32.9562C97.6635 33.1385 97.3636 33.2694 97.0321 33.349V33.4484C97.3934 33.4683 97.7397 33.5793 98.0712 33.7815C98.4059 33.9804 98.6794 34.2621 98.8915 34.6267C99.1036 34.9913 99.2097 35.4321 99.2097 35.9491C99.2097 36.4761 99.0821 36.9501 98.8269 37.371C98.5717 37.7886 98.1872 38.1184 97.6735 38.3603C97.1597 38.6023 96.5134 38.7233 95.7345 38.7233H91.6131ZM93.4575 37.1821H95.4412C96.1107 37.1821 96.593 37.0545 96.8879 36.7993C97.1862 36.5407 97.3354 36.2093 97.3354 35.8049C97.3354 35.5033 97.2608 35.2316 97.1117 34.9896C96.9625 34.7443 96.7504 34.5521 96.4753 34.4129C96.2002 34.2704 95.8721 34.1991 95.4909 34.1991H93.4575V37.1821ZM93.4575 32.8717H95.2821C95.6003 32.8717 95.887 32.8137 96.1422 32.6977C96.3974 32.5784 96.5979 32.411 96.7438 32.1956C96.8929 31.9768 96.9675 31.7183 96.9675 31.42C96.9675 31.0256 96.8283 30.7008 96.5499 30.4456C96.2748 30.1904 95.8655 30.0628 95.3219 30.0628H93.4575V32.8717ZM100.805 38.7233V31.0869H102.604V38.7233H100.805ZM101.71 30.0031C101.425 30.0031 101.179 29.9086 100.974 29.7197C100.768 29.5275 100.666 29.2971 100.666 29.0287C100.666 28.7569 100.768 28.5265 100.974 28.3376C101.179 28.1454 101.425 28.0493 101.71 28.0493C101.998 28.0493 102.243 28.1454 102.445 28.3376C102.651 28.5265 102.754 28.7569 102.754 29.0287C102.754 29.2971 102.651 29.5275 102.445 29.7197C102.243 29.9086 101.998 30.0031 101.71 30.0031ZM106.325 28.5414V38.7233H104.525V28.5414H106.325ZM110.045 28.5414V38.7233H108.245V28.5414H110.045Z" fill="#18191F"/>
<rect x="385.868" y="24.2158" width="19.5004" height="18.015" rx="3.30889" stroke="#18191F" stroke-width="0.735308"/>
<path d="M392.245 29.9054L398.99 36.1751" stroke="#18191F" stroke-width="1.10296" stroke-linecap="round" stroke-linejoin="round"/>
<path d="M398.992 30.2728L392.245 36.5413" stroke="#18191F" stroke-width="1.10296" stroke-linecap="round" stroke-linejoin="round"/>
</g>
<defs>
<clipPath id="clip0_32_5951">
<rect width="430.155" height="429.42" rx="11.0296" fill="white"/>
</clipPath>
<clipPath id="clip1_32_5951">
<rect width="380.118" height="226.95" fill="white" transform="translate(25.2168 117.317)"/>
</clipPath>
</defs>
</svg>
