<svg width="90" height="28" viewBox="0 0 90 28" fill="none" xmlns="http://www.w3.org/2000/svg">
<g id="Airbnb Logo" clip-path="url(#clip0_32_3428)">
<path id="Vector" d="M25.7995 19.8443C25.6583 19.5031 25.5259 19.1443 25.3848 18.8381L24.7318 17.3768L24.7054 17.3506C22.7642 13.1506 20.6907 8.88059 18.4936 4.68059L18.4054 4.50559C18.1848 4.09434 17.9642 3.63934 17.7348 3.21934C17.4524 2.72059 17.1789 2.18684 16.7289 1.67934C16.2902 1.14833 15.7382 0.720506 15.1126 0.426739C14.487 0.132972 13.8034 -0.0194092 13.1112 -0.0194092C12.419 -0.0194092 11.7355 0.132972 11.1099 0.426739C10.4843 0.720506 9.93223 1.14833 9.49359 1.67934C9.07889 2.18684 8.77006 2.72059 8.48771 3.21934C8.26712 3.67434 8.04653 4.12059 7.81712 4.53184L7.72889 4.70684C5.56712 8.90684 3.4583 13.1768 1.51712 17.3768L1.46418 17.4293C1.27006 17.8843 1.04065 18.3568 0.820064 18.8643C0.678887 19.1706 0.537711 19.5031 0.396534 19.8706C0.0153867 20.8329 -0.106326 21.8771 0.0433922 22.9003C0.19311 23.9234 0.609091 24.8903 1.25034 25.7054C1.89159 26.5206 2.73597 27.1561 3.70026 27.5491C4.66456 27.9421 5.71549 28.0792 6.74948 27.9468C7.74077 27.8174 8.69531 27.49 9.55536 26.9843C10.7024 26.3456 11.8054 25.4181 13.0407 24.0793C14.2759 25.4181 15.4054 26.3456 16.5259 26.9931C17.6036 27.6203 18.8239 27.9665 20.073 27.9993C21.5195 28.0053 22.9193 27.4921 24.014 26.5545C25.1087 25.6168 25.8244 24.3181 26.0289 22.8981C26.2652 21.8776 26.1853 20.8102 25.7995 19.8356V19.8443ZM13.1289 21.2968C11.6112 19.3718 10.623 17.6043 10.2877 16.0906C10.1488 15.5297 10.1189 14.9476 10.1995 14.3756C10.2612 13.9293 10.4289 13.5356 10.6583 13.2031C11.1877 12.4418 12.1142 11.9693 13.1289 11.9693C13.6108 11.9547 14.0888 12.059 14.52 12.2728C14.9512 12.4866 15.3221 12.8033 15.5995 13.1943C15.8289 13.5443 15.9965 13.9293 16.0495 14.3756C16.1377 14.8831 16.1024 15.4693 15.9612 16.0906C15.6259 17.5781 14.6377 19.3631 13.1289 21.2968ZM24.3701 22.5918C24.2698 23.3128 23.9808 23.9951 23.5319 24.5708C23.0829 25.1465 22.4897 25.5955 21.8112 25.8731C21.1407 26.1531 20.3995 26.2318 19.6759 26.1531C18.9701 26.0656 18.2642 25.8381 17.5407 25.4181C16.3393 24.6818 15.2591 23.767 14.3377 22.7056C16.1907 20.4306 17.3112 18.3568 17.7348 16.5106C17.9377 15.6356 17.9642 14.8481 17.8759 14.1218C17.7658 13.4335 17.5069 12.7768 17.1171 12.1968C16.6721 11.5679 16.078 11.0571 15.3872 10.7092C14.6964 10.3614 13.93 10.1871 13.1554 10.2018C11.523 10.2018 10.0671 10.9543 9.18477 12.1881C8.78757 12.7666 8.53086 13.4285 8.43477 14.1218C8.32006 14.8568 8.34653 15.6706 8.57595 16.5106C8.99948 18.3568 10.1465 20.4568 11.973 22.7231C11.0673 23.8047 9.9845 24.7276 8.77006 25.4531C8.03771 25.8731 7.34065 26.0918 6.63477 26.1793C5.53702 26.3188 4.42814 26.0229 3.54915 25.3561C2.67016 24.6892 2.09211 23.7053 1.94065 22.6181C1.85242 21.9181 1.91418 21.2181 2.19653 20.4306C2.28477 20.1506 2.41712 19.8706 2.5583 19.5381C2.75242 19.0831 2.98183 18.6106 3.20242 18.1381L3.23771 18.0768C5.14359 13.9031 7.22595 9.64184 9.38771 5.46809L9.47595 5.29309C9.69653 4.87309 9.91712 4.42684 10.1465 4.00684C10.3759 3.56059 10.623 3.13184 10.9407 2.78184C11.2156 2.45636 11.5592 2.1946 11.9471 2.01501C12.3351 1.83541 12.7581 1.74233 13.1862 1.74233C13.6144 1.74233 14.0374 1.83541 14.4253 2.01501C14.8133 2.1946 15.1569 2.45636 15.4318 2.78184C15.7407 3.13184 15.9965 3.56059 16.2259 4.00684C16.4465 4.42684 16.6671 4.88184 16.8965 5.29309L16.9848 5.46809C19.1377 9.64184 21.2201 13.9031 23.1612 18.0768L23.1877 18.1031C23.4171 18.5581 23.6112 19.0656 23.8318 19.5031C23.973 19.8443 24.1142 20.1156 24.2024 20.4043C24.3701 21.1918 24.4583 21.8918 24.3701 22.5918ZM36.6524 21.1043C35.9875 21.114 35.329 20.9751 34.7256 20.6979C34.1223 20.4207 33.5896 20.0123 33.1671 19.5031C32.2178 18.4181 31.7139 17.019 31.7554 15.5831C31.7408 14.1159 32.2609 12.6928 33.2201 11.5756C33.6637 11.0599 34.216 10.6469 34.838 10.3657C35.4599 10.0845 36.1365 9.94197 36.8201 9.94809C37.4632 9.93063 38.1003 10.0757 38.6714 10.3696C39.2425 10.6634 39.7289 11.0965 40.0848 11.6281L40.173 10.2543H42.7495V20.8243H40.1642L40.0759 19.2843C39.709 19.8519 39.2019 20.3171 38.6027 20.6356C38.0035 20.9541 37.3322 21.1155 36.6524 21.1043ZM37.323 18.5843C37.8348 18.5843 38.2848 18.4443 38.7083 18.1906C39.0965 17.9106 39.4142 17.5431 39.6612 17.0968C39.8818 16.6506 39.9965 16.1168 39.9965 15.5218C40.0309 15.0051 39.9295 14.4883 39.7021 14.022C39.4748 13.5558 39.1293 13.156 38.6995 12.8618C38.2865 12.6067 37.8096 12.4714 37.323 12.4714C36.8364 12.4714 36.3595 12.6067 35.9465 12.8618C35.5583 13.1418 35.2407 13.5093 34.9936 13.9556C34.7603 14.4477 34.6455 14.9869 34.6583 15.5306C34.6239 16.0474 34.7253 16.5642 34.9527 17.0304C35.18 17.4967 35.5255 17.8964 35.9554 18.1906C36.3701 18.4443 36.8201 18.5843 37.323 18.5843ZM47.1612 7.40184C47.1612 7.70809 47.1083 7.98809 46.9671 8.21559C46.8259 8.43434 46.6318 8.63559 46.3759 8.77559C46.1201 8.91559 45.8465 8.96809 45.5642 8.96809C45.2818 8.96809 44.9995 8.91559 44.7436 8.77559C44.5016 8.64199 44.2981 8.44921 44.1524 8.21559C44.0158 7.96633 43.9487 7.6854 43.9583 7.40184C43.9583 7.08684 44.0201 6.80684 44.1524 6.58809C44.2936 6.32559 44.4965 6.16809 44.7436 6.02809C44.9995 5.88809 45.273 5.82684 45.5642 5.82684C45.845 5.82042 46.1228 5.88639 46.3702 6.01829C46.6177 6.15019 46.8264 6.3435 46.9759 6.57934C47.1044 6.83445 47.168 7.1168 47.1612 7.40184ZM44.1612 20.7893V10.2368H46.9671V20.8068H44.1524L44.1612 20.7893ZM54.4671 13.0018V13.0368C54.3348 12.9756 54.1583 12.9493 54.0259 12.9231C53.8495 12.8881 53.7083 12.8881 53.5406 12.8881C52.7554 12.8881 52.1642 13.1156 51.7759 13.5881C51.3524 14.0693 51.1583 14.7431 51.1583 15.6093V20.7981H48.3436V10.2281H50.9289L51.0171 11.8293C51.2995 11.2693 51.6348 10.8493 52.1112 10.5343C52.5852 10.2283 53.1431 10.0754 53.7083 10.0968C53.9112 10.0968 54.1054 10.1143 54.273 10.1493C54.3612 10.1756 54.4142 10.1756 54.4671 10.2018V13.0018ZM55.5965 20.7893V5.89684H58.4024V11.5843C58.7995 11.0768 59.2495 10.6831 59.8142 10.3768C60.7082 9.94217 61.7238 9.81887 62.6971 10.0268C63.6704 10.2348 64.5447 10.7619 65.1789 11.5231C66.1303 12.6104 66.6343 14.0129 66.5907 15.4518C66.6052 16.919 66.0851 18.3421 65.1259 19.4593C64.6823 19.975 64.13 20.388 63.5081 20.6692C62.8861 20.9504 62.2095 21.093 61.5259 21.0868C60.8828 21.1043 60.2457 20.9593 59.6746 20.6654C59.1035 20.3715 58.6171 19.9384 58.2612 19.4068L58.173 20.7806L55.5965 20.8068V20.7893ZM61.023 18.5843C61.5259 18.5843 61.9759 18.4443 62.3995 18.1906C62.7877 17.9106 63.1054 17.5431 63.3524 17.0968C63.5818 16.6506 63.6877 16.1168 63.6877 15.5218C63.6877 14.9356 63.5818 14.4018 63.3524 13.9556C63.1207 13.5253 62.7952 13.1516 62.3995 12.8618C61.9865 12.6067 61.5096 12.4714 61.023 12.4714C60.5364 12.4714 60.0595 12.6067 59.6465 12.8618C59.2495 13.1418 58.9407 13.5093 58.6848 13.9556C58.4514 14.4477 58.3366 14.9869 58.3495 15.5306C58.3151 16.0474 58.4165 16.5642 58.6439 17.0304C58.8712 17.4967 59.2167 17.8964 59.6465 18.1906C60.0612 18.4443 60.5112 18.5843 61.023 18.5843ZM67.6495 20.7981V10.2281H70.2348L70.323 11.6018C70.6479 11.0753 71.1087 10.6443 71.6579 10.3536C72.207 10.0628 72.8245 9.92283 73.4465 9.94809C74.1578 9.93591 74.8569 10.1319 75.4564 10.5117C76.0559 10.8914 76.5292 11.438 76.8171 12.0831C77.1259 12.7481 77.2936 13.5706 77.2936 14.4893V20.8243H74.4789V14.8568C74.4789 14.1218 74.3112 13.5443 73.9759 13.1156C73.6406 12.6956 73.1818 12.4681 72.5995 12.4681C72.1759 12.4681 71.8054 12.5556 71.4789 12.7481C71.1701 12.9493 70.9142 13.2031 70.7201 13.5618C70.5238 13.9245 70.4265 14.3317 70.4377 14.7431V20.7981H67.6495ZM78.6965 20.7981V5.88809H81.5112V11.5756C81.8925 11.0653 82.3884 10.6501 82.9597 10.363C83.5311 10.0759 84.162 9.92489 84.8024 9.92184C85.4673 9.91219 86.1258 10.0511 86.7292 10.3283C87.3326 10.6055 87.8652 11.0139 88.2877 11.5231C89.2324 12.6103 89.7328 14.0086 89.6907 15.4431C89.706 16.9104 89.1858 18.3338 88.2259 19.4506C87.7823 19.9663 87.23 20.3793 86.608 20.6605C85.9861 20.9417 85.3095 21.0842 84.6259 21.0781C83.9828 21.0955 83.3457 20.9505 82.7746 20.6566C82.2035 20.3627 81.7171 19.9297 81.3612 19.3981L81.2818 20.7718L78.6965 20.7981ZM84.1495 18.5843C84.6612 18.5843 85.1112 18.4443 85.5259 18.1906C85.923 17.9106 86.2318 17.5431 86.4877 17.0968C86.7083 16.6506 86.823 16.1168 86.823 15.5218C86.8574 15.0051 86.756 14.4883 86.5286 14.022C86.3013 13.5558 85.9558 13.156 85.5259 12.8618C85.1129 12.6067 84.6361 12.4714 84.1495 12.4714C83.6629 12.4714 83.186 12.6067 82.773 12.8618C82.3848 13.1418 82.0671 13.5093 81.8201 13.9556C81.5738 14.4433 81.4583 14.9858 81.4848 15.5306C81.4504 16.0474 81.5518 16.5642 81.7792 17.0304C82.0065 17.4967 82.352 17.8964 82.7818 18.1906C83.1965 18.4443 83.6201 18.5843 84.1495 18.5843Z" fill="#FF385C"/>
</g>
<defs>
<clipPath id="clip0_32_3428">
<rect width="90" height="28" fill="white"/>
</clipPath>
</defs>
</svg>
