<svg width="244" height="73" viewBox="0 0 244 73" fill="none" xmlns="http://www.w3.org/2000/svg">
<g id="Group">
<g id="Group_2">
<path id="Vector" d="M224.643 0.0734763H20.2959C19.551 0.0734763 18.8151 0.0734763 18.0722 0.0770773C17.4503 0.0806784 16.8334 0.0911395 16.2055 0.0999441C14.8415 0.114172 13.4808 0.220537 12.135 0.418116C10.7912 0.619996 9.48942 1.0006 8.2738 1.54705C7.05966 2.09812 5.95026 2.81419 4.98586 3.66926C4.01639 4.52194 3.20827 5.50751 2.59256 6.58809C1.97515 7.66652 1.54703 8.82215 1.323 10.0151C1.09684 11.2065 0.975142 12.4117 0.958997 13.6197C0.940146 14.1718 0.938156 14.7257 0.928223 15.2778V56.8957C0.938156 57.4548 0.940146 57.9964 0.958997 58.5557C0.975147 59.7637 1.09685 60.9688 1.323 62.1601C1.54642 63.3538 1.97455 64.5101 2.59256 65.5889C3.20799 66.666 4.01622 67.6476 4.98586 68.4955C5.9466 69.3544 7.05672 70.0709 8.2738 70.6178C9.48941 71.1657 10.791 71.5486 12.135 71.7536C13.481 71.9496 14.8416 72.056 16.2055 72.0719C16.8334 72.0841 17.4503 72.0912 18.0722 72.0912C18.815 72.0948 19.551 72.0948 20.2959 72.0948H224.643C225.373 72.0948 226.115 72.0948 226.845 72.0912C227.464 72.0912 228.099 72.0841 228.718 72.0719C230.079 72.0568 231.437 71.9504 232.78 71.7536C234.129 71.5471 235.435 71.1644 236.657 70.6178C237.873 70.0706 238.982 69.3541 239.942 68.4955C240.909 67.6442 241.719 66.6634 242.342 65.5889C242.955 64.5093 243.379 63.3531 243.599 62.1601C243.826 60.9686 243.952 59.7638 243.976 58.5557C243.984 57.9964 243.984 57.4548 243.984 56.8957C244 56.2416 244 55.5911 244 54.9263V17.2436C244 16.5842 244 15.9301 243.984 15.2778C243.984 14.7257 243.984 14.1718 243.976 13.6197C243.952 12.4115 243.826 11.2066 243.599 10.015C243.379 8.82277 242.954 7.66723 242.342 6.58802C241.088 4.42211 239.1 2.65909 236.657 1.54689C235.435 1.00177 234.129 0.621271 232.78 0.417954C231.437 0.219504 230.079 0.113102 228.718 0.099692C228.099 0.0909054 227.464 0.0803543 226.845 0.0768433C226.115 0.0732422 225.373 0.0732422 224.643 0.0732422V0.0734763Z" fill="#A6A6A6"/>
<path id="Vector_2" d="M17.9071 70.5249C17.2871 70.5249 16.6821 70.5179 16.067 70.5056C14.7928 70.4909 13.5216 70.3927 12.2637 70.2119C11.0909 70.0331 9.95466 69.7006 8.89261 69.2252C7.8403 68.7537 6.88051 68.1356 6.05 67.3944C5.20748 66.6619 4.50604 65.8123 3.97348 64.8794C3.43505 63.9404 3.06242 62.9339 2.86858 61.8949C2.65925 60.7786 2.546 59.6498 2.52979 58.5182C2.51689 58.1384 2.5 56.8738 2.5 56.8738V15.2718C2.5 15.2718 2.51799 14.0267 2.52989 13.6608C2.54541 12.5311 2.65801 11.404 2.86671 10.2894C3.06091 9.24762 3.43382 8.23821 3.97254 7.29612C4.50314 6.36382 5.20069 5.51364 6.03814 4.77854C6.87465 4.03646 7.83751 3.41512 8.89161 2.93717C9.95122 2.46332 11.0853 2.1331 12.2558 1.95758C13.5177 1.77491 14.7934 1.67615 16.0721 1.66213L17.9081 1.64014H227.021L228.879 1.66301C230.146 1.67633 231.41 1.77421 232.66 1.95582C233.843 2.13354 234.989 2.46606 236.06 2.94245C238.172 3.90565 239.89 5.42954 240.974 7.30052C241.504 8.2361 241.872 9.23728 242.063 10.2701C242.274 11.3938 242.393 12.5298 242.417 13.6688C242.423 14.1788 242.423 14.7266 242.423 15.2718C242.439 15.9472 242.439 16.59 242.439 17.238V54.9287C242.439 55.5829 242.439 56.2214 242.423 56.865C242.423 57.4507 242.423 57.9871 242.415 58.5393C242.391 59.658 242.275 60.7736 242.067 61.8773C241.877 62.9237 241.507 63.9381 240.968 64.8848C240.432 65.8076 239.735 66.6498 238.902 67.3803C238.071 68.1255 237.109 68.7473 236.054 69.2218C234.986 69.7008 233.841 70.0346 232.66 70.2119C231.403 70.3937 230.131 70.4919 228.857 70.5056C228.261 70.5179 227.637 70.5249 227.031 70.5249L224.825 70.5285L17.9071 70.5249Z" fill="#18191F"/>
</g>
<g id="&#60;Group&#62;">
<g id="&#60;Group&#62;_2">
<g id="&#60;Group&#62;_3">
<path id="&#60;Path&#62;" d="M59.9809 36.6251C60.0003 35.1223 60.3995 33.6488 61.1413 32.3417C61.8832 31.0346 62.9436 29.9363 64.224 29.1492C63.4106 27.9876 62.3376 27.0316 61.0901 26.3572C59.8427 25.6828 58.4552 25.3086 57.0378 25.2642C54.0142 24.9469 51.0831 27.0735 49.5423 27.0735C47.9718 27.0735 45.5996 25.2957 43.0451 25.3483C41.3928 25.4017 39.7825 25.8822 38.3711 26.7429C36.9597 27.6037 35.7954 28.8154 34.9915 30.2599C31.5093 36.2888 34.1067 45.1493 37.4424 50.0227C39.1113 52.409 41.0618 55.0746 43.6139 54.9801C46.1114 54.8765 47.0441 53.3876 50.0588 53.3876C53.0454 53.3876 53.9205 54.9801 56.5245 54.92C59.2043 54.8765 60.8928 52.5231 62.5031 50.1141C63.7023 48.4138 64.625 46.5345 65.2371 44.546C63.6802 43.8875 62.3515 42.7852 61.4168 41.3767C60.4821 39.9681 59.9827 38.3156 59.9809 36.6251Z" fill="white"/>
<path id="&#60;Path&#62;_2" d="M55.0628 22.0594C56.524 20.3053 57.2439 18.0507 57.0695 15.7744C54.8372 16.0089 52.7751 17.0758 51.2942 18.7626C50.5701 19.5866 50.0156 20.5453 49.6622 21.5838C49.3089 22.6223 49.1637 23.7202 49.2349 24.8149C50.3515 24.8264 51.4561 24.5844 52.4656 24.1071C53.4751 23.6298 54.3631 22.9296 55.0628 22.0594Z" fill="white"/>
</g>
</g>
<g id="Group_3">
<path id="Vector_3" d="M91.5498 48.9391H83.0272L80.9805 54.9825H77.3706L85.4431 32.6235H89.1936L97.2661 54.9825H93.5947L91.5498 48.9391ZM83.9098 46.1504H90.6654L87.3351 36.3424H87.242L83.9098 46.1504Z" fill="white"/>
<path id="Vector_4" d="M114.7 46.8325C114.7 51.8983 111.989 55.153 107.897 55.153C106.861 55.2072 105.83 54.9684 104.923 54.464C104.016 53.9596 103.269 53.21 102.768 52.3009H102.691V60.3752H99.3447V38.6809H102.584V41.3922H102.645C103.169 40.4875 103.928 39.7418 104.842 39.2343C105.756 38.7268 106.791 38.4766 107.836 38.5103C111.973 38.5103 114.7 41.7808 114.7 46.8325ZM111.261 46.8325C111.261 43.5322 109.555 41.3624 106.953 41.3624C104.396 41.3624 102.677 43.5779 102.677 46.8325C102.677 50.1171 104.396 52.3168 106.953 52.3168C109.555 52.3168 111.261 50.1628 111.261 46.8325Z" fill="white"/>
<path id="Vector_5" d="M132.642 46.8325C132.642 51.8983 129.931 55.1529 125.839 55.1529C124.803 55.2072 123.772 54.9684 122.865 54.464C121.958 53.9596 121.211 53.21 120.71 52.3009H120.633V60.3752H117.287V38.6809H120.525V41.3922H120.587C121.111 40.4875 121.87 39.7418 122.784 39.2343C123.698 38.7268 124.733 38.4766 125.778 38.5103C129.915 38.5103 132.642 41.7808 132.642 46.8325ZM129.203 46.8325C129.203 43.5321 127.497 41.3623 124.895 41.3623C122.338 41.3623 120.619 43.5778 120.619 46.8325C120.619 50.1171 122.338 52.3168 124.895 52.3168C127.497 52.3168 129.203 50.1628 129.203 46.8325H129.203Z" fill="white"/>
<path id="Vector_6" d="M144.5 48.753C144.748 50.9703 146.902 52.4261 149.846 52.4261C152.666 52.4261 154.695 50.9702 154.695 48.971C154.695 47.2355 153.471 46.1963 150.574 45.4842L147.676 44.7861C143.57 43.7944 141.664 41.8743 141.664 38.7586C141.664 34.9008 145.026 32.251 149.8 32.251C154.525 32.251 157.764 34.9008 157.873 38.7586H154.495C154.293 36.5272 152.448 35.1804 149.753 35.1804C147.057 35.1804 145.213 36.5431 145.213 38.5265C145.213 40.1072 146.391 41.0374 149.273 41.7494L151.736 42.3543C156.323 43.4392 158.229 45.282 158.229 48.5524C158.229 52.7355 154.897 55.3554 149.598 55.3554C144.639 55.3554 141.291 52.797 141.075 48.7528L144.5 48.753Z" fill="white"/>
<path id="Vector_7" d="M165.451 34.8232V38.681H168.551V41.3308H165.451V50.3177C165.451 51.7138 166.072 52.3644 167.434 52.3644C167.802 52.3579 168.17 52.3321 168.535 52.2869V54.9209C167.922 55.0354 167.3 55.0872 166.676 55.0757C163.376 55.0757 162.089 53.836 162.089 50.6745V41.3308H159.719V38.681H162.089V34.8232H165.451Z" fill="white"/>
<path id="Vector_8" d="M170.346 46.833C170.346 41.704 173.367 38.481 178.078 38.481C182.804 38.481 185.811 41.7039 185.811 46.833C185.811 51.9762 182.82 55.1851 178.078 55.1851C173.337 55.1851 170.346 51.9761 170.346 46.833ZM182.401 46.833C182.401 43.3146 180.789 41.238 178.078 41.238C175.366 41.238 173.756 43.3304 173.756 46.833C173.756 50.3655 175.366 52.4263 178.078 52.4263C180.789 52.4263 182.401 50.3655 182.401 46.833H182.401Z" fill="white"/>
<path id="Vector_9" d="M188.569 38.6812H191.761V41.4558H191.838C192.054 40.5893 192.562 39.8235 193.276 39.2871C193.99 38.7508 194.867 38.4766 195.759 38.5106C196.145 38.5093 196.529 38.5512 196.906 38.6355V41.7653C196.419 41.6166 195.911 41.5483 195.402 41.5631C194.916 41.5434 194.431 41.6291 193.982 41.8144C193.532 41.9996 193.127 42.28 192.796 42.6363C192.465 42.9926 192.215 43.4164 192.063 43.8785C191.911 44.3407 191.86 44.8303 191.915 45.3136V54.9827H188.569L188.569 38.6812Z" fill="white"/>
<path id="Vector_10" d="M212.333 50.195C211.883 53.1542 209.001 55.1851 205.314 55.1851C200.572 55.1851 197.628 52.0078 197.628 46.9104C197.628 41.7972 200.588 38.481 205.173 38.481C209.684 38.481 212.52 41.5791 212.52 46.5218V47.6682H201.006V47.8704C200.953 48.4704 201.028 49.0748 201.227 49.6434C201.425 50.2121 201.742 50.7321 202.157 51.1688C202.572 51.6055 203.074 51.949 203.632 52.1764C204.19 52.4038 204.79 52.51 205.391 52.4878C206.182 52.5619 206.976 52.3788 207.654 51.9657C208.332 51.5525 208.859 50.9315 209.156 50.1949L212.333 50.195ZM201.022 45.3297H209.172C209.202 44.7902 209.12 44.2504 208.932 43.7441C208.743 43.2378 208.452 42.7758 208.077 42.3874C207.701 41.9989 207.249 41.6922 206.75 41.4865C206.25 41.2809 205.714 41.1807 205.173 41.1923C204.629 41.1891 204.088 41.2937 203.584 41.5003C203.08 41.7069 202.622 42.0113 202.236 42.396C201.85 42.7807 201.544 43.2379 201.335 43.7415C201.127 44.245 201.021 44.7848 201.022 45.3297V45.3297Z" fill="white"/>
</g>
<g id="Group_4">
<path id="Vector_11" d="M83.4905 15.7939C84.192 15.7436 84.8959 15.8496 85.5515 16.1042C86.2071 16.3589 86.798 16.7559 87.2816 17.2665C87.7652 17.7772 88.1295 18.3888 88.3481 19.0573C88.5667 19.7258 88.6342 20.4345 88.5457 21.1322C88.5457 24.5645 86.6907 26.5374 83.4905 26.5374H79.6099V15.7939H83.4905ZM81.2785 25.0181H83.3041C83.8054 25.048 84.307 24.9658 84.7725 24.7775C85.238 24.5891 85.6557 24.2993 85.9951 23.9292C86.3345 23.5591 86.5871 23.1179 86.7345 22.6379C86.8818 22.1578 86.9203 21.6509 86.8471 21.1541C86.915 20.6593 86.8726 20.1555 86.723 19.679C86.5733 19.2025 86.3201 18.7649 85.9815 18.3977C85.6429 18.0306 85.2272 17.7428 84.7644 17.5551C84.3015 17.3675 83.8028 17.2845 83.3041 17.3122H81.2785V25.0181Z" fill="white"/>
<path id="Vector_12" d="M90.4307 22.4797C90.3797 21.9469 90.4407 21.4093 90.6096 20.9014C90.7786 20.3935 91.0518 19.9266 91.4118 19.5305C91.7718 19.1344 92.2107 18.8179 92.7001 18.6014C93.1896 18.3848 93.7189 18.2729 94.2542 18.2729C94.7894 18.2729 95.3188 18.3848 95.8082 18.6014C96.2977 18.8179 96.7365 19.1344 97.0965 19.5305C97.4565 19.9266 97.7298 20.3935 97.8987 20.9014C98.0677 21.4093 98.1286 21.9469 98.0777 22.4797C98.1296 23.013 98.0694 23.5514 97.9009 24.0601C97.7324 24.5687 97.4593 25.0366 97.0992 25.4334C96.7391 25.8303 96.2999 26.1474 95.81 26.3644C95.32 26.5815 94.7901 26.6936 94.2542 26.6936C93.7183 26.6936 93.1883 26.5815 92.6984 26.3644C92.2084 26.1474 91.7693 25.8303 91.4092 25.4334C91.0491 25.0366 90.776 24.5687 90.6075 24.0601C90.439 23.5514 90.3787 23.013 90.4307 22.4797ZM96.4319 22.4797C96.4319 20.7222 95.6424 19.6945 94.2568 19.6945C92.866 19.6945 92.0836 20.7222 92.0836 22.4797C92.0836 24.2512 92.866 25.271 94.2568 25.271C95.6424 25.271 96.4319 24.2442 96.4319 22.4797H96.4319Z" fill="white"/>
<path id="Vector_13" d="M108.243 26.5374H106.583L104.907 20.5661H104.78L103.112 26.5374H101.468L99.2329 18.4297H100.856L102.308 24.6163H102.428L104.095 18.4297H105.63L107.297 24.6163H107.423L108.869 18.4297H110.469L108.243 26.5374Z" fill="white"/>
<path id="Vector_14" d="M112.349 18.4296H113.889V19.7176H114.009C114.211 19.255 114.553 18.8672 114.987 18.6083C115.421 18.3494 115.925 18.2322 116.428 18.2731C116.822 18.2435 117.219 18.3029 117.587 18.4472C117.955 18.5914 118.287 18.8166 118.556 19.1062C118.826 19.3958 119.026 19.7424 119.144 20.1202C119.261 20.4979 119.292 20.8973 119.234 21.2886V26.5372H117.634V21.6905C117.634 20.3875 117.068 19.7396 115.885 19.7396C115.617 19.7271 115.349 19.7727 115.101 19.8732C114.852 19.9737 114.628 20.1268 114.444 20.322C114.261 20.5171 114.121 20.7497 114.036 21.0038C113.95 21.2579 113.92 21.5276 113.949 21.7942V26.5373H112.349L112.349 18.4296Z" fill="white"/>
<path id="Vector_15" d="M121.784 15.2646H123.384V26.5373H121.784V15.2646Z" fill="white"/>
<path id="Vector_16" d="M125.607 22.4798C125.556 21.947 125.617 21.4094 125.786 20.9015C125.955 20.3936 126.229 19.9266 126.589 19.5305C126.949 19.1344 127.388 18.8179 127.877 18.6014C128.367 18.3848 128.896 18.2729 129.431 18.2729C129.967 18.2729 130.496 18.3848 130.985 18.6014C131.475 18.8179 131.914 19.1344 132.274 19.5305C132.634 19.9266 132.907 20.3936 133.076 20.9015C133.245 21.4094 133.306 21.947 133.255 22.4798C133.307 23.0132 133.247 23.5515 133.078 24.0602C132.91 24.5689 132.637 25.0367 132.276 25.4336C131.916 25.8304 131.477 26.1475 130.987 26.3646C130.497 26.5816 129.967 26.6937 129.431 26.6937C128.895 26.6937 128.365 26.5816 127.875 26.3646C127.385 26.1475 126.946 25.8304 126.586 25.4336C126.226 25.0367 125.953 24.5689 125.784 24.0602C125.616 23.5515 125.556 23.0132 125.607 22.4798ZM131.609 22.4798C131.609 20.7224 130.819 19.6946 129.434 19.6946C128.043 19.6946 127.26 20.7224 127.26 22.4798C127.26 24.2514 128.043 25.2712 129.434 25.2712C130.819 25.2712 131.609 24.2443 131.609 22.4798H131.609Z" fill="white"/>
<path id="Vector_17" d="M134.94 24.2442C134.94 22.7848 136.027 21.9435 137.956 21.8239L140.152 21.6973V20.9975C140.152 20.1412 139.586 19.6576 138.492 19.6576C137.599 19.6576 136.98 19.9856 136.803 20.5588H135.253C135.417 19.1662 136.727 18.2729 138.566 18.2729C140.599 18.2729 141.745 19.2848 141.745 20.9975V26.5371H140.205V25.3977H140.078C139.821 25.8064 139.46 26.1396 139.033 26.3632C138.605 26.5869 138.125 26.693 137.643 26.6707C137.303 26.7061 136.959 26.6698 136.633 26.5641C136.308 26.4584 136.008 26.2857 135.753 26.0571C135.499 25.8285 135.295 25.549 135.155 25.2368C135.015 24.9245 134.942 24.5864 134.94 24.2442ZM140.152 23.5514V22.8736L138.172 23.0002C137.056 23.0749 136.549 23.4547 136.549 24.1695C136.549 24.8992 137.182 25.3238 138.053 25.3238C138.308 25.3496 138.565 25.3239 138.81 25.2481C139.055 25.1723 139.282 25.0481 139.478 24.8827C139.674 24.7173 139.835 24.5143 139.95 24.2856C140.066 24.0569 140.135 23.8072 140.152 23.5514Z" fill="white"/>
<path id="Vector_18" d="M143.848 22.48C143.848 19.9181 145.165 18.2952 147.214 18.2952C147.72 18.2718 148.223 18.3932 148.663 18.6451C149.104 18.8969 149.463 19.2689 149.7 19.7176H149.819V15.2646H151.42V26.5373H149.886V25.2564H149.76C149.505 25.702 149.133 26.0693 148.684 26.3187C148.235 26.568 147.727 26.6898 147.214 26.6709C145.151 26.671 143.848 25.048 143.848 22.48ZM145.501 22.48C145.501 24.1996 146.312 25.2344 147.667 25.2344C149.016 25.2344 149.849 24.1847 149.849 22.487C149.849 20.7973 149.007 19.7326 147.667 19.7326C146.32 19.7326 145.501 20.7744 145.501 22.48H145.501Z" fill="white"/>
<path id="Vector_19" d="M158.039 22.4797C157.988 21.9469 158.049 21.4093 158.218 20.9014C158.387 20.3935 158.66 19.9266 159.02 19.5305C159.38 19.1344 159.819 18.8179 160.309 18.6014C160.798 18.3848 161.327 18.2729 161.863 18.2729C162.398 18.2729 162.927 18.3848 163.417 18.6014C163.906 18.8179 164.345 19.1344 164.705 19.5305C165.065 19.9266 165.338 20.3935 165.507 20.9014C165.676 21.4093 165.737 21.9469 165.686 22.4797C165.738 23.013 165.678 23.5514 165.509 24.0601C165.341 24.5687 165.068 25.0366 164.708 25.4334C164.347 25.8303 163.908 26.1474 163.418 26.3644C162.928 26.5815 162.398 26.6936 161.863 26.6936C161.327 26.6936 160.797 26.5815 160.307 26.3644C159.817 26.1474 159.378 25.8303 159.018 25.4334C158.657 25.0366 158.384 24.5687 158.216 24.0601C158.047 23.5514 157.987 23.013 158.039 22.4797ZM164.04 22.4797C164.04 20.7222 163.251 19.6945 161.865 19.6945C160.474 19.6945 159.692 20.7222 159.692 22.4797C159.692 24.2512 160.474 25.271 161.865 25.271C163.251 25.271 164.04 24.2442 164.04 22.4797Z" fill="white"/>
<path id="Vector_20" d="M167.833 18.4296H169.374V19.7176H169.493C169.696 19.255 170.038 18.8672 170.472 18.6083C170.906 18.3494 171.409 18.2322 171.913 18.2731C172.307 18.2435 172.703 18.3029 173.072 18.4472C173.44 18.5914 173.771 18.8166 174.041 19.1062C174.31 19.3958 174.511 19.7424 174.629 20.1202C174.746 20.4979 174.777 20.8973 174.719 21.2886V26.5372H173.119V21.6905C173.119 20.3875 172.553 19.7396 171.37 19.7396C171.102 19.7271 170.834 19.7727 170.586 19.8732C170.337 19.9737 170.113 20.1268 169.929 20.322C169.745 20.5171 169.606 20.7497 169.52 21.0038C169.435 21.2579 169.405 21.5276 169.434 21.7942V26.5373H167.833V18.4296Z" fill="white"/>
<path id="Vector_21" d="M183.761 16.4111V18.4666H185.517V19.8144H183.761V23.9834C183.761 24.8327 184.11 25.2046 184.907 25.2046C185.111 25.2039 185.315 25.1916 185.517 25.1676V26.5004C185.23 26.5518 184.939 26.5792 184.647 26.5822C182.867 26.5822 182.159 25.9562 182.159 24.3931V19.8143H180.872V18.4665H182.159V16.4111H183.761Z" fill="white"/>
<path id="Vector_22" d="M187.703 15.2646H189.289V19.7326H189.415C189.628 19.2657 189.979 18.8757 190.422 18.6158C190.864 18.3559 191.376 18.2387 191.887 18.2802C192.28 18.2588 192.672 18.3244 193.036 18.4721C193.401 18.6198 193.728 18.8461 193.994 19.1348C194.261 19.4235 194.461 19.7675 194.579 20.1422C194.698 20.517 194.732 20.9132 194.68 21.3028V26.5373H193.078V21.6975C193.078 20.4025 192.475 19.7466 191.344 19.7466C191.069 19.7241 190.793 19.7619 190.534 19.8574C190.275 19.9529 190.04 20.1039 189.846 20.2996C189.651 20.4954 189.502 20.7313 189.408 20.9909C189.314 21.2504 189.278 21.5273 189.303 21.8021V26.5373H187.703L187.703 15.2646Z" fill="white"/>
<path id="Vector_23" d="M204.01 24.3481C203.792 25.0891 203.321 25.7301 202.679 26.1589C202.037 26.5877 201.264 26.777 200.497 26.6937C199.962 26.7078 199.432 26.6055 198.941 26.3939C198.45 26.1823 198.012 25.8664 197.655 25.4683C197.299 25.0701 197.034 24.5992 196.877 24.0881C196.721 23.5771 196.678 23.0382 196.751 22.5089C196.68 21.978 196.724 21.4379 196.88 20.9254C197.035 20.4128 197.299 19.9397 197.654 19.538C198.008 19.1364 198.445 18.8156 198.934 18.5973C199.423 18.3791 199.954 18.2685 200.49 18.2731C202.746 18.2731 204.106 19.8143 204.106 22.3603V22.9186H198.381V23.0083C198.356 23.3058 198.394 23.6053 198.491 23.8875C198.589 24.1698 198.744 24.4285 198.947 24.6472C199.151 24.8659 199.397 25.0397 199.672 25.1574C199.946 25.2752 200.242 25.3343 200.541 25.331C200.923 25.3769 201.311 25.308 201.655 25.133C201.998 24.958 202.282 24.6847 202.469 24.3481L204.01 24.3481ZM198.381 21.7352H202.476C202.497 21.4631 202.46 21.1898 202.368 20.9328C202.276 20.6759 202.132 20.4409 201.944 20.2431C201.756 20.0453 201.529 19.889 201.277 19.7843C201.025 19.6795 200.754 19.6287 200.481 19.6349C200.204 19.6314 199.929 19.6834 199.673 19.7877C199.417 19.8921 199.184 20.0467 198.988 20.2424C198.793 20.4381 198.638 20.6711 198.534 20.9275C198.43 21.1838 198.378 21.4585 198.381 21.7352H198.381Z" fill="white"/>
</g>
</g>
</g>
</svg>
