<svg width="244" height="73" viewBox="0 0 244 73" fill="none" xmlns="http://www.w3.org/2000/svg">
<g id="Layer 2">
<g id="artwork">
<path id="Vector" d="M234.319 0.0737305H9.25266C4.28063 0.0737305 0.25 4.10436 0.25 9.07639V63.0924C0.25 68.0644 4.28063 72.095 9.25266 72.095H234.319C239.291 72.095 243.322 68.0644 243.322 63.0924V9.07639C243.322 4.10436 239.291 0.0737305 234.319 0.0737305Z" fill="#18191F"/>
<path id="Vector_2" d="M234.319 1.5138C236.324 1.51611 238.246 2.31364 239.664 3.73142C241.082 5.14919 241.879 7.07143 241.881 9.07639V63.0924C241.879 65.0973 241.082 67.0195 239.664 68.4373C238.246 69.8551 236.324 70.6526 234.319 70.655H9.25266C7.24768 70.6526 5.32548 69.8551 3.90778 68.4373C2.49007 67.0196 1.69264 65.0973 1.69043 63.0924V9.07639C1.69261 7.0714 2.49003 5.14914 3.90774 3.73137C5.32545 2.31359 7.24767 1.51607 9.25266 1.5138H234.319ZM234.319 0.0737305H9.25266C6.86715 0.0807131 4.58135 1.03145 2.89453 2.71826C1.20772 4.40508 0.256983 6.69088 0.25 9.07639L0.25 63.0924C0.256983 65.4779 1.20772 67.7637 2.89453 69.4505C4.58135 71.1373 6.86715 72.088 9.25266 72.095H234.319C236.705 72.088 238.99 71.1373 240.677 69.4505C242.364 67.7637 243.315 65.4779 243.322 63.0924V9.07639C243.315 6.69088 242.364 4.40508 240.677 2.71826C238.99 1.03145 236.705 0.0807131 234.319 0.0737305Z" fill="#A6A6A6"/>
<path id="Vector_3" d="M85.6279 18.5171C85.6606 19.1777 85.5585 19.8382 85.3279 20.4582C85.0972 21.0782 84.7428 21.6447 84.2861 22.1233C83.7744 22.6541 83.1564 23.0708 82.4725 23.3462C81.7886 23.6216 81.0543 23.7496 80.3176 23.7217C79.5762 23.7283 78.8409 23.5867 78.155 23.3051C77.4691 23.0235 76.8464 22.6076 76.3235 22.0819C75.8006 21.5563 75.3881 20.9314 75.1102 20.244C74.8323 19.5566 74.6946 18.8205 74.7052 18.0792C74.6946 17.3378 74.8324 16.6017 75.1103 15.9143C75.3883 15.2269 75.8008 14.602 76.3236 14.0762C76.8465 13.5505 77.4692 13.1346 78.155 12.8528C78.8409 12.5711 79.5762 12.4293 80.3176 12.4358C81.0799 12.4335 81.8346 12.5876 82.5349 12.8886C83.1854 13.1523 83.7644 13.5659 84.2247 14.0957L83.2751 15.046C82.9133 14.6201 82.4584 14.283 81.9456 14.0607C81.4328 13.8385 80.8758 13.737 80.3176 13.7642C79.7557 13.7613 79.199 13.8718 78.6808 14.0892C78.1626 14.3065 77.6936 14.6262 77.3019 15.0291C76.9102 15.432 76.6038 15.9098 76.4011 16.4339C76.1985 16.9579 76.1036 17.5176 76.1224 18.0792C76.109 18.9204 76.3457 19.7466 76.8025 20.4531C77.2593 21.1596 77.9156 21.7145 78.6882 22.0475C79.4608 22.3806 80.3148 22.4766 81.1421 22.3236C81.9694 22.1706 82.7326 21.7753 83.3349 21.188C83.8893 20.5906 84.2106 19.814 84.2404 18.9996H80.3176V17.702H85.5523C85.6018 17.9708 85.6271 18.2436 85.6279 18.5171Z" fill="white" stroke="white" stroke-width="0.360106" stroke-miterlimit="10"/>
<path id="Vector_4" d="M93.9277 14.0048H89.0079V17.4299H93.4442V18.7278H89.0079V22.1529H93.9277V23.4804H87.6206V12.6772H93.9277V14.0048Z" fill="white" stroke="white" stroke-width="0.360106" stroke-miterlimit="10"/>
<path id="Vector_5" d="M99.7814 23.4804H98.3923V14.0048H95.375V12.6772H102.799V14.0048H99.7814V23.4804Z" fill="white" stroke="white" stroke-width="0.360106" stroke-miterlimit="10"/>
<path id="Vector_6" d="M108.17 23.4804V12.6772H109.558V23.4804H108.17Z" fill="white" stroke="white" stroke-width="0.360106" stroke-miterlimit="10"/>
<path id="Vector_7" d="M115.715 23.4804H114.326V14.0048H111.309V12.6772H118.733V14.0048H115.715V23.4804Z" fill="white" stroke="white" stroke-width="0.360106" stroke-miterlimit="10"/>
<path id="Vector_8" d="M132.785 22.0844C131.734 23.1328 130.31 23.7215 128.825 23.7215C127.34 23.7215 125.916 23.1328 124.864 22.0844C124.344 21.5575 123.935 20.9314 123.662 20.2433C123.388 19.5552 123.256 18.8192 123.273 18.079C123.256 17.3387 123.388 16.6027 123.662 15.9146C123.935 15.2265 124.344 14.6004 124.864 14.0735C125.384 13.5536 126.001 13.1414 126.68 12.8603C127.36 12.5792 128.088 12.4349 128.823 12.4355C129.558 12.4362 130.286 12.5818 130.964 12.8641C131.643 13.1464 132.26 13.5597 132.778 14.0805C133.299 14.606 133.709 15.2307 133.983 15.9176C134.258 16.6044 134.392 17.3394 134.377 18.079C134.393 18.8191 134.261 19.555 133.987 20.2431C133.714 20.9311 133.305 21.5573 132.785 22.0844ZM125.889 21.1798C126.668 21.9573 127.724 22.3939 128.824 22.3939C129.924 22.3939 130.98 21.9573 131.759 21.1798C132.158 20.771 132.47 20.2854 132.677 19.7524C132.883 19.2194 132.979 18.6502 132.96 18.079C132.979 17.5078 132.883 16.9385 132.677 16.4055C132.47 15.8725 132.158 15.3869 131.759 14.9781C130.98 14.2006 129.924 13.764 128.824 13.764C127.724 13.764 126.668 14.2006 125.889 14.9781C125.49 15.3873 125.179 15.873 124.973 16.4059C124.766 16.9388 124.67 17.5079 124.69 18.079C124.67 18.65 124.766 19.2191 124.973 19.752C125.179 20.285 125.49 20.7706 125.889 21.1798Z" fill="white" stroke="white" stroke-width="0.360106" stroke-miterlimit="10"/>
<path id="Vector_9" d="M136.326 23.4804V12.6772H138.015L143.266 21.0812H143.326L143.266 18.9993V12.6772H144.655V23.4804H143.206L137.713 14.6694H137.653L137.713 16.7513V23.4804H136.326Z" fill="white" stroke="white" stroke-width="0.360106" stroke-miterlimit="10"/>
<path id="Vector_10" d="M122.931 39.2382C121.417 39.244 119.94 39.698 118.684 40.5429C117.429 41.3879 116.452 42.5859 115.876 43.9857C115.301 45.3855 115.154 46.9244 115.453 48.408C115.751 49.8916 116.483 51.2534 117.555 52.3215C118.627 53.3895 119.992 54.116 121.477 54.4091C122.961 54.7023 124.5 54.5489 125.897 53.9684C127.295 53.3879 128.489 52.4064 129.329 51.1476C130.169 49.8889 130.618 48.4095 130.618 46.8961C130.633 45.8839 130.444 44.879 130.062 43.9413C129.681 43.0035 129.115 42.1521 128.398 41.4376C127.68 40.7232 126.827 40.1603 125.888 39.7824C124.948 39.4046 123.943 39.2195 122.931 39.2382ZM122.931 51.5373C121.999 51.6038 121.068 51.3881 120.261 50.9183C119.453 50.4486 118.805 49.7466 118.402 48.9036C117.999 48.0607 117.859 47.1159 118 46.1923C118.142 45.2687 118.558 44.4091 119.195 43.7253C119.831 43.0415 120.659 42.5652 121.571 42.3585C122.482 42.1518 123.434 42.2243 124.304 42.5664C125.173 42.9085 125.919 43.5045 126.445 44.2768C126.971 45.049 127.253 45.9617 127.253 46.8961C127.281 47.4864 127.191 48.0763 126.988 48.6313C126.785 49.1862 126.472 49.6949 126.07 50.1274C125.667 50.5599 125.182 50.9074 124.643 51.1496C124.104 51.3917 123.522 51.5235 122.931 51.5373ZM106.162 39.2382C104.648 39.2439 103.171 39.6979 101.915 40.5429C100.659 41.3878 99.6824 42.5858 99.1072 43.9856C98.532 45.3854 98.3845 46.9243 98.6832 48.4079C98.982 49.8915 99.7136 51.2533 100.786 52.3214C101.858 53.3895 103.222 54.116 104.707 54.4091C106.192 54.7023 107.73 54.5489 109.128 53.9684C110.525 53.388 111.72 52.4064 112.56 51.1477C113.4 49.8889 113.849 48.4095 113.849 46.8961C113.863 45.8839 113.675 44.879 113.293 43.9413C112.912 43.0036 112.346 42.1522 111.628 41.4377C110.911 40.7232 110.058 40.1603 109.119 39.7825C108.179 39.4046 107.174 39.2195 106.162 39.2382ZM106.162 51.5373C105.23 51.6038 104.299 51.3881 103.492 50.9183C102.684 50.4486 102.036 49.7466 101.633 48.9036C101.23 48.0607 101.09 47.1159 101.231 46.1923C101.373 45.2687 101.789 44.4091 102.426 43.7253C103.062 43.0415 103.89 42.5652 104.801 42.3585C105.713 42.1518 106.665 42.2243 107.535 42.5664C108.404 42.9085 109.15 43.5045 109.676 44.2768C110.202 45.049 110.484 45.9617 110.484 46.8961C110.512 47.4864 110.422 48.0764 110.219 48.6313C110.016 49.1863 109.703 49.6949 109.301 50.1274C108.898 50.5599 108.413 50.9075 107.874 51.1496C107.335 51.3917 106.752 51.5235 106.162 51.5373ZM86.2139 41.5879V44.8366H93.9881C93.8759 46.3604 93.2524 47.8017 92.2185 48.9267C91.4395 49.7208 90.5026 50.3428 89.4684 50.7524C88.4341 51.1621 87.3255 51.3504 86.2139 51.3052C83.9416 51.2745 81.7728 50.3502 80.1768 48.7324C78.5808 47.1147 77.686 44.9336 77.686 42.6611C77.686 40.3885 78.5808 38.2074 80.1768 36.5897C81.7728 34.9719 83.9416 34.0476 86.2139 34.0169C88.3966 33.9884 90.5023 34.8223 92.0736 36.3374L94.3651 34.0459C93.293 32.9845 92.0198 32.1478 90.6201 31.5849C89.2204 31.0221 87.7224 30.7443 86.2139 30.768C84.6376 30.745 83.0723 31.0357 81.6093 31.6231C80.1462 32.2105 78.8146 33.0829 77.6917 34.1895C76.5688 35.2962 75.6771 36.615 75.0685 38.0693C74.4599 39.5237 74.1465 41.0845 74.1465 42.6611C74.1465 44.2376 74.4599 45.7984 75.0685 47.2528C75.6771 48.7071 76.5688 50.0259 77.6917 51.1326C78.8146 52.2392 80.1462 53.1116 81.6093 53.699C83.0723 54.2864 84.6376 54.5771 86.2139 54.5541C87.7542 54.618 89.2905 54.3536 90.7208 53.7785C92.1511 53.2033 93.4428 52.3306 94.5101 51.2183C96.405 49.1499 97.415 46.422 97.324 43.6184C97.3314 42.9375 97.273 42.2576 97.1497 41.5879H86.2139ZM167.793 44.1114C167.333 42.7243 166.457 41.5125 165.284 40.6407C164.111 39.7688 162.698 39.2792 161.237 39.2382C160.253 39.2443 159.281 39.4499 158.379 39.8425C157.476 40.2351 156.663 40.8065 155.988 41.5223C155.313 42.2381 154.79 43.0834 154.451 44.007C154.112 44.9307 153.963 45.9135 154.015 46.8961C153.992 47.9029 154.173 48.9039 154.547 49.8392C154.92 50.7745 155.478 51.6249 156.188 52.3398C156.897 53.0546 157.743 53.6191 158.676 53.9995C159.608 54.38 160.607 54.5686 161.614 54.5541C162.876 54.5611 164.12 54.2546 165.233 53.6623C166.347 53.0699 167.296 52.2102 167.996 51.1603L165.385 49.4199C164.994 50.0694 164.441 50.6061 163.78 50.9773C163.119 51.3485 162.373 51.5415 161.614 51.5373C160.834 51.5672 160.063 51.3619 159.401 50.9481C158.739 50.5343 158.216 49.9311 157.901 49.2168L168.141 44.9818L167.793 44.1114ZM157.35 46.6642C157.314 46.1068 157.39 45.5478 157.572 45.02C157.755 44.4921 158.041 44.006 158.414 43.59C158.786 43.1741 159.238 42.8366 159.743 42.5974C160.248 42.3582 160.795 42.2221 161.353 42.1971C161.934 42.1588 162.514 42.2925 163.019 42.5814C163.525 42.8702 163.934 43.3015 164.196 43.8215L157.35 46.6642ZM149.025 54.0899H152.39V31.5804H149.025V54.0899ZM143.514 40.9496H143.398C142.886 40.3938 142.262 39.9537 141.567 39.6585C140.871 39.3634 140.121 39.2201 139.366 39.2382C137.391 39.3223 135.525 40.1658 134.158 41.5928C132.79 43.0197 132.027 44.9197 132.027 46.8962C132.027 48.8726 132.79 50.7726 134.158 52.1996C135.525 53.6265 137.391 54.4701 139.366 54.5541C140.124 54.5743 140.877 54.429 141.574 54.1285C142.27 53.8279 142.892 53.3793 143.398 52.8137H143.514V53.916C143.514 56.8458 141.947 58.4121 139.424 58.4121C138.583 58.392 137.766 58.1219 137.079 57.6363C136.392 57.1507 135.865 56.4715 135.566 55.6854L132.636 56.9038C133.188 58.2482 134.129 59.3971 135.338 60.2033C136.548 61.0095 137.97 61.4363 139.424 61.4289C143.369 61.4289 146.705 59.1084 146.705 53.4518V39.7022H143.514V40.9496ZM139.656 51.5373C138.493 51.4387 137.409 50.907 136.62 50.0475C135.83 49.188 135.392 48.0634 135.392 46.8962C135.392 45.729 135.83 44.6043 136.62 43.7448C137.409 42.8853 138.493 42.3536 139.656 42.255C140.235 42.2833 140.802 42.4277 141.323 42.6798C141.845 42.9319 142.31 43.2863 142.692 43.7221C143.074 44.158 143.364 44.6661 143.545 45.2164C143.726 45.7667 143.794 46.3478 143.746 46.9251C143.791 47.4988 143.72 48.0757 143.537 48.6214C143.354 49.167 143.063 49.6702 142.682 50.1008C142.3 50.5314 141.835 50.8805 141.315 51.1273C140.795 51.3742 140.231 51.5136 139.656 51.5373ZM183.555 31.5808H175.504V54.0899H178.863V45.5619H183.555C184.505 45.614 185.456 45.4718 186.349 45.144C187.243 44.8162 188.06 44.3098 188.751 43.6555C189.442 43.0013 189.993 42.213 190.369 41.3388C190.745 40.4647 190.939 39.523 190.939 38.5713C190.939 37.6197 190.745 36.678 190.369 35.8038C189.993 34.9297 189.442 34.1414 188.751 33.4871C188.06 32.8329 187.243 32.3264 186.349 31.9986C185.456 31.6708 184.505 31.5287 183.555 31.5808ZM183.641 42.4293H178.863V34.7135H183.641C184.155 34.7029 184.665 34.7948 185.142 34.9839C185.62 35.173 186.055 35.4555 186.422 35.8148C186.788 36.174 187.08 36.6029 187.279 37.0763C187.478 37.5496 187.58 38.0579 187.58 38.5714C187.58 39.0849 187.478 39.5932 187.279 40.0665C187.08 40.5399 186.788 40.9688 186.422 41.3281C186.055 41.6874 185.62 41.9698 185.142 42.1589C184.665 42.348 184.155 42.44 183.641 42.4293ZM204.405 39.1968C203.178 39.1252 201.958 39.4132 200.893 40.0253C199.828 40.6375 198.965 41.5472 198.41 42.6429L201.393 43.8881C201.689 43.3443 202.136 42.8985 202.682 42.6053C203.227 42.3122 203.846 42.1843 204.462 42.2374C205.315 42.1542 206.165 42.4123 206.827 42.9551C207.49 43.4979 207.91 44.2812 207.995 45.1332V45.3649C206.917 44.7917 205.713 44.4934 204.491 44.4962C201.277 44.4962 198.005 46.2627 198.005 49.5639C198.036 50.2597 198.207 50.942 198.507 51.5706C198.807 52.1991 199.23 52.7609 199.751 53.2228C200.272 53.6847 200.881 54.0371 201.541 54.2592C202.201 54.4813 202.899 54.5685 203.594 54.5158C204.44 54.5655 205.283 54.3876 206.037 54.0006C206.791 53.6135 207.427 53.0314 207.88 52.315H207.995V54.0525H211.239V45.4229C211.239 41.4266 208.256 39.1968 204.405 39.1968ZM203.999 51.533C202.899 51.533 201.364 50.9829 201.364 49.6217C201.364 47.8844 203.275 47.2182 204.926 47.2182C205.998 47.1896 207.058 47.4497 207.995 47.9712C207.872 48.9475 207.399 49.8461 206.665 50.5009C205.93 51.1557 204.983 51.5223 203.999 51.533ZM223.054 39.6891L219.202 49.448H219.086L215.09 39.6891H211.47L217.465 53.3285L214.048 60.9156H217.552L226.789 39.6891H223.054ZM192.792 54.0899H196.151V31.5808H192.792V54.0899Z" fill="white"/>
<path id="Vector_11" d="M19.039 13.6463C18.4486 14.3523 18.1505 15.2573 18.2058 16.1759V55.9967C18.1503 56.9153 18.4485 57.8204 19.039 58.5262L19.1723 58.656L41.4791 36.3494V35.8231L19.1723 13.5156L19.039 13.6463Z" fill="url(#paint0_linear_326_112)"/>
<path id="Vector_12" d="M48.9146 43.7882L41.4795 36.3494V35.8231L48.9164 28.3862L49.084 28.4818L57.8937 33.4875C60.4101 34.9171 60.4101 37.2564 57.8937 38.6869L49.084 43.6926L48.9146 43.7882Z" fill="url(#paint1_linear_326_112)"/>
<path id="Vector_13" d="M49.0832 43.6917L41.4786 36.0864L19.0386 58.5263C19.5513 58.9785 20.2061 59.2371 20.8895 59.2573C21.5728 59.2775 22.2417 59.058 22.7803 58.6368L49.0832 43.6917Z" fill="url(#paint2_linear_326_112)"/>
<path id="Vector_14" d="M49.0832 28.4809L22.7803 13.5358C22.2417 13.1146 21.5728 12.8952 20.8895 12.9153C20.2061 12.9355 19.5513 13.1941 19.0386 13.6464L41.4786 36.0864L49.0832 28.4809Z" fill="url(#paint3_linear_326_112)"/>
<path id="Vector_15" opacity="0.2" d="M48.9155 43.5244L22.7803 58.3739C22.2625 58.7681 21.6305 58.9832 20.9797 58.9867C20.3289 58.9902 19.6947 58.7818 19.1727 58.3932L19.0386 58.5273L19.1718 58.6572L19.1727 58.6563C19.6946 59.0451 20.3289 59.2535 20.9797 59.2501C21.6305 59.2466 22.2625 59.0314 22.7803 58.637L49.0832 43.6919L48.9155 43.5244Z" fill="#18191F"/>
<path id="Vector_16" opacity="0.12" d="M19.039 58.2639C18.4486 57.558 18.1505 56.653 18.2057 55.7344V55.9974C18.1505 56.9161 18.4486 57.821 19.039 58.527L19.1731 58.3929L19.039 58.2639Z" fill="#18191F"/>
<path id="Vector_17" opacity="0.12" d="M57.8933 38.4227L48.916 43.524L49.0836 43.6915L57.8933 38.6858C58.4115 38.4609 58.8599 38.1012 59.1919 37.6441C59.5239 37.187 59.7272 36.6493 59.7808 36.0869C59.6694 36.5962 59.4408 37.0725 59.1132 37.478C58.7855 37.8834 58.3678 38.2069 57.8933 38.4227Z" fill="#18191F"/>
<path id="Vector_18" opacity="0.25" d="M22.781 13.7998L57.8936 33.7497C58.3683 33.9655 58.7861 34.2891 59.1138 34.6948C59.4414 35.1004 59.6699 35.5769 59.7811 36.0864C59.7279 35.5238 59.5247 34.9858 59.1927 34.5285C58.8607 34.0712 58.412 33.7114 57.8936 33.4866L22.781 13.5368C20.2646 12.107 18.2061 13.2946 18.2061 16.1769V16.4399C18.2061 13.5578 20.2646 12.3702 22.781 13.7998Z" fill="white"/>
</g>
</g>
<defs>
<linearGradient id="paint0_linear_326_112" x1="39.5009" y1="15.756" x2="9.28364" y2="45.9733" gradientUnits="userSpaceOnUse">
<stop stop-color="#00A0FF"/>
<stop offset="0.00657" stop-color="#00A1FF"/>
<stop offset="0.2601" stop-color="#00BEFF"/>
<stop offset="0.5122" stop-color="#00D2FF"/>
<stop offset="0.7604" stop-color="#00DFFF"/>
<stop offset="1" stop-color="#00E3FF"/>
</linearGradient>
<linearGradient id="paint1_linear_326_112" x1="61.1701" y1="36.0872" x2="17.6028" y2="36.0872" gradientUnits="userSpaceOnUse">
<stop stop-color="#FFE000"/>
<stop offset="0.4087" stop-color="#FFBD00"/>
<stop offset="0.7754" stop-color="#FFA500"/>
<stop offset="1" stop-color="#FF9C00"/>
</linearGradient>
<linearGradient id="paint2_linear_326_112" x1="44.951" y1="40.2188" x2="3.97401" y2="81.1958" gradientUnits="userSpaceOnUse">
<stop stop-color="#FF3A44"/>
<stop offset="1" stop-color="#C31162"/>
</linearGradient>
<linearGradient id="paint3_linear_326_112" x1="13.3884" y1="0.391163" x2="31.6863" y2="18.6891" gradientUnits="userSpaceOnUse">
<stop stop-color="#32A071"/>
<stop offset="0.0685" stop-color="#2DA771"/>
<stop offset="0.4762" stop-color="#15CF74"/>
<stop offset="0.8009" stop-color="#06E775"/>
<stop offset="1" stop-color="#00F076"/>
</linearGradient>
</defs>
</svg>
