<svg width="431" height="430" viewBox="0 0 431 430" fill="none" xmlns="http://www.w3.org/2000/svg">
<g clip-path="url(#clip0_32_6069)">
<rect x="0.000244141" width="430.16" height="429.42" rx="14.291" fill="white"/>
<line opacity="0.05" x1="19.999" y1="71.6172" x2="401.582" y2="71.6172" stroke="black" stroke-width="1.4291"/>
<g opacity="0.6">
<path d="M309.172 35.9616L308.097 36.2661C308.029 36.0868 307.929 35.9125 307.797 35.7434C307.669 35.5708 307.493 35.4287 307.269 35.3171C307.046 35.2054 306.76 35.1496 306.412 35.1496C305.935 35.1496 305.537 35.2596 305.219 35.4795C304.904 35.696 304.747 35.9717 304.747 36.3067C304.747 36.6044 304.855 36.8396 305.072 37.0121C305.288 37.1847 305.627 37.3284 306.087 37.4435L307.244 37.7277C307.941 37.8968 308.46 38.1557 308.802 38.5041C309.144 38.8492 309.315 39.2941 309.315 39.8388C309.315 40.2854 309.186 40.6847 308.929 41.0365C308.675 41.3884 308.32 41.6658 307.863 41.8688C307.406 42.0718 306.875 42.1733 306.27 42.1733C305.474 42.1733 304.816 42.0008 304.295 41.6557C303.774 41.3106 303.444 40.8065 303.306 40.1433L304.443 39.8591C304.551 40.2787 304.756 40.5933 305.057 40.8031C305.361 41.0128 305.759 41.1177 306.249 41.1177C306.807 41.1177 307.251 40.9993 307.579 40.7625C307.91 40.5223 308.076 40.2347 308.076 39.8997C308.076 39.6291 307.981 39.4024 307.792 39.2197C307.603 39.0336 307.312 38.8949 306.919 38.8036L305.62 38.4991C304.906 38.3299 304.382 38.0677 304.047 37.7124C303.715 37.3538 303.549 36.9055 303.549 36.3676C303.549 35.9278 303.673 35.5387 303.92 35.2004C304.17 34.862 304.51 34.5964 304.94 34.4036C305.373 34.2107 305.864 34.1143 306.412 34.1143C307.183 34.1143 307.789 34.2835 308.228 34.6218C308.672 34.9601 308.986 35.4067 309.172 35.9616ZM314.457 42.1733C313.706 42.1733 313.058 42.0075 312.513 41.676C311.972 41.341 311.554 40.8741 311.26 40.2753C310.969 39.6731 310.823 38.9727 310.823 38.1743C310.823 37.3758 310.969 36.6721 311.26 36.0631C311.554 35.4507 311.964 34.9737 312.488 34.632C313.016 34.2869 313.632 34.1143 314.335 34.1143C314.741 34.1143 315.142 34.182 315.538 34.3173C315.934 34.4526 316.294 34.6726 316.619 34.9771C316.944 35.2782 317.203 35.6774 317.395 36.1747C317.588 36.6721 317.685 37.2845 317.685 38.0119V38.5194H311.676V37.4841H316.467C316.467 37.0442 316.379 36.6518 316.203 36.3067C316.03 35.9616 315.783 35.6892 315.462 35.4896C315.144 35.29 314.768 35.1902 314.335 35.1902C313.858 35.1902 313.445 35.3086 313.097 35.5454C312.752 35.7789 312.486 36.0834 312.3 36.4589C312.114 36.8345 312.021 37.2371 312.021 37.6668V38.357C312.021 38.9457 312.123 39.4447 312.326 39.8541C312.532 40.2601 312.818 40.5696 313.183 40.7828C313.549 40.9925 313.973 41.0974 314.457 41.0974C314.772 41.0974 315.056 41.0534 315.31 40.9655C315.567 40.8741 315.788 40.7388 315.974 40.5595C316.161 40.3768 316.304 40.1501 316.406 39.8794L317.563 40.2042C317.441 40.5967 317.236 40.9418 316.949 41.2395C316.661 41.5339 316.306 41.7639 315.883 41.9297C315.46 42.0921 314.985 42.1733 314.457 42.1733ZM322.846 42.1733C322.095 42.1733 321.447 42.0075 320.903 41.676C320.361 41.341 319.944 40.8741 319.649 40.2753C319.358 39.6731 319.213 38.9727 319.213 38.1743C319.213 37.3758 319.358 36.6721 319.649 36.0631C319.944 35.4507 320.353 34.9737 320.877 34.632C321.405 34.2869 322.021 34.1143 322.725 34.1143C323.131 34.1143 323.531 34.182 323.927 34.3173C324.323 34.4526 324.683 34.6726 325.008 34.9771C325.333 35.2782 325.592 35.6774 325.785 36.1747C325.978 36.6721 326.074 37.2845 326.074 38.0119V38.5194H320.065V37.4841H324.856C324.856 37.0442 324.768 36.6518 324.592 36.3067C324.42 35.9616 324.173 35.6892 323.851 35.4896C323.533 35.29 323.158 35.1902 322.725 35.1902C322.248 35.1902 321.835 35.3086 321.486 35.5454C321.141 35.7789 320.876 36.0834 320.69 36.4589C320.503 36.8345 320.41 37.2371 320.41 37.6668V38.357C320.41 38.9457 320.512 39.4447 320.715 39.8541C320.921 40.2601 321.207 40.5696 321.573 40.7828C321.938 40.9925 322.363 41.0974 322.846 41.0974C323.161 41.0974 323.445 41.0534 323.699 40.9655C323.956 40.8741 324.178 40.7388 324.364 40.5595C324.55 40.3768 324.694 40.1501 324.795 39.8794L325.952 40.2042C325.83 40.5967 325.626 40.9418 325.338 41.2395C325.051 41.5339 324.695 41.7639 324.272 41.9297C323.85 42.0921 323.374 42.1733 322.846 42.1733ZM335.529 34.2158V35.2308H331.327V34.2158H335.529ZM332.586 42.0109V33.1399C332.586 32.6933 332.691 32.3212 332.901 32.0234C333.11 31.7257 333.383 31.5024 333.718 31.3535C334.053 31.2047 334.406 31.1303 334.778 31.1303C335.073 31.1303 335.313 31.1539 335.499 31.2013C335.685 31.2487 335.824 31.2926 335.915 31.3332L335.57 32.3685C335.509 32.3482 335.425 32.3229 335.316 32.2924C335.211 32.262 335.073 32.2467 334.9 32.2467C334.504 32.2467 334.218 32.3465 334.042 32.5462C333.87 32.7458 333.784 33.0384 333.784 33.4241V42.0109H332.586ZM342.192 38.8239V34.2158H343.39V42.0109H342.192V40.6914H342.111C341.928 41.0873 341.644 41.4239 341.258 41.7013C340.873 41.9754 340.385 42.1124 339.797 42.1124C339.309 42.1124 338.876 42.0058 338.497 41.7927C338.119 41.5762 337.821 41.2514 337.604 40.8183C337.388 40.3819 337.279 39.8321 337.279 39.169V34.2158H338.477V39.0878C338.477 39.6561 338.636 40.1095 338.954 40.4478C339.276 40.7862 339.685 40.9553 340.182 40.9553C340.48 40.9553 340.783 40.8792 341.091 40.727C341.402 40.5747 341.662 40.3413 341.872 40.0266C342.085 39.712 342.192 39.3111 342.192 38.8239ZM346.852 31.6174V42.0109H345.655V31.6174H346.852ZM350.315 31.6174V42.0109H349.118V31.6174H350.315ZM359.615 42.1733C358.965 42.1733 358.392 42.0092 357.894 41.681C357.397 41.3495 357.008 40.8826 356.727 40.2804C356.446 39.6748 356.306 38.9592 356.306 38.1337C356.306 37.3149 356.446 36.6044 356.727 36.0022C357.008 35.4 357.399 34.9348 357.899 34.6066C358.4 34.2784 358.979 34.1143 359.635 34.1143C360.142 34.1143 360.543 34.1989 360.838 34.3681C361.135 34.5338 361.362 34.7233 361.518 34.9365C361.677 35.1462 361.8 35.3188 361.888 35.4541H361.99V31.6174H363.187V42.0109H362.03V40.8132H361.888C361.8 40.9553 361.675 41.1346 361.513 41.3512C361.35 41.5643 361.118 41.7555 360.817 41.9246C360.516 42.0904 360.115 42.1733 359.615 42.1733ZM359.777 41.0974C360.257 41.0974 360.663 40.9722 360.995 40.7219C361.327 40.4681 361.579 40.118 361.751 39.6714C361.924 39.2214 362.01 38.7021 362.01 38.1134C362.01 37.5314 361.925 37.0223 361.756 36.5858C361.587 36.146 361.337 35.8043 361.005 35.5607C360.674 35.3137 360.264 35.1902 359.777 35.1902C359.27 35.1902 358.847 35.3205 358.508 35.581C358.173 35.8381 357.921 36.1883 357.752 36.6315C357.586 37.0713 357.503 37.5653 357.503 38.1134C357.503 38.6682 357.588 39.1723 357.757 39.6257C357.93 40.0757 358.183 40.4343 358.518 40.7016C358.857 40.9655 359.276 41.0974 359.777 41.0974ZM368.887 42.1733C368.136 42.1733 367.488 42.0075 366.943 41.676C366.402 41.341 365.984 40.8741 365.69 40.2753C365.399 39.6731 365.253 38.9727 365.253 38.1743C365.253 37.3758 365.399 36.6721 365.69 36.0631C365.984 35.4507 366.393 34.9737 366.918 34.632C367.446 34.2869 368.061 34.1143 368.765 34.1143C369.171 34.1143 369.572 34.182 369.968 34.3173C370.364 34.4526 370.724 34.6726 371.049 34.9771C371.374 35.2782 371.632 35.6774 371.825 36.1747C372.018 36.6721 372.115 37.2845 372.115 38.0119V38.5194H366.106V37.4841H370.897C370.897 37.0442 370.809 36.6518 370.633 36.3067C370.46 35.9616 370.213 35.6892 369.892 35.4896C369.574 35.29 369.198 35.1902 368.765 35.1902C368.288 35.1902 367.875 35.3086 367.527 35.5454C367.182 35.7789 366.916 36.0834 366.73 36.4589C366.544 36.8345 366.451 37.2371 366.451 37.6668V38.357C366.451 38.9457 366.552 39.4447 366.755 39.8541C366.962 40.2601 367.248 40.5696 367.613 40.7828C367.979 40.9925 368.403 41.0974 368.887 41.0974C369.202 41.0974 369.486 41.0534 369.74 40.9655C369.997 40.8741 370.218 40.7388 370.404 40.5595C370.59 40.3768 370.734 40.1501 370.836 39.8794L371.993 40.2042C371.871 40.5967 371.666 40.9418 371.379 41.2395C371.091 41.5339 370.736 41.7639 370.313 41.9297C369.89 42.0921 369.415 42.1733 368.887 42.1733ZM377.398 34.2158V35.2308H373.358V34.2158H377.398ZM374.536 32.3482H375.733V39.7779C375.733 40.1163 375.782 40.37 375.881 40.5392C375.982 40.705 376.111 40.8166 376.266 40.8741C376.425 40.9283 376.593 40.9553 376.769 40.9553C376.901 40.9553 377.009 40.9486 377.093 40.935C377.178 40.9181 377.246 40.9046 377.296 40.8944L377.54 41.9703C377.459 42.0008 377.346 42.0312 377.2 42.0617C377.055 42.0955 376.87 42.1124 376.647 42.1124C376.309 42.1124 375.977 42.0397 375.652 41.8942C375.331 41.7487 375.064 41.5271 374.85 41.2294C374.641 40.9316 374.536 40.5561 374.536 40.1027V32.3482ZM381.565 42.1936C381.071 42.1936 380.623 42.1006 380.22 41.9145C379.817 41.725 379.498 41.4527 379.261 41.0974C379.024 40.7388 378.906 40.3057 378.906 39.7982C378.906 39.3517 378.994 38.9896 379.17 38.7122C379.345 38.4314 379.581 38.2115 379.875 38.0525C380.169 37.8935 380.494 37.775 380.849 37.6972C381.208 37.616 381.568 37.5517 381.93 37.5044C382.404 37.4435 382.788 37.3978 383.082 37.3673C383.38 37.3335 383.597 37.2777 383.732 37.1999C383.871 37.1221 383.94 36.9867 383.94 36.7939V36.7533C383.94 36.2526 383.803 35.8635 383.529 35.586C383.258 35.3086 382.847 35.1699 382.296 35.1699C381.724 35.1699 381.276 35.2951 380.951 35.5454C380.626 35.7958 380.398 36.0631 380.266 36.3473L379.129 35.9413C379.332 35.4676 379.603 35.0989 379.941 34.835C380.283 34.5677 380.655 34.3816 381.057 34.2767C381.463 34.1684 381.863 34.1143 382.255 34.1143C382.505 34.1143 382.793 34.1448 383.118 34.2057C383.446 34.2632 383.762 34.3833 384.067 34.566C384.375 34.7487 384.63 35.0244 384.833 35.3932C385.036 35.762 385.138 36.2559 385.138 36.8751V42.0109H383.94V40.9553H383.879C383.798 41.1245 383.663 41.3055 383.473 41.4983C383.284 41.6912 383.032 41.8553 382.717 41.9906C382.402 42.1259 382.018 42.1936 381.565 42.1936ZM381.748 41.1177C382.221 41.1177 382.621 41.0247 382.945 40.8386C383.273 40.6525 383.52 40.4123 383.686 40.118C383.855 39.8236 383.94 39.514 383.94 39.1893V38.0931C383.889 38.154 383.778 38.2098 383.605 38.2605C383.436 38.3079 383.24 38.3502 383.016 38.3874C382.796 38.4212 382.582 38.4517 382.372 38.4788C382.165 38.5024 381.998 38.5227 381.869 38.5397C381.558 38.5803 381.267 38.6462 380.997 38.7376C380.729 38.8255 380.513 38.9592 380.347 39.1385C380.185 39.3144 380.103 39.5546 380.103 39.8591C380.103 40.2753 380.257 40.5899 380.565 40.8031C380.876 41.0128 381.271 41.1177 381.748 41.1177ZM387.395 42.0109V34.2158H388.593V42.0109H387.395ZM388.004 32.9166C387.771 32.9166 387.569 32.8371 387.4 32.6781C387.234 32.5191 387.152 32.3279 387.152 32.1046C387.152 31.8813 387.234 31.6902 387.4 31.5312C387.569 31.3722 387.771 31.2926 388.004 31.2926C388.238 31.2926 388.437 31.3722 388.603 31.5312C388.772 31.6902 388.857 31.8813 388.857 32.1046C388.857 32.3279 388.772 32.5191 388.603 32.6781C388.437 32.8371 388.238 32.9166 388.004 32.9166ZM392.056 31.6174V42.0109H390.858V31.6174H392.056ZM399.842 35.9616L398.766 36.2661C398.699 36.0868 398.599 35.9125 398.467 35.7434C398.338 35.5708 398.162 35.4287 397.939 35.3171C397.716 35.2054 397.43 35.1496 397.081 35.1496C396.604 35.1496 396.207 35.2596 395.889 35.4795C395.574 35.696 395.417 35.9717 395.417 36.3067C395.417 36.6044 395.525 36.8396 395.742 37.0121C395.958 37.1847 396.297 37.3284 396.757 37.4435L397.914 37.7277C398.611 37.8968 399.13 38.1557 399.472 38.5041C399.814 38.8492 399.984 39.2941 399.984 39.8388C399.984 40.2854 399.856 40.6847 399.599 41.0365C399.345 41.3884 398.99 41.6658 398.533 41.8688C398.076 42.0718 397.545 42.1733 396.939 42.1733C396.144 42.1733 395.486 42.0008 394.965 41.6557C394.444 41.3106 394.114 40.8065 393.976 40.1433L395.112 39.8591C395.221 40.2787 395.425 40.5933 395.726 40.8031C396.031 41.0128 396.429 41.1177 396.919 41.1177C397.477 41.1177 397.921 40.9993 398.249 40.7625C398.58 40.5223 398.746 40.2347 398.746 39.8997C398.746 39.6291 398.651 39.4024 398.462 39.2197C398.272 39.0336 397.981 38.8949 397.589 38.8036L396.29 38.4991C395.576 38.3299 395.052 38.0677 394.717 37.7124C394.385 37.3538 394.219 36.9055 394.219 36.3676C394.219 35.9278 394.343 35.5387 394.59 35.2004C394.84 34.862 395.18 34.5964 395.61 34.4036C396.043 34.2107 396.533 34.1143 397.081 34.1143C397.853 34.1143 398.458 34.2835 398.898 34.6218C399.342 34.9601 399.656 35.4067 399.842 35.9616Z" fill="#0C0A40"/>
<path d="M302.555 44.8529H400.695V45.8273H302.555V44.8529Z" fill="#0C0A40"/>
</g>
<path d="M26.5496 36.6281C26.5032 36.1939 26.3077 35.8558 25.963 35.6139C25.6216 35.3719 25.1774 35.251 24.6306 35.251C24.2461 35.251 23.9163 35.309 23.6412 35.425C23.3661 35.541 23.1557 35.6984 23.0098 35.8973C22.864 36.0961 22.7894 36.3232 22.7861 36.5784C22.7861 36.7905 22.8342 36.9745 22.9303 37.1302C23.0297 37.286 23.164 37.4186 23.333 37.528C23.502 37.634 23.6893 37.7235 23.8948 37.7964C24.1003 37.8693 24.3074 37.9307 24.5162 37.9804L25.4708 38.219C25.8552 38.3085 26.2248 38.4295 26.5794 38.5819C26.9374 38.7344 27.2572 38.9266 27.539 39.1586C27.824 39.3906 28.0494 39.6707 28.2151 39.9988C28.3808 40.327 28.4637 40.7114 28.4637 41.1522C28.4637 41.7488 28.3112 42.2742 28.0063 42.7282C27.7014 43.179 27.2605 43.532 26.6838 43.7872C26.1104 44.0391 25.4161 44.165 24.6007 44.165C23.8086 44.165 23.1209 44.0424 22.5375 43.7971C21.9575 43.5519 21.5034 43.1939 21.1753 42.7233C20.8505 42.2526 20.6748 41.6792 20.6483 41.0031H22.463C22.4895 41.3577 22.5988 41.6527 22.7911 41.888C22.9833 42.1234 23.2336 42.299 23.5418 42.415C23.8533 42.531 24.2014 42.589 24.5858 42.589C24.9869 42.589 25.3382 42.5294 25.6398 42.4101C25.9447 42.2874 26.1834 42.1184 26.3557 41.903C26.5281 41.6842 26.6159 41.429 26.6192 41.1373C26.6159 40.8722 26.538 40.6534 26.3855 40.4811C26.2331 40.3054 26.0193 40.1596 25.7442 40.0436C25.4724 39.9243 25.1542 39.8182 24.7897 39.7254L23.6313 39.4271C22.7927 39.2117 22.1299 38.8852 21.6426 38.4477C21.1587 38.0069 20.9168 37.4219 20.9168 36.6927C20.9168 36.0928 21.0792 35.5675 21.404 35.1167C21.7321 34.666 22.1779 34.3163 22.7414 34.0677C23.3048 33.8158 23.9428 33.6899 24.6554 33.6899C25.378 33.6899 26.011 33.8158 26.5546 34.0677C27.1015 34.3163 27.5307 34.6627 27.8422 35.1068C28.1538 35.5476 28.3145 36.0547 28.3245 36.6281H26.5496ZM33.9117 36.3745V37.7666H29.5218V36.3745H33.9117ZM30.6056 34.545H32.4053V41.714C32.4053 41.956 32.4418 42.1416 32.5147 42.2709C32.5909 42.3968 32.6903 42.483 32.813 42.5294C32.9356 42.5758 33.0715 42.599 33.2206 42.599C33.3333 42.599 33.4361 42.5907 33.5289 42.5741C33.625 42.5575 33.6979 42.5426 33.7476 42.5294L34.0509 43.9363C33.9548 43.9695 33.8172 44.0059 33.6382 44.0457C33.4626 44.0855 33.2471 44.1087 32.9919 44.1153C32.5412 44.1286 32.1352 44.0606 31.7739 43.9115C31.4126 43.759 31.1259 43.5237 30.9138 43.2055C30.705 42.8873 30.6023 42.4896 30.6056 42.0123V34.545ZM37.6843 44.165C37.2004 44.165 36.7645 44.0789 36.3768 43.9065C35.9923 43.7308 35.6874 43.4723 35.462 43.1309C35.2399 42.7896 35.1289 42.3686 35.1289 41.8682C35.1289 41.4373 35.2084 41.081 35.3675 40.7993C35.5266 40.5175 35.7437 40.2922 36.0188 40.1231C36.2939 39.9541 36.6038 39.8265 36.9485 39.7403C37.2965 39.6508 37.6561 39.5862 38.0273 39.5464C38.4748 39.5 38.8377 39.4586 39.1161 39.4221C39.3945 39.3824 39.5967 39.3227 39.7226 39.2432C39.8519 39.1603 39.9165 39.0327 39.9165 38.8603V38.8305C39.9165 38.456 39.8055 38.166 39.5834 37.9605C39.3614 37.755 39.0415 37.6522 38.6239 37.6522C38.1831 37.6522 37.8334 37.7484 37.5749 37.9406C37.3197 38.1328 37.1473 38.3599 37.0579 38.6217L35.3775 38.3831C35.51 37.9191 35.7288 37.5313 36.0337 37.2197C36.3386 36.9048 36.7115 36.6695 37.1523 36.5138C37.5931 36.3547 38.0803 36.2751 38.614 36.2751C38.9819 36.2751 39.3481 36.3182 39.7127 36.4044C40.0773 36.4905 40.4104 36.6331 40.712 36.8319C41.0136 37.0275 41.2555 37.2943 41.4378 37.6324C41.6234 37.9704 41.7162 38.393 41.7162 38.9001V44.0109H39.9861V42.9619H39.9265C39.8171 43.174 39.663 43.3729 39.4641 43.5585C39.2686 43.7408 39.0216 43.8883 38.7233 44.001C38.4284 44.1103 38.082 44.165 37.6843 44.165ZM38.1516 42.8426C38.5129 42.8426 38.8261 42.7713 39.0912 42.6288C39.3564 42.483 39.5602 42.2907 39.7027 42.0521C39.8486 41.8135 39.9215 41.5533 39.9215 41.2716V40.3717C39.8652 40.4181 39.769 40.4612 39.6331 40.501C39.5006 40.5407 39.3514 40.5755 39.1857 40.6054C39.02 40.6352 38.8559 40.6617 38.6935 40.6849C38.5311 40.7081 38.3902 40.728 38.2709 40.7446C38.0025 40.781 37.7622 40.8407 37.55 40.9236C37.3379 41.0064 37.1705 41.1224 37.0479 41.2716C36.9253 41.4174 36.864 41.6063 36.864 41.8383C36.864 42.1698 36.9849 42.42 37.2269 42.589C37.4688 42.7581 37.7771 42.8426 38.1516 42.8426ZM47.4091 36.3745V37.7666H43.0192V36.3745H47.4091ZM44.103 34.545H45.9027V41.714C45.9027 41.956 45.9392 42.1416 46.0121 42.2709C46.0883 42.3968 46.1878 42.483 46.3104 42.5294C46.433 42.5758 46.5689 42.599 46.7181 42.599C46.8307 42.599 46.9335 42.5907 47.0263 42.5741C47.1224 42.5575 47.1953 42.5426 47.245 42.5294L47.5483 43.9363C47.4522 43.9695 47.3146 44.0059 47.1357 44.0457C46.96 44.0855 46.7446 44.1087 46.4894 44.1153C46.0386 44.1286 45.6326 44.0606 45.2713 43.9115C44.9101 43.759 44.6234 43.5237 44.4112 43.2055C44.2024 42.8873 44.0997 42.4896 44.103 42.0123V34.545ZM48.9843 44.0109V36.3745H50.784V44.0109H48.9843ZM49.8891 35.2907C49.604 35.2907 49.3588 35.1963 49.1533 35.0074C48.9478 34.8151 48.8451 34.5848 48.8451 34.3163C48.8451 34.0445 48.9478 33.8142 49.1533 33.6253C49.3588 33.433 49.604 33.3369 49.8891 33.3369C50.1774 33.3369 50.4227 33.433 50.6249 33.6253C50.8304 33.8142 50.9331 34.0445 50.9331 34.3163C50.9331 34.5848 50.8304 34.8151 50.6249 35.0074C50.4227 35.1963 50.1774 35.2907 49.8891 35.2907ZM58.7402 38.393L57.0995 38.572C57.0531 38.4063 56.9719 38.2505 56.8559 38.1047C56.7432 37.9588 56.5908 37.8412 56.3985 37.7517C56.2063 37.6622 55.971 37.6174 55.6926 37.6174C55.318 37.6174 55.0032 37.6986 54.748 37.8611C54.4961 38.0235 54.3718 38.2339 54.3751 38.4924C54.3718 38.7145 54.453 38.8951 54.6187 39.0343C54.7877 39.1736 55.0662 39.2879 55.4539 39.3774L56.7565 39.6558C57.479 39.8116 58.016 40.0585 58.3673 40.3966C58.7219 40.7346 58.9009 41.1771 58.9042 41.724C58.9009 42.2046 58.76 42.6288 58.4816 42.9967C58.2065 43.3613 57.8237 43.6463 57.3332 43.8518C56.8427 44.0573 56.2792 44.1601 55.6429 44.1601C54.7082 44.1601 53.9558 43.9645 53.3858 43.5734C52.8157 43.179 52.476 42.6305 52.3666 41.9278L54.1216 41.7588C54.2011 42.1035 54.3701 42.3637 54.6287 42.5393C54.8872 42.715 55.2236 42.8028 55.6379 42.8028C56.0654 42.8028 56.4085 42.715 56.667 42.5393C56.9288 42.3637 57.0598 42.1466 57.0598 41.888C57.0598 41.6693 56.9752 41.4887 56.8062 41.3461C56.6405 41.2036 56.382 41.0942 56.0306 41.018L54.7281 40.7446C53.9956 40.5921 53.4537 40.3352 53.1024 39.974C52.751 39.6094 52.577 39.1487 52.5804 38.5919C52.577 38.1212 52.7046 37.7136 52.9632 37.3689C53.225 37.0209 53.5879 36.7524 54.0519 36.5635C54.5193 36.3712 55.0579 36.2751 55.6677 36.2751C56.5626 36.2751 57.2669 36.4657 57.7806 36.8468C58.2977 37.228 58.6175 37.7434 58.7402 38.393ZM64.2714 36.3745V37.7666H59.8815V36.3745H64.2714ZM60.9653 34.545H62.7651V41.714C62.7651 41.956 62.8015 42.1416 62.8744 42.2709C62.9507 42.3968 63.0501 42.483 63.1727 42.5294C63.2954 42.5758 63.4313 42.599 63.5804 42.599C63.6931 42.599 63.7958 42.5907 63.8886 42.5741C63.9848 42.5575 64.0577 42.5426 64.1074 42.5294L64.4107 43.9363C64.3145 43.9695 64.177 44.0059 63.998 44.0457C63.8223 44.0855 63.6069 44.1087 63.3517 44.1153C62.9009 44.1286 62.4949 44.0606 62.1337 43.9115C61.7724 43.759 61.4857 43.5237 61.2736 43.2055C61.0648 42.8873 60.962 42.4896 60.9653 42.0123V34.545ZM65.8466 44.0109V36.3745H67.6463V44.0109H65.8466ZM66.7514 35.2907C66.4664 35.2907 66.2211 35.1963 66.0156 35.0074C65.8101 34.8151 65.7074 34.5848 65.7074 34.3163C65.7074 34.0445 65.8101 33.8142 66.0156 33.6253C66.2211 33.433 66.4664 33.3369 66.7514 33.3369C67.0398 33.3369 67.285 33.433 67.4872 33.6253C67.6927 33.8142 67.7955 34.0445 67.7955 34.3163C67.7955 34.5848 67.6927 34.8151 67.4872 35.0074C67.285 35.1963 67.0398 35.2907 66.7514 35.2907ZM72.898 44.1601C72.1356 44.1601 71.4811 43.9927 70.9342 43.6579C70.3906 43.3232 69.9713 42.8608 69.6764 42.2709C69.3847 41.6776 69.2389 40.9948 69.2389 40.2226C69.2389 39.447 69.388 38.7626 69.6863 38.1693C69.9846 37.5727 70.4055 37.1087 70.9491 36.7772C71.496 36.4425 72.1423 36.2751 72.888 36.2751C73.5078 36.2751 74.0563 36.3895 74.5336 36.6182C75.0142 36.8435 75.397 37.1634 75.682 37.5777C75.9671 37.9887 76.1295 38.4692 76.1693 39.0194H74.4491C74.3795 38.6515 74.2138 38.345 73.9519 38.0997C73.6934 37.8511 73.3471 37.7268 72.9129 37.7268C72.545 37.7268 72.2218 37.8263 71.9434 38.0251C71.665 38.2207 71.4479 38.5024 71.2921 38.8703C71.1397 39.2382 71.0634 39.679 71.0634 40.1927C71.0634 40.7131 71.1397 41.1605 71.2921 41.5351C71.4446 41.9063 71.6584 42.193 71.9335 42.3951C72.2119 42.594 72.5383 42.6934 72.9129 42.6934C73.178 42.6934 73.415 42.6437 73.6238 42.5443C73.8359 42.4415 74.0133 42.2941 74.1558 42.1018C74.2983 41.9096 74.3961 41.6759 74.4491 41.4008H76.1693C76.1262 41.9411 75.9671 42.42 75.692 42.8376C75.4169 43.2519 75.0424 43.5767 74.5684 43.812C74.0945 44.0441 73.5376 44.1601 72.898 44.1601ZM83.7526 38.393L82.112 38.572C82.0656 38.4063 81.9844 38.2505 81.8683 38.1047C81.7557 37.9588 81.6032 37.8412 81.411 37.7517C81.2187 37.6622 80.9834 37.6174 80.705 37.6174C80.3305 37.6174 80.0156 37.6986 79.7604 37.8611C79.5085 38.0235 79.3842 38.2339 79.3875 38.4924C79.3842 38.7145 79.4654 38.8951 79.6311 39.0343C79.8002 39.1736 80.0786 39.2879 80.4664 39.3774L81.7689 39.6558C82.4915 39.8116 83.0284 40.0585 83.3797 40.3966C83.7344 40.7346 83.9133 41.1771 83.9166 41.724C83.9133 42.2046 83.7725 42.6288 83.4941 42.9967C83.219 43.3613 82.8362 43.6463 82.3456 43.8518C81.8551 44.0573 81.2916 44.1601 80.6553 44.1601C79.7206 44.1601 78.9683 43.9645 78.3982 43.5734C77.8281 43.179 77.4884 42.6305 77.379 41.9278L79.134 41.7588C79.2135 42.1035 79.3826 42.3637 79.6411 42.5393C79.8996 42.715 80.236 42.8028 80.6503 42.8028C81.0779 42.8028 81.4209 42.715 81.6794 42.5393C81.9413 42.3637 82.0722 42.1466 82.0722 41.888C82.0722 41.6693 81.9877 41.4887 81.8186 41.3461C81.6529 41.2036 81.3944 41.0942 81.0431 41.018L79.7405 40.7446C79.008 40.5921 78.4661 40.3352 78.1148 39.974C77.7635 39.6094 77.5895 39.1487 77.5928 38.5919C77.5895 38.1212 77.7171 37.7136 77.9756 37.3689C78.2374 37.0209 78.6004 36.7524 79.0644 36.5635C79.5317 36.3712 80.0703 36.2751 80.6801 36.2751C81.575 36.2751 82.2793 36.4657 82.7931 36.8468C83.3101 37.228 83.6299 37.7434 83.7526 38.393Z" fill="#18191F"/>
<mask id="path-5-inside-1_32_6069" fill="white">
<path d="M167.534 175.233C167.534 215.973 134.507 249 93.7671 249C53.0268 249 20.0002 215.973 20.0002 175.233C20.0002 134.493 53.0268 101.466 93.7671 101.466C134.507 101.466 167.534 134.493 167.534 175.233ZM43.1586 175.233C43.1586 203.183 65.8168 225.842 93.7671 225.842C121.717 225.842 144.376 203.183 144.376 175.233C144.376 147.283 121.717 124.625 93.7671 124.625C65.8168 124.625 43.1586 147.283 43.1586 175.233Z"/>
</mask>
<path d="M167.534 175.233C167.534 215.973 134.507 249 93.7671 249C53.0268 249 20.0002 215.973 20.0002 175.233C20.0002 134.493 53.0268 101.466 93.7671 101.466C134.507 101.466 167.534 134.493 167.534 175.233ZM43.1586 175.233C43.1586 203.183 65.8168 225.842 93.7671 225.842C121.717 225.842 144.376 203.183 144.376 175.233C144.376 147.283 121.717 124.625 93.7671 124.625C65.8168 124.625 43.1586 147.283 43.1586 175.233Z" stroke="#EEF1F3" stroke-width="61.0484" mask="url(#path-5-inside-1_32_6069)"/>
<mask id="path-6-inside-2_32_6069" fill="white">
<path d="M130.102 111.036C141.086 117.253 150.291 126.184 156.837 136.975C163.383 147.766 167.051 160.057 167.489 172.671C167.928 185.285 165.122 197.8 159.342 209.02C153.561 220.239 144.998 229.788 134.472 236.753C123.946 243.717 111.809 247.865 99.222 248.798C86.6351 249.731 74.0192 247.42 62.5811 242.084C51.143 236.748 41.2653 228.566 33.8929 218.322C26.5204 208.077 21.8999 196.113 20.4731 183.572L43.483 180.954C44.4619 189.558 47.6319 197.766 52.6898 204.795C57.7478 211.823 64.5244 217.436 72.3716 221.097C80.2188 224.757 88.8741 226.343 97.5095 225.703C106.145 225.063 114.472 222.217 121.693 217.439C128.914 212.661 134.789 206.11 138.755 198.413C142.721 190.715 144.646 182.129 144.345 173.475C144.044 164.821 141.528 156.389 137.037 148.986C132.546 141.582 126.231 135.455 118.695 131.19L130.102 111.036Z"/>
</mask>
<path d="M130.102 111.036C141.086 117.253 150.291 126.184 156.837 136.975C163.383 147.766 167.051 160.057 167.489 172.671C167.928 185.285 165.122 197.8 159.342 209.02C153.561 220.239 144.998 229.788 134.472 236.753C123.946 243.717 111.809 247.865 99.222 248.798C86.6351 249.731 74.0192 247.42 62.5811 242.084C51.143 236.748 41.2653 228.566 33.8929 218.322C26.5204 208.077 21.8999 196.113 20.4731 183.572L43.483 180.954C44.4619 189.558 47.6319 197.766 52.6898 204.795C57.7478 211.823 64.5244 217.436 72.3716 221.097C80.2188 224.757 88.8741 226.343 97.5095 225.703C106.145 225.063 114.472 222.217 121.693 217.439C128.914 212.661 134.789 206.11 138.755 198.413C142.721 190.715 144.646 182.129 144.345 173.475C144.044 164.821 141.528 156.389 137.037 148.986C132.546 141.582 126.231 135.455 118.695 131.19L130.102 111.036Z" stroke="#950FAB" stroke-width="61.0484" mask="url(#path-6-inside-2_32_6069)"/>
<path d="M227.183 186.71C224.696 186.694 222.269 186.262 219.901 185.416C217.532 184.554 215.401 183.158 213.506 181.23C211.612 179.284 210.106 176.704 208.989 173.49C207.873 170.259 207.323 166.258 207.34 161.488C207.34 157.039 207.814 153.072 208.761 149.587C209.708 146.103 211.07 143.159 212.846 140.757C214.623 138.338 216.763 136.494 219.266 135.225C221.787 133.957 224.603 133.322 227.716 133.322C230.981 133.322 233.874 133.965 236.394 135.251C238.932 136.536 240.979 138.296 242.535 140.529C244.091 142.745 245.055 145.248 245.428 148.039H236.166C235.692 146.043 234.719 144.453 233.248 143.269C231.793 142.068 229.949 141.467 227.716 141.467C224.113 141.467 221.339 143.032 219.393 146.162C217.465 149.291 216.492 153.588 216.475 159.052H216.83C217.659 157.563 218.733 156.286 220.053 155.221C221.372 154.155 222.861 153.334 224.519 152.759C226.194 152.167 227.961 151.871 229.822 151.871C232.867 151.871 235.599 152.598 238.018 154.053C240.454 155.508 242.383 157.513 243.804 160.067C245.225 162.605 245.927 165.514 245.91 168.796C245.927 172.213 245.148 175.283 243.575 178.007C242.002 180.714 239.811 182.845 237.003 184.401C234.195 185.958 230.922 186.727 227.183 186.71ZM227.132 179.098C228.976 179.098 230.626 178.65 232.08 177.753C233.535 176.857 234.686 175.647 235.531 174.125C236.377 172.602 236.792 170.894 236.775 168.999C236.792 167.138 236.386 165.455 235.557 163.949C234.745 162.444 233.62 161.251 232.182 160.372C230.744 159.492 229.103 159.052 227.259 159.052C225.889 159.052 224.612 159.314 223.428 159.839C222.244 160.363 221.212 161.091 220.332 162.021C219.452 162.934 218.759 164 218.251 165.218C217.761 166.419 217.507 167.705 217.49 169.075C217.507 170.885 217.93 172.551 218.759 174.074C219.588 175.596 220.73 176.814 222.184 177.728C223.639 178.641 225.289 179.098 227.132 179.098ZM272.91 186.71C269.527 186.71 266.499 186.076 263.826 184.807C261.153 183.522 259.03 181.762 257.457 179.529C255.901 177.296 255.072 174.742 254.97 171.866H264.105C264.275 173.998 265.196 175.74 266.871 177.093C268.546 178.43 270.559 179.098 272.91 179.098C274.754 179.098 276.395 178.675 277.833 177.829C279.271 176.984 280.404 175.808 281.233 174.302C282.062 172.797 282.468 171.08 282.451 169.151C282.468 167.189 282.054 165.447 281.208 163.924C280.362 162.402 279.203 161.209 277.732 160.346C276.26 159.467 274.568 159.027 272.657 159.027C271.1 159.01 269.569 159.297 268.064 159.889C266.558 160.482 265.366 161.26 264.486 162.224L255.985 160.828L258.701 134.033H288.846V141.899H266.491L264.993 155.677H265.298C266.262 154.544 267.624 153.605 269.383 152.861C271.143 152.099 273.071 151.719 275.169 151.719C278.315 151.719 281.123 152.463 283.593 153.952C286.063 155.423 288.008 157.453 289.429 160.042C290.85 162.63 291.561 165.59 291.561 168.923C291.561 172.357 290.766 175.419 289.176 178.108C287.602 180.781 285.412 182.887 282.603 184.427C279.812 185.949 276.581 186.71 272.91 186.71ZM328.204 176.256V173.516C328.204 171.503 328.627 169.65 329.473 167.959C330.335 166.267 331.587 164.905 333.228 163.873C334.869 162.841 336.857 162.325 339.191 162.325C341.593 162.325 343.606 162.841 345.23 163.873C346.854 164.888 348.081 166.242 348.91 167.933C349.755 169.625 350.178 171.486 350.178 173.516V176.256C350.178 178.269 349.755 180.122 348.91 181.813C348.064 183.505 346.82 184.867 345.18 185.899C343.556 186.93 341.559 187.446 339.191 187.446C336.823 187.446 334.818 186.93 333.177 185.899C331.536 184.867 330.293 183.505 329.447 181.813C328.618 180.122 328.204 178.269 328.204 176.256ZM334.827 173.516V176.256C334.827 177.593 335.148 178.819 335.791 179.935C336.434 181.052 337.567 181.61 339.191 181.61C340.832 181.61 341.957 181.06 342.566 179.961C343.192 178.844 343.505 177.609 343.505 176.256V173.516C343.505 172.162 343.209 170.927 342.617 169.811C342.025 168.678 340.883 168.111 339.191 168.111C337.601 168.111 336.476 168.678 335.816 169.811C335.157 170.927 334.827 172.162 334.827 173.516ZM301.789 146.517V143.777C301.789 141.747 302.22 139.886 303.083 138.194C303.946 136.502 305.197 135.149 306.838 134.134C308.479 133.102 310.467 132.586 312.801 132.586C315.187 132.586 317.191 133.102 318.815 134.134C320.456 135.149 321.691 136.502 322.52 138.194C323.349 139.886 323.763 141.747 323.763 143.777V146.517C323.763 148.547 323.34 150.408 322.495 152.099C321.666 153.774 320.431 155.119 318.79 156.134C317.149 157.149 315.153 157.656 312.801 157.656C310.416 157.656 308.403 157.149 306.762 156.134C305.138 155.119 303.903 153.766 303.058 152.074C302.212 150.382 301.789 148.53 301.789 146.517ZM308.462 143.777V146.517C308.462 147.87 308.775 149.105 309.401 150.222C310.044 151.321 311.177 151.871 312.801 151.871C314.425 151.871 315.542 151.321 316.151 150.222C316.777 149.105 317.09 147.87 317.09 146.517V143.777C317.09 142.423 316.794 141.188 316.202 140.072C315.61 138.938 314.476 138.372 312.801 138.372C311.194 138.372 310.069 138.938 309.427 140.072C308.784 141.205 308.462 142.44 308.462 143.777ZM304.682 186L340.409 134.033H346.753L311.025 186H304.682Z" fill="#0C0A40"/>
<path d="M217.066 212.942C216.99 212.233 216.67 211.681 216.107 211.285C215.55 210.89 214.825 210.693 213.931 210.693C213.303 210.693 212.765 210.787 212.315 210.977C211.866 211.166 211.522 211.424 211.284 211.748C211.046 212.073 210.924 212.444 210.919 212.861C210.919 213.207 210.997 213.508 211.154 213.762C211.317 214.016 211.536 214.233 211.812 214.412C212.088 214.585 212.394 214.731 212.73 214.85C213.065 214.969 213.404 215.069 213.745 215.151L215.304 215.54C215.932 215.686 216.535 215.884 217.114 216.133C217.699 216.382 218.221 216.696 218.681 217.075C219.147 217.454 219.515 217.911 219.786 218.447C220.056 218.983 220.192 219.611 220.192 220.331C220.192 221.305 219.943 222.163 219.445 222.905C218.947 223.641 218.227 224.218 217.285 224.635C216.348 225.046 215.214 225.252 213.883 225.252C212.589 225.252 211.466 225.051 210.513 224.651C209.566 224.25 208.824 223.666 208.288 222.897C207.757 222.128 207.471 221.192 207.427 220.087H210.391C210.434 220.667 210.613 221.148 210.927 221.533C211.241 221.917 211.65 222.204 212.153 222.394C212.662 222.583 213.23 222.678 213.858 222.678C214.513 222.678 215.087 222.58 215.58 222.385C216.078 222.185 216.467 221.909 216.749 221.557C217.03 221.2 217.174 220.783 217.179 220.307C217.174 219.874 217.047 219.516 216.798 219.235C216.549 218.948 216.199 218.71 215.75 218.52C215.306 218.325 214.787 218.152 214.191 218.001L212.299 217.513C210.93 217.162 209.847 216.628 209.051 215.914C208.261 215.194 207.866 214.238 207.866 213.048C207.866 212.068 208.131 211.21 208.662 210.473C209.197 209.737 209.926 209.166 210.846 208.76C211.766 208.349 212.808 208.143 213.972 208.143C215.152 208.143 216.186 208.349 217.074 208.76C217.967 209.166 218.668 209.732 219.177 210.457C219.686 211.177 219.948 212.005 219.964 212.942H217.066ZM224.859 225H221.644L227.498 208.37H231.217L237.08 225H233.864L229.423 211.781H229.293L224.859 225ZM224.965 218.48H233.734V220.899H224.965V218.48ZM239.711 208.37L244.039 221.46H244.21L248.529 208.37H251.842L245.98 225H242.261L236.406 208.37H239.711ZM254.147 225V208.37H264.963V210.896H257.16V215.41H264.403V217.936H257.16V222.475H265.028V225H254.147ZM273.786 225H268.15V208.37H273.899C275.55 208.37 276.969 208.703 278.154 209.369C279.345 210.03 280.26 210.98 280.899 212.219C281.538 213.459 281.857 214.942 281.857 216.669C281.857 218.401 281.535 219.89 280.891 221.135C280.252 222.38 279.329 223.335 278.122 224.001C276.92 224.667 275.475 225 273.786 225ZM271.163 222.394H273.64C274.798 222.394 275.764 222.182 276.538 221.76C277.312 221.333 277.894 220.696 278.284 219.852C278.674 219.002 278.869 217.941 278.869 216.669C278.869 215.397 278.674 214.341 278.284 213.502C277.894 212.658 277.318 212.027 276.555 211.61C275.797 211.188 274.855 210.977 273.729 210.977H271.163V222.394Z" fill="#950FAB"/>
<rect width="431.589" height="148.627" transform="translate(0.000244141 270.817)" fill="white"/>
<path d="M20.6314 304.547V303.214H28.5707V304.547H25.3699V313.473H23.8271V304.547H20.6314ZM32.4005 313.628C31.6792 313.628 31.0497 313.463 30.5121 313.132C29.9744 312.802 29.557 312.339 29.2598 311.745C28.9626 311.15 28.814 310.456 28.814 309.661C28.814 308.863 28.9626 308.165 29.2598 307.567C29.557 306.97 29.9744 306.505 30.5121 306.175C31.0497 305.844 31.6792 305.679 32.4005 305.679C33.1218 305.679 33.7513 305.844 34.2889 306.175C34.8265 306.505 35.2439 306.97 35.5411 307.567C35.8384 308.165 35.987 308.863 35.987 309.661C35.987 310.456 35.8384 311.15 35.5411 311.745C35.2439 312.339 34.8265 312.802 34.2889 313.132C33.7513 313.463 33.1218 313.628 32.4005 313.628ZM32.4055 312.371C32.873 312.371 33.2604 312.247 33.5676 312C33.8748 311.753 34.1019 311.424 34.2488 311.014C34.3991 310.603 34.4742 310.15 34.4742 309.656C34.4742 309.165 34.3991 308.714 34.2488 308.304C34.1019 307.89 33.8748 307.557 33.5676 307.307C33.2604 307.056 32.873 306.931 32.4055 306.931C31.9346 306.931 31.5439 307.056 31.2334 307.307C30.9262 307.557 30.6974 307.89 30.5471 308.304C30.4002 308.714 30.3267 309.165 30.3267 309.656C30.3267 310.15 30.4002 310.603 30.5471 311.014C30.6974 311.424 30.9262 311.753 31.2334 312C31.5439 312.247 31.9346 312.371 32.4055 312.371ZM41.3207 305.779V306.981H37.1181V305.779H41.3207ZM38.2452 303.936H39.7429V311.214C39.7429 311.504 39.7863 311.723 39.8731 311.87C39.9599 312.014 40.0718 312.112 40.2087 312.166C40.349 312.216 40.5009 312.241 40.6645 312.241C40.7848 312.241 40.8899 312.232 40.9801 312.216C41.0703 312.199 41.1404 312.186 41.1905 312.176L41.461 313.413C41.3741 313.446 41.2506 313.48 41.0903 313.513C40.93 313.55 40.7297 313.57 40.4892 313.573C40.0952 313.58 39.7278 313.51 39.3872 313.363C39.0466 313.216 38.7711 312.989 38.5607 312.682C38.3504 312.374 38.2452 311.989 38.2452 311.524V303.936ZM45.287 313.643C44.7995 313.643 44.3587 313.553 43.9646 313.373C43.5706 313.189 43.2584 312.924 43.0279 312.576C42.8009 312.229 42.6873 311.803 42.6873 311.299C42.6873 310.865 42.7708 310.508 42.9378 310.227C43.1048 309.947 43.3302 309.725 43.614 309.561C43.8978 309.397 44.2151 309.274 44.5657 309.19C44.9163 309.107 45.2737 309.043 45.6376 309C46.0985 308.946 46.4725 308.903 46.7597 308.87C47.0469 308.833 47.2556 308.775 47.3858 308.694C47.516 308.614 47.5812 308.484 47.5812 308.304V308.269C47.5812 307.831 47.4576 307.492 47.2105 307.252C46.9667 307.011 46.6027 306.891 46.1185 306.891C45.6143 306.891 45.2169 307.003 44.9264 307.227C44.6392 307.447 44.4405 307.693 44.3303 307.963L42.9228 307.642C43.0897 307.175 43.3335 306.798 43.6541 306.51C43.978 306.22 44.3503 306.01 44.7711 305.879C45.1918 305.746 45.6343 305.679 46.0985 305.679C46.4057 305.679 46.7313 305.716 47.0752 305.789C47.4225 305.859 47.7465 305.989 48.047 306.18C48.3509 306.37 48.5997 306.642 48.7933 306.996C48.987 307.347 49.0839 307.803 49.0839 308.364V313.473H47.6212V312.421H47.5611C47.4643 312.615 47.319 312.805 47.1253 312.992C46.9316 313.179 46.6829 313.334 46.379 313.458C46.0751 313.582 45.7111 313.643 45.287 313.643ZM45.6126 312.441C46.0267 312.441 46.3807 312.359 46.6745 312.196C46.9717 312.032 47.1971 311.818 47.3507 311.555C47.5077 311.287 47.5862 311.002 47.5862 310.698V309.706C47.5327 309.76 47.4292 309.81 47.2756 309.856C47.1253 309.9 46.9534 309.938 46.7597 309.972C46.566 310.002 46.3773 310.03 46.1937 310.057C46.01 310.08 45.8564 310.1 45.7328 310.117C45.4423 310.154 45.1768 310.215 44.9364 310.302C44.6993 310.389 44.5089 310.514 44.3654 310.678C44.2251 310.838 44.155 311.052 44.155 311.319C44.155 311.69 44.2919 311.97 44.5657 312.161C44.8395 312.348 45.1885 312.441 45.6126 312.441ZM52.6469 303.214V313.473H51.1492V303.214H52.6469ZM58.1502 304.547V303.214H66.0895V304.547H62.8887V313.473H61.3459V304.547H58.1502ZM68.9863 313.643C68.4988 313.643 68.058 313.553 67.664 313.373C67.2699 313.189 66.9577 312.924 66.7273 312.576C66.5002 312.229 66.3867 311.803 66.3867 311.299C66.3867 310.865 66.4701 310.508 66.6371 310.227C66.8041 309.947 67.0295 309.725 67.3133 309.561C67.5972 309.397 67.9144 309.274 68.265 309.19C68.6157 309.107 68.973 309.043 69.337 309C69.7978 308.946 70.1718 308.903 70.459 308.87C70.7462 308.833 70.9549 308.775 71.0851 308.694C71.2154 308.614 71.2805 308.484 71.2805 308.304V308.269C71.2805 307.831 71.1569 307.492 70.9098 307.252C70.666 307.011 70.302 306.891 69.8178 306.891C69.3136 306.891 68.9162 307.003 68.6257 307.227C68.3385 307.447 68.1398 307.693 68.0296 307.963L66.6221 307.642C66.789 307.175 67.0328 306.798 67.3534 306.51C67.6773 306.22 68.0496 306.01 68.4704 305.879C68.8912 305.746 69.3336 305.679 69.7978 305.679C70.105 305.679 70.4306 305.716 70.7746 305.789C71.1219 305.859 71.4458 305.989 71.7463 306.18C72.0502 306.37 72.299 306.642 72.4927 306.996C72.6863 307.347 72.7832 307.803 72.7832 308.364V313.473H71.3205V312.421H71.2604C71.1636 312.615 71.0183 312.805 70.8247 312.992C70.631 313.179 70.3822 313.334 70.0783 313.458C69.7744 313.582 69.4104 313.643 68.9863 313.643ZM69.3119 312.441C69.726 312.441 70.08 312.359 70.3738 312.196C70.671 312.032 70.8964 311.818 71.0501 311.555C71.207 311.287 71.2855 311.002 71.2855 310.698V309.706C71.2321 309.76 71.1285 309.81 70.9749 309.856C70.8247 309.9 70.6527 309.938 70.459 309.972C70.2653 310.002 70.0766 310.03 69.893 310.057C69.7093 310.08 69.5557 310.1 69.4321 310.117C69.1416 310.154 68.8761 310.215 68.6357 310.302C68.3986 310.389 68.2083 310.514 68.0647 310.678C67.9244 310.838 67.8543 311.052 67.8543 311.319C67.8543 311.69 67.9912 311.97 68.265 312.161C68.5389 312.348 68.8878 312.441 69.3119 312.441ZM74.8486 313.473V305.779H76.2962V307.001H76.3763C76.5166 306.587 76.7637 306.262 77.1176 306.025C77.475 305.784 77.879 305.664 78.3298 305.664C78.4233 305.664 78.5335 305.667 78.6604 305.674C78.7907 305.681 78.8925 305.689 78.966 305.699V307.132C78.9059 307.115 78.799 307.096 78.6454 307.076C78.4918 307.053 78.3382 307.041 78.1846 307.041C77.8306 307.041 77.515 307.117 77.2379 307.267C76.964 307.414 76.747 307.619 76.5867 307.883C76.4264 308.143 76.3463 308.441 76.3463 308.775V313.473H74.8486ZM83.2829 316.518C82.6718 316.518 82.1459 316.438 81.7051 316.278C81.2676 316.118 80.9103 315.906 80.6331 315.642C80.356 315.378 80.1489 315.089 80.012 314.775L81.2993 314.244C81.3895 314.391 81.5097 314.547 81.66 314.71C81.8136 314.877 82.0206 315.019 82.2811 315.136C82.5449 315.253 82.8839 315.311 83.2979 315.311C83.8656 315.311 84.3348 315.173 84.7055 314.896C85.0761 314.622 85.2615 314.184 85.2615 313.583V312.07H85.1663C85.0761 312.234 84.9459 312.416 84.7756 312.616C84.6086 312.817 84.3782 312.99 84.0844 313.137C83.7905 313.284 83.4081 313.358 82.9373 313.358C82.3295 313.358 81.7819 313.216 81.2943 312.932C80.8101 312.645 80.4261 312.222 80.1422 311.665C79.8617 311.104 79.7215 310.414 79.7215 309.596C79.7215 308.778 79.8601 308.077 80.1372 307.492C80.4177 306.908 80.8018 306.46 81.2893 306.15C81.7769 305.836 82.3295 305.679 82.9473 305.679C83.4248 305.679 83.8105 305.759 84.1044 305.919C84.3983 306.076 84.627 306.26 84.7906 306.47C84.9576 306.681 85.0862 306.866 85.1763 307.026H85.2865V305.779H86.7542V313.643C86.7542 314.304 86.6006 314.847 86.2933 315.271C85.9861 315.695 85.5704 316.009 85.0461 316.213C84.5251 316.417 83.9374 316.518 83.2829 316.518ZM83.2679 312.116C83.6987 312.116 84.0626 312.015 84.3598 311.815C84.6604 311.611 84.8875 311.321 85.0411 310.943C85.198 310.563 85.2765 310.107 85.2765 309.576C85.2765 309.058 85.1997 308.603 85.0461 308.208C84.8925 307.814 84.6671 307.507 84.3699 307.287C84.0727 307.063 83.7053 306.951 83.2679 306.951C82.8171 306.951 82.4414 307.068 82.1408 307.302C81.8403 307.532 81.6132 307.846 81.4596 308.244C81.3093 308.641 81.2342 309.085 81.2342 309.576C81.2342 310.08 81.311 310.523 81.4646 310.903C81.6182 311.284 81.8453 311.581 82.1459 311.795C82.4497 312.009 82.8237 312.116 83.2679 312.116ZM92.1493 313.628C91.3913 313.628 90.7384 313.466 90.1908 313.142C89.6464 312.815 89.2257 312.356 88.9285 311.765C88.6346 311.17 88.4877 310.474 88.4877 309.676C88.4877 308.888 88.6346 308.193 88.9285 307.592C89.2257 306.991 89.6398 306.522 90.1707 306.185C90.705 305.848 91.3295 305.679 92.0441 305.679C92.4782 305.679 92.899 305.751 93.3064 305.894C93.7138 306.038 94.0794 306.263 94.4033 306.571C94.7273 306.878 94.9827 307.277 95.1697 307.768C95.3567 308.255 95.4502 308.848 95.4502 309.546V310.077H89.3342V308.955H93.9826C93.9826 308.561 93.9024 308.212 93.7422 307.908C93.5819 307.601 93.3565 307.359 93.0659 307.182C92.7788 307.005 92.4415 306.916 92.0541 306.916C91.6334 306.916 91.266 307.02 90.9521 307.227C90.6416 307.43 90.4011 307.698 90.2308 308.028C90.0639 308.355 89.9804 308.711 89.9804 309.095V309.972C89.9804 310.486 90.0705 310.923 90.2509 311.284C90.4345 311.645 90.69 311.92 91.0172 312.111C91.3445 312.298 91.7269 312.391 92.1643 312.391C92.4482 312.391 92.707 312.351 92.9407 312.271C93.1745 312.187 93.3765 312.064 93.5468 311.9C93.7171 311.737 93.8473 311.534 93.9375 311.294L95.3551 311.55C95.2415 311.967 95.0378 312.333 94.744 312.646C94.4534 312.957 94.0878 313.199 93.647 313.373C93.2095 313.543 92.7103 313.628 92.1493 313.628ZM100.774 305.779V306.981H96.5714V305.779H100.774ZM97.6984 303.936H99.1961V311.214C99.1961 311.504 99.2396 311.723 99.3264 311.87C99.4132 312.014 99.5251 312.112 99.662 312.166C99.8022 312.216 99.9542 312.241 100.118 312.241C100.238 312.241 100.343 312.232 100.433 312.216C100.524 312.199 100.594 312.186 100.644 312.176L100.914 313.413C100.827 313.446 100.704 313.48 100.544 313.513C100.383 313.55 100.183 313.57 99.9425 313.573C99.5484 313.58 99.1811 313.51 98.8405 313.363C98.4999 313.216 98.2244 312.989 98.014 312.682C97.8036 312.374 97.6984 311.989 97.6984 311.524V303.936ZM107.292 313.473H105.649L109.34 303.214H111.128L114.82 313.473H113.177L110.277 305.078H110.197L107.292 313.473ZM107.567 309.456H112.897V310.758H107.567V309.456ZM116.252 313.473V305.779H117.689V307.031H117.785C117.945 306.607 118.207 306.277 118.571 306.04C118.935 305.799 119.371 305.679 119.878 305.679C120.393 305.679 120.823 305.799 121.171 306.04C121.521 306.28 121.78 306.611 121.947 307.031H122.027C122.211 306.621 122.503 306.293 122.904 306.05C123.305 305.802 123.782 305.679 124.336 305.679C125.034 305.679 125.604 305.898 126.044 306.335C126.489 306.773 126.711 307.432 126.711 308.314V313.473H125.213V308.454C125.213 307.933 125.071 307.556 124.787 307.322C124.503 307.088 124.164 306.971 123.77 306.971C123.283 306.971 122.904 307.122 122.633 307.422C122.363 307.719 122.228 308.102 122.228 308.569V313.473H120.735V308.359C120.735 307.941 120.605 307.606 120.344 307.352C120.084 307.098 119.745 306.971 119.327 306.971C119.044 306.971 118.781 307.046 118.541 307.197C118.304 307.344 118.112 307.549 117.965 307.813C117.821 308.077 117.75 308.382 117.75 308.729V313.473H116.252ZM132.029 313.628C131.308 313.628 130.679 313.463 130.141 313.132C129.603 312.802 129.186 312.339 128.889 311.745C128.592 311.15 128.443 310.456 128.443 309.661C128.443 308.863 128.592 308.165 128.889 307.567C129.186 306.97 129.603 306.505 130.141 306.175C130.679 305.844 131.308 305.679 132.029 305.679C132.751 305.679 133.38 305.844 133.918 306.175C134.455 306.505 134.873 306.97 135.17 307.567C135.467 308.165 135.616 308.863 135.616 309.661C135.616 310.456 135.467 311.15 135.17 311.745C134.873 312.339 134.455 312.802 133.918 313.132C133.38 313.463 132.751 313.628 132.029 313.628ZM132.034 312.371C132.502 312.371 132.889 312.247 133.197 312C133.504 311.753 133.731 311.424 133.878 311.014C134.028 310.603 134.103 310.15 134.103 309.656C134.103 309.165 134.028 308.714 133.878 308.304C133.731 307.89 133.504 307.557 133.197 307.307C132.889 307.056 132.502 306.931 132.034 306.931C131.564 306.931 131.173 307.056 130.862 307.307C130.555 307.557 130.326 307.89 130.176 308.304C130.029 308.714 129.956 309.165 129.956 309.656C129.956 310.15 130.029 310.603 130.176 311.014C130.326 311.424 130.555 311.753 130.862 312C131.173 312.247 131.564 312.371 132.034 312.371ZM142.232 310.282V305.779H143.735V313.473H142.262V312.141H142.182C142.005 312.551 141.721 312.894 141.33 313.167C140.943 313.438 140.46 313.573 139.883 313.573C139.389 313.573 138.951 313.465 138.57 313.248C138.193 313.027 137.896 312.702 137.679 312.271C137.465 311.84 137.358 311.307 137.358 310.673V305.779H138.856V310.493C138.856 311.017 139.001 311.434 139.292 311.745C139.582 312.055 139.96 312.211 140.424 312.211C140.704 312.211 140.983 312.141 141.26 312C141.541 311.86 141.773 311.648 141.956 311.364C142.143 311.08 142.235 310.72 142.232 310.282ZM147.315 308.905V313.473H145.818V305.779H147.255V307.031H147.35C147.527 306.624 147.804 306.297 148.182 306.05C148.563 305.802 149.042 305.679 149.619 305.679C150.144 305.679 150.603 305.789 150.997 306.01C151.391 306.227 151.697 306.55 151.914 306.981C152.131 307.412 152.239 307.945 152.239 308.579V313.473H150.741V308.759C150.741 308.202 150.596 307.766 150.306 307.452C150.015 307.135 149.616 306.976 149.109 306.976C148.761 306.976 148.452 307.051 148.182 307.202C147.915 307.352 147.703 307.572 147.546 307.863C147.392 308.15 147.315 308.497 147.315 308.905ZM157.91 305.779V306.981H153.707V305.779H157.91ZM154.834 303.936H156.332V311.214C156.332 311.504 156.375 311.723 156.462 311.87C156.549 312.014 156.661 312.112 156.798 312.166C156.938 312.216 157.09 312.241 157.254 312.241C157.374 312.241 157.479 312.232 157.569 312.216C157.659 312.199 157.729 312.186 157.78 312.176L158.05 313.413C157.963 313.446 157.84 313.48 157.679 313.513C157.519 313.55 157.319 313.57 157.078 313.573C156.684 313.58 156.317 313.51 155.976 313.363C155.636 313.216 155.36 312.989 155.15 312.682C154.939 312.374 154.834 311.989 154.834 311.524V303.936Z" fill="#11142D"/>
<path opacity="0.5" d="M358.641 314.746V302.018H359.457V314.746H358.641ZM361.386 305.837C361.326 305.333 361.084 304.942 360.66 304.663C360.236 304.385 359.715 304.246 359.099 304.246C358.648 304.246 358.254 304.319 357.915 304.464C357.581 304.61 357.319 304.811 357.13 305.066C356.944 305.321 356.852 305.611 356.852 305.936C356.852 306.208 356.916 306.441 357.045 306.637C357.178 306.829 357.347 306.99 357.553 307.119C357.758 307.245 357.973 307.35 358.199 307.432C358.424 307.512 358.631 307.577 358.82 307.626L359.854 307.905C360.12 307.974 360.414 308.071 360.739 308.193C361.067 308.316 361.381 308.483 361.679 308.695C361.981 308.904 362.229 309.173 362.425 309.501C362.62 309.829 362.718 310.231 362.718 310.709C362.718 311.259 362.574 311.756 362.285 312.2C362 312.644 361.583 312.997 361.033 313.259C360.486 313.521 359.821 313.652 359.039 313.652C358.31 313.652 357.678 313.534 357.145 313.299C356.615 313.064 356.197 312.736 355.892 312.315C355.59 311.894 355.42 311.405 355.38 310.848H356.653C356.686 311.232 356.815 311.551 357.04 311.803C357.269 312.051 357.557 312.237 357.905 312.359C358.257 312.479 358.635 312.538 359.039 312.538C359.51 312.538 359.932 312.462 360.307 312.31C360.681 312.154 360.978 311.938 361.197 311.663C361.415 311.385 361.525 311.06 361.525 310.689C361.525 310.351 361.43 310.076 361.241 309.864C361.053 309.651 360.804 309.479 360.496 309.347C360.187 309.214 359.854 309.098 359.496 308.999L358.244 308.641C357.448 308.412 356.818 308.085 356.354 307.661C355.89 307.237 355.658 306.682 355.658 305.996C355.658 305.426 355.812 304.928 356.121 304.504C356.432 304.077 356.85 303.745 357.374 303.51C357.901 303.271 358.489 303.152 359.138 303.152C359.795 303.152 360.378 303.27 360.888 303.505C361.399 303.737 361.803 304.055 362.102 304.459C362.403 304.864 362.562 305.323 362.579 305.837H361.386ZM367.818 313.612C367.235 313.612 366.709 313.496 366.242 313.264C365.775 313.032 365.4 312.714 365.118 312.31C364.837 311.905 364.683 311.445 364.656 310.928H365.849C365.896 311.388 366.104 311.769 366.476 312.071C366.85 312.369 367.298 312.518 367.818 312.518C368.236 312.518 368.607 312.421 368.932 312.225C369.26 312.03 369.517 311.761 369.702 311.42C369.891 311.075 369.986 310.686 369.986 310.251C369.986 309.807 369.888 309.411 369.692 309.063C369.5 308.712 369.235 308.435 368.897 308.233C368.559 308.031 368.173 307.928 367.738 307.925C367.427 307.921 367.107 307.969 366.779 308.069C366.451 308.165 366.181 308.289 365.969 308.442L364.815 308.303L365.432 303.291H370.721V304.385H366.466L366.108 307.388H366.167C366.376 307.222 366.638 307.084 366.953 306.975C367.268 306.866 367.596 306.811 367.937 306.811C368.56 306.811 369.116 306.96 369.603 307.258C370.093 307.553 370.478 307.958 370.756 308.472C371.038 308.985 371.179 309.572 371.179 310.231C371.179 310.881 371.033 311.461 370.741 311.972C370.453 312.479 370.055 312.88 369.548 313.175C369.041 313.466 368.464 313.612 367.818 313.612ZM376.545 313.612C375.796 313.612 375.158 313.408 374.631 313.001C374.104 312.59 373.701 311.995 373.423 311.216C373.144 310.434 373.005 309.489 373.005 308.382C373.005 307.282 373.144 306.342 373.423 305.563C373.704 304.781 374.109 304.184 374.636 303.773C375.166 303.359 375.802 303.152 376.545 303.152C377.287 303.152 377.922 303.359 378.449 303.773C378.979 304.184 379.384 304.781 379.662 305.563C379.944 306.342 380.085 307.282 380.085 308.382C380.085 309.489 379.945 310.434 379.667 311.216C379.389 311.995 378.986 312.59 378.459 313.001C377.932 313.408 377.294 313.612 376.545 313.612ZM376.545 312.518C377.287 312.518 377.864 312.16 378.275 311.445C378.686 310.729 378.891 309.708 378.891 308.382C378.891 307.5 378.797 306.75 378.608 306.13C378.422 305.51 378.154 305.038 377.803 304.713C377.455 304.388 377.035 304.226 376.545 304.226C375.809 304.226 375.234 304.589 374.82 305.315C374.405 306.037 374.198 307.06 374.198 308.382C374.198 309.264 374.291 310.013 374.477 310.629C374.662 311.246 374.929 311.715 375.277 312.036C375.628 312.358 376.051 312.518 376.545 312.518ZM383.458 312.081L383.379 312.618C383.322 312.996 383.236 313.4 383.12 313.831C383.007 314.262 382.89 314.668 382.767 315.049C382.644 315.43 382.543 315.733 382.464 315.959H381.569C381.612 315.747 381.668 315.467 381.738 315.119C381.808 314.771 381.877 314.381 381.947 313.95C382.02 313.523 382.079 313.085 382.126 312.638L382.185 312.081H383.458ZM388.648 313.612C387.899 313.612 387.261 313.408 386.734 313.001C386.207 312.59 385.804 311.995 385.526 311.216C385.247 310.434 385.108 309.489 385.108 308.382C385.108 307.282 385.247 306.342 385.526 305.563C385.807 304.781 386.212 304.184 386.739 303.773C387.269 303.359 387.905 303.152 388.648 303.152C389.39 303.152 390.025 303.359 390.552 303.773C391.082 304.184 391.486 304.781 391.765 305.563C392.047 306.342 392.187 307.282 392.187 308.382C392.187 309.489 392.048 310.434 391.77 311.216C391.491 311.995 391.089 312.59 390.562 313.001C390.035 313.408 389.397 313.612 388.648 313.612ZM388.648 312.518C389.39 312.518 389.967 312.16 390.378 311.445C390.789 310.729 390.994 309.708 390.994 308.382C390.994 307.5 390.9 306.75 390.711 306.13C390.525 305.51 390.257 305.038 389.905 304.713C389.557 304.388 389.138 304.226 388.648 304.226C387.912 304.226 387.337 304.589 386.923 305.315C386.508 306.037 386.301 307.06 386.301 308.382C386.301 309.264 386.394 310.013 386.579 310.629C386.765 311.246 387.032 311.715 387.38 312.036C387.731 312.358 388.154 312.518 388.648 312.518ZM397.468 313.612C396.719 313.612 396.081 313.408 395.554 313.001C395.027 312.59 394.624 311.995 394.346 311.216C394.067 310.434 393.928 309.489 393.928 308.382C393.928 307.282 394.067 306.342 394.346 305.563C394.627 304.781 395.032 304.184 395.559 303.773C396.089 303.359 396.725 303.152 397.468 303.152C398.21 303.152 398.845 303.359 399.372 303.773C399.902 304.184 400.306 304.781 400.585 305.563C400.867 306.342 401.007 307.282 401.007 308.382C401.007 309.489 400.868 310.434 400.59 311.216C400.311 311.995 399.909 312.59 399.382 313.001C398.855 313.408 398.217 313.612 397.468 313.612ZM397.468 312.518C398.21 312.518 398.787 312.16 399.198 311.445C399.609 310.729 399.814 309.708 399.814 308.382C399.814 307.5 399.72 306.75 399.531 306.13C399.345 305.51 399.077 305.038 398.725 304.713C398.377 304.388 397.958 304.226 397.468 304.226C396.732 304.226 396.157 304.589 395.743 305.315C395.328 306.037 395.121 307.06 395.121 308.382C395.121 309.264 395.214 310.013 395.399 310.629C395.585 311.246 395.852 311.715 396.2 312.036C396.551 312.358 396.974 312.518 397.468 312.518ZM406.288 313.612C405.539 313.612 404.901 313.408 404.374 313.001C403.847 312.59 403.444 311.995 403.166 311.216C402.887 310.434 402.748 309.489 402.748 308.382C402.748 307.282 402.887 306.342 403.166 305.563C403.447 304.781 403.852 304.184 404.379 303.773C404.909 303.359 405.545 303.152 406.288 303.152C407.03 303.152 407.665 303.359 408.192 303.773C408.722 304.184 409.126 304.781 409.405 305.563C409.687 306.342 409.827 307.282 409.827 308.382C409.827 309.489 409.688 310.434 409.41 311.216C409.131 311.995 408.729 312.59 408.202 313.001C407.675 313.408 407.037 313.612 406.288 313.612ZM406.288 312.518C407.03 312.518 407.607 312.16 408.018 311.445C408.429 310.729 408.634 309.708 408.634 308.382C408.634 307.5 408.54 306.75 408.351 306.13C408.165 305.51 407.897 305.038 407.545 304.713C407.197 304.388 406.778 304.226 406.288 304.226C405.552 304.226 404.977 304.589 404.563 305.315C404.148 306.037 403.941 307.06 403.941 308.382C403.941 309.264 404.034 310.013 404.219 310.629C404.405 311.246 404.672 311.715 405.02 312.036C405.371 312.358 405.794 312.518 406.288 312.518Z" fill="#11142D"/>
<line opacity="0.05" x1="31.436" y1="344.416" x2="400.145" y2="344.416" stroke="black" stroke-width="1.4291"/>
<path d="M20.6314 378.86V377.528H28.5707V378.86H25.3699V387.786H23.8271V378.86H20.6314ZM32.4005 387.942C31.6792 387.942 31.0497 387.776 30.5121 387.446C29.9744 387.115 29.557 386.653 29.2598 386.058C28.9626 385.464 28.814 384.769 28.814 383.974C28.814 383.176 28.9626 382.478 29.2598 381.881C29.557 381.283 29.9744 380.819 30.5121 380.488C31.0497 380.158 31.6792 379.992 32.4005 379.992C33.1218 379.992 33.7513 380.158 34.2889 380.488C34.8265 380.819 35.2439 381.283 35.5411 381.881C35.8384 382.478 35.987 383.176 35.987 383.974C35.987 384.769 35.8384 385.464 35.5411 386.058C35.2439 386.653 34.8265 387.115 34.2889 387.446C33.7513 387.776 33.1218 387.942 32.4005 387.942ZM32.4055 386.684C32.873 386.684 33.2604 386.561 33.5676 386.314C33.8748 386.066 34.1019 385.738 34.2488 385.327C34.3991 384.916 34.4742 384.464 34.4742 383.969C34.4742 383.478 34.3991 383.028 34.2488 382.617C34.1019 382.203 33.8748 381.871 33.5676 381.62C33.2604 381.37 32.873 381.244 32.4055 381.244C31.9346 381.244 31.5439 381.37 31.2334 381.62C30.9262 381.871 30.6974 382.203 30.5471 382.617C30.4002 383.028 30.3267 383.478 30.3267 383.969C30.3267 384.464 30.4002 384.916 30.5471 385.327C30.6974 385.738 30.9262 386.066 31.2334 386.314C31.5439 386.561 31.9346 386.684 32.4055 386.684ZM41.3207 380.092V381.295H37.1181V380.092H41.3207ZM38.2452 378.249H39.7429V385.527C39.7429 385.818 39.7863 386.036 39.8731 386.183C39.9599 386.327 40.0718 386.425 40.2087 386.479C40.349 386.529 40.5009 386.554 40.6645 386.554C40.7848 386.554 40.8899 386.546 40.9801 386.529C41.0703 386.512 41.1404 386.499 41.1905 386.489L41.461 387.726C41.3741 387.76 41.2506 387.793 41.0903 387.826C40.93 387.863 40.7297 387.883 40.4892 387.886C40.0952 387.893 39.7278 387.823 39.3872 387.676C39.0466 387.529 38.7711 387.302 38.5607 386.995C38.3504 386.688 38.2452 386.302 38.2452 385.838V378.249ZM45.287 387.957C44.7995 387.957 44.3587 387.866 43.9646 387.686C43.5706 387.502 43.2584 387.237 43.0279 386.89C42.8009 386.542 42.6873 386.117 42.6873 385.612C42.6873 385.178 42.7708 384.821 42.9378 384.54C43.1048 384.26 43.3302 384.038 43.614 383.874C43.8978 383.711 44.2151 383.587 44.5657 383.504C44.9163 383.42 45.2737 383.357 45.6376 383.313C46.0985 383.26 46.4725 383.216 46.7597 383.183C47.0469 383.146 47.2556 383.088 47.3858 383.008C47.516 382.927 47.5812 382.797 47.5812 382.617V382.582C47.5812 382.144 47.4576 381.805 47.2105 381.565C46.9667 381.325 46.6027 381.204 46.1185 381.204C45.6143 381.204 45.2169 381.316 44.9264 381.54C44.6392 381.76 44.4405 382.006 44.3303 382.276L42.9228 381.956C43.0897 381.488 43.3335 381.111 43.6541 380.824C43.978 380.533 44.3503 380.323 44.7711 380.193C45.1918 380.059 45.6343 379.992 46.0985 379.992C46.4057 379.992 46.7313 380.029 47.0752 380.102C47.4225 380.173 47.7465 380.303 48.047 380.493C48.3509 380.683 48.5997 380.956 48.7933 381.31C48.987 381.66 49.0839 382.116 49.0839 382.677V387.786H47.6212V386.734H47.5611C47.4643 386.928 47.319 387.118 47.1253 387.305C46.9316 387.492 46.6829 387.648 46.379 387.771C46.0751 387.895 45.7111 387.957 45.287 387.957ZM45.6126 386.754C46.0267 386.754 46.3807 386.673 46.6745 386.509C46.9717 386.345 47.1971 386.132 47.3507 385.868C47.5077 385.601 47.5862 385.315 47.5862 385.011V384.019C47.5327 384.073 47.4292 384.123 47.2756 384.17C47.1253 384.213 46.9534 384.252 46.7597 384.285C46.566 384.315 46.3773 384.343 46.1937 384.37C46.01 384.393 45.8564 384.414 45.7328 384.43C45.4423 384.467 45.1768 384.529 44.9364 384.616C44.6993 384.702 44.5089 384.828 44.3654 384.991C44.2251 385.152 44.155 385.365 44.155 385.632C44.155 386.003 44.2919 386.284 44.5657 386.474C44.8395 386.661 45.1885 386.754 45.6126 386.754ZM52.6469 377.528V387.786H51.1492V377.528H52.6469ZM59.5226 387.786H57.8797L61.5713 377.528H63.3595L67.0512 387.786H65.4082L62.508 379.391H62.4279L59.5226 387.786ZM59.7981 383.769H65.1277V385.071H59.7981V383.769ZM68.4829 387.786V380.092H69.9205V381.345H70.0157C70.176 380.921 70.4381 380.59 70.8021 380.353C71.1661 380.112 71.6019 379.992 72.1095 379.992C72.6237 379.992 73.0545 380.112 73.4018 380.353C73.7524 380.593 74.0112 380.924 74.1782 381.345H74.2583C74.442 380.934 74.7342 380.607 75.1349 380.363C75.5356 380.116 76.0132 379.992 76.5675 379.992C77.2654 379.992 77.8348 380.211 78.2756 380.648C78.7197 381.086 78.9418 381.745 78.9418 382.627V387.786H77.4441V382.767C77.4441 382.246 77.3022 381.869 77.0183 381.635C76.7345 381.401 76.3955 381.285 76.0015 381.285C75.5139 381.285 75.1349 381.435 74.8644 381.735C74.5939 382.033 74.4587 382.415 74.4587 382.882V387.786H72.966V382.672C72.966 382.255 72.8358 381.919 72.5753 381.665C72.3148 381.411 71.9759 381.285 71.5585 381.285C71.2746 381.285 71.0125 381.36 70.7721 381.51C70.535 381.657 70.3429 381.862 70.196 382.126C70.0524 382.39 69.9806 382.695 69.9806 383.043V387.786H68.4829ZM84.2605 387.942C83.5392 387.942 82.9097 387.776 82.3721 387.446C81.8345 387.115 81.4171 386.653 81.1199 386.058C80.8227 385.464 80.6741 384.769 80.6741 383.974C80.6741 383.176 80.8227 382.478 81.1199 381.881C81.4171 381.283 81.8345 380.819 82.3721 380.488C82.9097 380.158 83.5392 379.992 84.2605 379.992C84.9818 379.992 85.6113 380.158 86.1489 380.488C86.6866 380.819 87.104 381.283 87.4012 381.881C87.6984 382.478 87.847 383.176 87.847 383.974C87.847 384.769 87.6984 385.464 87.4012 386.058C87.104 386.653 86.6866 387.115 86.1489 387.446C85.6113 387.776 84.9818 387.942 84.2605 387.942ZM84.2655 386.684C84.733 386.684 85.1204 386.561 85.4276 386.314C85.7348 386.066 85.9619 385.738 86.1088 385.327C86.2591 384.916 86.3343 384.464 86.3343 383.969C86.3343 383.478 86.2591 383.028 86.1088 382.617C85.9619 382.203 85.7348 381.871 85.4276 381.62C85.1204 381.37 84.733 381.244 84.2655 381.244C83.7947 381.244 83.404 381.37 83.0934 381.62C82.7862 381.871 82.5574 382.203 82.4072 382.617C82.2602 383.028 82.1868 383.478 82.1868 383.969C82.1868 384.464 82.2602 384.916 82.4072 385.327C82.5574 385.738 82.7862 386.066 83.0934 386.314C83.404 386.561 83.7947 386.684 84.2655 386.684ZM94.4631 384.596V380.092H95.9658V387.786H94.4931V386.454H94.413C94.236 386.865 93.9521 387.207 93.5614 387.481C93.1741 387.751 92.6915 387.886 92.1138 387.886C91.6196 387.886 91.1821 387.778 90.8015 387.561C90.4241 387.34 90.1269 387.015 89.9099 386.584C89.6961 386.153 89.5893 385.621 89.5893 384.986V380.092H91.087V384.806C91.087 385.33 91.2322 385.748 91.5228 386.058C91.8133 386.369 92.1906 386.524 92.6548 386.524C92.9353 386.524 93.2141 386.454 93.4913 386.314C93.7718 386.173 94.0039 385.961 94.1876 385.677C94.3746 385.394 94.4664 385.033 94.4631 384.596ZM99.5464 383.218V387.786H98.0487V380.092H99.4863V381.345H99.5814C99.7584 380.937 100.036 380.61 100.413 380.363C100.794 380.116 101.273 379.992 101.851 379.992C102.375 379.992 102.834 380.102 103.228 380.323C103.622 380.54 103.928 380.864 104.145 381.295C104.362 381.725 104.47 382.258 104.47 382.892V387.786H102.973V383.073C102.973 382.515 102.827 382.079 102.537 381.765C102.246 381.448 101.847 381.29 101.34 381.29C100.992 381.29 100.683 381.365 100.413 381.515C100.146 381.665 99.9337 381.886 99.7768 382.176C99.6232 382.463 99.5464 382.811 99.5464 383.218ZM110.141 380.092V381.295H105.938V380.092H110.141ZM107.065 378.249H108.563V385.527C108.563 385.818 108.606 386.036 108.693 386.183C108.78 386.327 108.892 386.425 109.029 386.479C109.169 386.529 109.321 386.554 109.485 386.554C109.605 386.554 109.71 386.546 109.8 386.529C109.89 386.512 109.961 386.499 110.011 386.489L110.281 387.726C110.194 387.76 110.071 387.793 109.91 387.826C109.75 387.863 109.55 387.883 109.309 387.886C108.915 387.893 108.548 387.823 108.207 387.676C107.867 387.529 107.591 387.302 107.381 386.995C107.171 386.688 107.065 386.302 107.065 385.838V378.249ZM117.169 377.528V387.786H115.672V377.528H117.169ZM122.571 387.942C121.813 387.942 121.16 387.78 120.612 387.456C120.068 387.128 119.647 386.669 119.35 386.078C119.056 385.484 118.909 384.788 118.909 383.989C118.909 383.201 119.056 382.507 119.35 381.906C119.647 381.305 120.061 380.835 120.592 380.498C121.126 380.161 121.751 379.992 122.466 379.992C122.9 379.992 123.32 380.064 123.728 380.208C124.135 380.351 124.501 380.577 124.825 380.884C125.149 381.191 125.404 381.59 125.591 382.081C125.778 382.569 125.872 383.161 125.872 383.859V384.39H119.756V383.268H124.404C124.404 382.874 124.324 382.525 124.164 382.221C124.003 381.914 123.778 381.672 123.487 381.495C123.2 381.318 122.863 381.229 122.476 381.229C122.055 381.229 121.687 381.333 121.374 381.54C121.063 381.744 120.823 382.011 120.652 382.341C120.485 382.669 120.402 383.024 120.402 383.408V384.285C120.402 384.799 120.492 385.237 120.672 385.597C120.856 385.958 121.111 386.233 121.439 386.424C121.766 386.611 122.148 386.704 122.586 386.704C122.87 386.704 123.128 386.664 123.362 386.584C123.596 386.501 123.798 386.377 123.968 386.213C124.139 386.05 124.269 385.848 124.359 385.607L125.777 385.863C125.663 386.28 125.459 386.646 125.165 386.96C124.875 387.27 124.509 387.512 124.068 387.686C123.631 387.856 123.132 387.942 122.571 387.942ZM131.266 380.092V381.295H126.918V380.092H131.266ZM128.11 387.786V379.201C128.11 378.72 128.215 378.321 128.425 378.004C128.636 377.683 128.915 377.444 129.262 377.287C129.609 377.127 129.987 377.047 130.394 377.047C130.695 377.047 130.952 377.072 131.165 377.122C131.379 377.169 131.538 377.212 131.641 377.252L131.291 378.464C131.22 378.444 131.13 378.421 131.02 378.394C130.91 378.364 130.776 378.349 130.619 378.349C130.255 378.349 129.995 378.439 129.838 378.62C129.684 378.8 129.608 379.061 129.608 379.401V387.786H128.11ZM136.473 380.092V381.295H132.27V380.092H136.473ZM133.397 378.249H134.895V385.527C134.895 385.818 134.938 386.036 135.025 386.183C135.112 386.327 135.224 386.425 135.361 386.479C135.501 386.529 135.653 386.554 135.817 386.554C135.937 386.554 136.042 386.546 136.132 386.529C136.222 386.512 136.293 386.499 136.343 386.489L136.613 387.726C136.526 387.76 136.403 387.793 136.242 387.826C136.082 387.863 135.882 387.883 135.641 387.886C135.247 387.893 134.88 387.823 134.539 387.676C134.199 387.529 133.923 387.302 133.713 386.995C133.502 386.688 133.397 386.302 133.397 385.838V378.249ZM145.595 380.092V381.295H141.393V380.092H145.595ZM142.52 378.249H144.017V385.527C144.017 385.818 144.061 386.036 144.147 386.183C144.234 386.327 144.346 386.425 144.483 386.479C144.623 386.529 144.775 386.554 144.939 386.554C145.059 386.554 145.164 386.546 145.254 386.529C145.345 386.512 145.415 386.499 145.465 386.489L145.735 387.726C145.649 387.76 145.525 387.793 145.365 387.826C145.204 387.863 145.004 387.883 144.764 387.886C144.37 387.893 144.002 387.823 143.662 387.676C143.321 387.529 143.045 387.302 142.835 386.995C142.625 386.688 142.52 386.302 142.52 385.838V378.249ZM150.481 387.942C149.759 387.942 149.13 387.776 148.592 387.446C148.054 387.115 147.637 386.653 147.34 386.058C147.043 385.464 146.894 384.769 146.894 383.974C146.894 383.176 147.043 382.478 147.34 381.881C147.637 381.283 148.054 380.819 148.592 380.488C149.13 380.158 149.759 379.992 150.481 379.992C151.202 379.992 151.831 380.158 152.369 380.488C152.907 380.819 153.324 381.283 153.621 381.881C153.918 382.478 154.067 383.176 154.067 383.974C154.067 384.769 153.918 385.464 153.621 386.058C153.324 386.653 152.907 387.115 152.369 387.446C151.831 387.776 151.202 387.942 150.481 387.942ZM150.486 386.684C150.953 386.684 151.34 386.561 151.648 386.314C151.955 386.066 152.182 385.738 152.329 385.327C152.479 384.916 152.554 384.464 152.554 383.969C152.554 383.478 152.479 383.028 152.329 382.617C152.182 382.203 151.955 381.871 151.648 381.62C151.34 381.37 150.953 381.244 150.486 381.244C150.015 381.244 149.624 381.37 149.313 381.62C149.006 381.871 148.777 382.203 148.627 382.617C148.48 383.028 148.407 383.478 148.407 383.969C148.407 384.464 148.48 384.916 148.627 385.327C148.777 385.738 149.006 386.066 149.313 386.314C149.624 386.561 150.015 386.684 150.486 386.684ZM165.378 381.971L164.021 382.211C163.964 382.038 163.874 381.872 163.75 381.715C163.63 381.558 163.466 381.43 163.259 381.33C163.052 381.229 162.794 381.179 162.483 381.179C162.059 381.179 161.705 381.275 161.421 381.465C161.137 381.652 160.995 381.894 160.995 382.191C160.995 382.448 161.09 382.655 161.281 382.812C161.471 382.969 161.778 383.098 162.202 383.198L163.425 383.478C164.133 383.642 164.66 383.894 165.008 384.235C165.355 384.575 165.528 385.018 165.528 385.562C165.528 386.023 165.395 386.434 165.128 386.794C164.864 387.152 164.495 387.432 164.021 387.636C163.55 387.84 163.004 387.942 162.383 387.942C161.521 387.942 160.818 387.758 160.274 387.391C159.73 387.02 159.396 386.494 159.272 385.813L160.72 385.592C160.81 385.97 160.995 386.255 161.276 386.449C161.556 386.639 161.922 386.734 162.373 386.734C162.864 386.734 163.256 386.633 163.55 386.429C163.844 386.222 163.991 385.97 163.991 385.672C163.991 385.432 163.901 385.23 163.72 385.066C163.543 384.903 163.271 384.779 162.904 384.696L161.601 384.41C160.883 384.247 160.352 383.986 160.009 383.629C159.668 383.271 159.498 382.819 159.498 382.271C159.498 381.817 159.624 381.42 159.878 381.079C160.132 380.739 160.483 380.473 160.93 380.283C161.378 380.089 161.89 379.992 162.468 379.992C163.299 379.992 163.954 380.173 164.431 380.533C164.909 380.89 165.225 381.37 165.378 381.971ZM169.485 387.957C168.997 387.957 168.556 387.866 168.162 387.686C167.768 387.502 167.456 387.237 167.226 386.89C166.999 386.542 166.885 386.117 166.885 385.612C166.885 385.178 166.969 384.821 167.136 384.54C167.302 384.26 167.528 384.038 167.812 383.874C168.096 383.711 168.413 383.587 168.763 383.504C169.114 383.42 169.471 383.357 169.835 383.313C170.296 383.26 170.67 383.216 170.957 383.183C171.245 383.146 171.453 383.088 171.584 383.008C171.714 382.927 171.779 382.797 171.779 382.617V382.582C171.779 382.144 171.655 381.805 171.408 381.565C171.164 381.325 170.8 381.204 170.316 381.204C169.812 381.204 169.415 381.316 169.124 381.54C168.837 381.76 168.638 382.006 168.528 382.276L167.12 381.956C167.287 381.488 167.531 381.111 167.852 380.824C168.176 380.533 168.548 380.323 168.969 380.193C169.39 380.059 169.832 379.992 170.296 379.992C170.603 379.992 170.929 380.029 171.273 380.102C171.62 380.173 171.944 380.303 172.245 380.493C172.549 380.683 172.797 380.956 172.991 381.31C173.185 381.66 173.282 382.116 173.282 382.677V387.786H171.819V386.734H171.759C171.662 386.928 171.517 387.118 171.323 387.305C171.129 387.492 170.881 387.648 170.577 387.771C170.273 387.895 169.909 387.957 169.485 387.957ZM169.81 386.754C170.224 386.754 170.578 386.673 170.872 386.509C171.169 386.345 171.395 386.132 171.548 385.868C171.705 385.601 171.784 385.315 171.784 385.011V384.019C171.73 384.073 171.627 384.123 171.473 384.17C171.323 384.213 171.151 384.252 170.957 384.285C170.764 384.315 170.575 384.343 170.391 384.37C170.208 384.393 170.054 384.414 169.931 384.43C169.64 384.467 169.375 384.529 169.134 384.616C168.897 384.702 168.707 384.828 168.563 384.991C168.423 385.152 168.353 385.365 168.353 385.632C168.353 386.003 168.49 386.284 168.763 386.474C169.037 386.661 169.386 386.754 169.81 386.754ZM181.653 380.092L178.863 387.786H177.26L174.465 380.092H176.073L178.022 386.013H178.102L180.045 380.092H181.653ZM186.186 387.942C185.428 387.942 184.775 387.78 184.227 387.456C183.683 387.128 183.262 386.669 182.965 386.078C182.671 385.484 182.524 384.788 182.524 383.989C182.524 383.201 182.671 382.507 182.965 381.906C183.262 381.305 183.676 380.835 184.207 380.498C184.741 380.161 185.366 379.992 186.08 379.992C186.515 379.992 186.935 380.064 187.343 380.208C187.75 380.351 188.116 380.577 188.44 380.884C188.764 381.191 189.019 381.59 189.206 382.081C189.393 382.569 189.487 383.161 189.487 383.859V384.39H183.371V383.268H188.019C188.019 382.874 187.939 382.525 187.779 382.221C187.618 381.914 187.393 381.672 187.102 381.495C186.815 381.318 186.478 381.229 186.09 381.229C185.67 381.229 185.302 381.333 184.988 381.54C184.678 381.744 184.437 382.011 184.267 382.341C184.1 382.669 184.017 383.024 184.017 383.408V384.285C184.017 384.799 184.107 385.237 184.287 385.597C184.471 385.958 184.726 386.233 185.054 386.424C185.381 386.611 185.763 386.704 186.201 386.704C186.485 386.704 186.743 386.664 186.977 386.584C187.211 386.501 187.413 386.377 187.583 386.213C187.753 386.05 187.884 385.848 187.974 385.607L189.391 385.863C189.278 386.28 189.074 386.646 188.78 386.96C188.49 387.27 188.124 387.512 187.683 387.686C187.246 387.856 186.747 387.942 186.186 387.942Z" fill="#11142D"/>
<path opacity="0.5" d="M363.641 389.059V376.332H364.457V389.059H363.641ZM366.386 380.15C366.326 379.646 366.084 379.255 365.66 378.977C365.236 378.698 364.715 378.559 364.099 378.559C363.648 378.559 363.254 378.632 362.915 378.778C362.581 378.924 362.319 379.124 362.13 379.379C361.944 379.635 361.852 379.925 361.852 380.249C361.852 380.521 361.916 380.755 362.045 380.95C362.178 381.143 362.347 381.303 362.553 381.433C362.758 381.559 362.973 381.663 363.199 381.746C363.424 381.825 363.631 381.89 363.82 381.94L364.854 382.218C365.12 382.288 365.414 382.384 365.739 382.506C366.067 382.629 366.381 382.796 366.679 383.009C366.981 383.217 367.229 383.486 367.425 383.814C367.62 384.142 367.718 384.545 367.718 385.022C367.718 385.572 367.574 386.069 367.285 386.514C367 386.958 366.583 387.311 366.033 387.572C365.486 387.834 364.821 387.965 364.039 387.965C363.31 387.965 362.678 387.848 362.145 387.612C361.615 387.377 361.197 387.049 360.892 386.628C360.59 386.207 360.42 385.718 360.38 385.161H361.653C361.686 385.546 361.815 385.864 362.04 386.116C362.269 386.364 362.557 386.55 362.905 386.673C363.257 386.792 363.635 386.852 364.039 386.852C364.51 386.852 364.932 386.775 365.307 386.623C365.681 386.467 365.978 386.252 366.197 385.977C366.415 385.698 366.525 385.373 366.525 385.002C366.525 384.664 366.43 384.389 366.241 384.177C366.053 383.965 365.804 383.792 365.496 383.66C365.187 383.527 364.854 383.411 364.496 383.312L363.244 382.954C362.448 382.725 361.818 382.399 361.354 381.974C360.89 381.55 360.658 380.995 360.658 380.309C360.658 379.739 360.812 379.242 361.121 378.818C361.432 378.39 361.85 378.059 362.374 377.823C362.901 377.585 363.489 377.465 364.138 377.465C364.795 377.465 365.378 377.583 365.888 377.818C366.399 378.05 366.803 378.368 367.102 378.773C367.403 379.177 367.562 379.636 367.579 380.15H366.386ZM373.216 377.604V387.786H371.983V378.897H371.923L369.437 380.548V379.295L371.983 377.604H373.216ZM376.532 387.786L381.086 378.778V378.698H375.836V377.604H382.359V378.758L377.825 387.786H376.532ZM384.302 386.394L384.222 386.931C384.166 387.309 384.08 387.713 383.964 388.144C383.851 388.575 383.734 388.981 383.611 389.362C383.488 389.743 383.387 390.047 383.308 390.272H382.413C382.456 390.06 382.512 389.78 382.582 389.432C382.651 389.084 382.721 388.694 382.791 388.264C382.863 387.836 382.923 387.398 382.97 386.951L383.029 386.394H384.302ZM389.503 387.925C388.919 387.925 388.394 387.809 387.927 387.577C387.459 387.345 387.085 387.027 386.803 386.623C386.521 386.219 386.367 385.758 386.341 385.241H387.534C387.58 385.702 387.789 386.083 388.16 386.384C388.535 386.683 388.982 386.832 389.503 386.832C389.92 386.832 390.291 386.734 390.616 386.538C390.944 386.343 391.201 386.074 391.387 385.733C391.576 385.388 391.67 384.999 391.67 384.565C391.67 384.121 391.572 383.724 391.377 383.376C391.185 383.025 390.92 382.748 390.581 382.546C390.243 382.344 389.857 382.241 389.423 382.238C389.112 382.235 388.792 382.283 388.464 382.382C388.135 382.478 387.865 382.603 387.653 382.755L386.5 382.616L387.116 377.604H392.406V378.698H388.15L387.792 381.701H387.852C388.061 381.535 388.323 381.398 388.638 381.288C388.952 381.179 389.281 381.124 389.622 381.124C390.245 381.124 390.8 381.273 391.287 381.572C391.778 381.867 392.162 382.271 392.441 382.785C392.723 383.299 392.863 383.885 392.863 384.545C392.863 385.194 392.718 385.774 392.426 386.285C392.138 386.792 391.74 387.193 391.233 387.488C390.726 387.78 390.149 387.925 389.503 387.925ZM398.229 387.925C397.48 387.925 396.842 387.722 396.315 387.314C395.788 386.903 395.386 386.308 395.107 385.529C394.829 384.747 394.69 383.802 394.69 382.695C394.69 381.595 394.829 380.655 395.107 379.876C395.389 379.094 395.793 378.498 396.32 378.087C396.851 377.672 397.487 377.465 398.229 377.465C398.972 377.465 399.607 377.672 400.134 378.087C400.664 378.498 401.068 379.094 401.347 379.876C401.628 380.655 401.769 381.595 401.769 382.695C401.769 383.802 401.63 384.747 401.352 385.529C401.073 386.308 400.67 386.903 400.143 387.314C399.616 387.722 398.978 387.925 398.229 387.925ZM398.229 386.832C398.972 386.832 399.549 386.474 399.96 385.758C400.37 385.042 400.576 384.021 400.576 382.695C400.576 381.814 400.482 381.063 400.293 380.443C400.107 379.823 399.839 379.351 399.487 379.026C399.139 378.702 398.72 378.539 398.229 378.539C397.494 378.539 396.919 378.902 396.504 379.628C396.09 380.35 395.883 381.373 395.883 382.695C395.883 383.577 395.976 384.326 396.161 384.943C396.347 385.559 396.614 386.028 396.962 386.349C397.313 386.671 397.736 386.832 398.229 386.832ZM407.049 387.925C406.3 387.925 405.662 387.722 405.135 387.314C404.608 386.903 404.206 386.308 403.927 385.529C403.649 384.747 403.51 383.802 403.51 382.695C403.51 381.595 403.649 380.655 403.927 379.876C404.209 379.094 404.613 378.498 405.14 378.087C405.671 377.672 406.307 377.465 407.049 377.465C407.792 377.465 408.427 377.672 408.954 378.087C409.484 378.498 409.888 379.094 410.167 379.876C410.448 380.655 410.589 381.595 410.589 382.695C410.589 383.802 410.45 384.747 410.172 385.529C409.893 386.308 409.49 386.903 408.963 387.314C408.436 387.722 407.798 387.925 407.049 387.925ZM407.049 386.832C407.792 386.832 408.369 386.474 408.78 385.758C409.19 385.042 409.396 384.021 409.396 382.695C409.396 381.814 409.302 381.063 409.113 380.443C408.927 379.823 408.659 379.351 408.307 379.026C407.959 378.702 407.54 378.539 407.049 378.539C406.314 378.539 405.739 378.902 405.324 379.628C404.91 380.35 404.703 381.373 404.703 382.695C404.703 383.577 404.796 384.326 404.981 384.943C405.167 385.559 405.434 386.028 405.782 386.349C406.133 386.671 406.556 386.832 407.049 386.832Z" fill="#11142D"/>
</g>
<defs>
<clipPath id="clip0_32_6069">
<rect x="0.000244141" width="430.16" height="429.42" rx="14.291" fill="white"/>
</clipPath>
</defs>
</svg>
