<svg width="46" height="52" viewBox="0 0 46 52" fill="none" xmlns="http://www.w3.org/2000/svg">
<path id="Vector" d="M34.2777 22.0979C34.5969 24.3797 34.9426 26.4977 35.172 28.6343C35.329 30.1032 35.4703 31.6033 35.3613 33.0732C35.1217 36.2723 32.5904 37.9673 29.7073 36.5813C27.4401 35.4886 25.481 33.7547 23.3927 32.2962C23.1254 32.1093 22.8947 31.8718 22.5256 31.5508C22.3304 32.0373 22.1649 32.4297 22.0107 32.8283C20.1906 37.5779 18.3499 42.3353 15.3392 46.4828C14.3773 47.8063 13.1504 49.0354 11.8134 49.9711C8.71744 52.138 5.11585 51.3162 3.21993 48.0268C2.39922 46.604 1.68703 44.9917 1.44561 43.3894C1.01096 40.5076 0.625637 37.5468 0.824283 34.6582C1.46626 25.3266 3.71604 16.3506 7.62758 7.83048C8.36324 6.22637 9.3918 4.74658 10.3599 3.26151C10.9039 2.42451 11.716 1.9074 12.7903 1.93256C13.0357 1.93938 13.3078 1.85476 13.5319 1.74222C15.802 0.594832 18.2515 0.266801 20.6899 0.672561C24.5239 1.31276 28.3927 1.95432 32.1077 3.0552C37.0316 4.5132 41.0711 7.46247 44.072 11.7004C44.4997 12.3012 44.8761 12.9549 45.1766 13.6288C46.3468 16.2535 45.6122 18.8752 43.2375 20.4809C40.8333 22.1029 38.1838 22.7438 35.2947 22.2595C35.0077 22.2077 34.7202 22.1674 34.2777 22.0979ZM29.8649 30.3524C29.9417 30.3092 30.0157 30.263 30.0896 30.2226C30.0484 29.7931 30.0479 29.3595 29.9688 28.9372C29.3326 25.663 28.6818 22.3911 28.0398 19.1166C27.7454 17.6134 27.8755 16.1963 29.1556 15.1629C30.4626 14.1046 31.9017 14.2656 33.3613 14.8639C34.286 15.2445 35.2025 15.6883 36.1681 15.9087C36.9274 16.0803 37.7591 15.9514 38.5568 15.954C38.5938 15.8196 38.6308 15.6852 38.6678 15.5508C38.1435 14.9837 37.6459 14.3975 37.0946 13.8554C34.8165 11.6262 32.0672 10.3669 28.9329 9.87004C23.759 9.04386 18.5688 8.48879 13.3179 8.6077C12.4673 8.62608 12.1037 8.83428 11.8549 9.65984C9.68559 16.8584 8.15338 24.1747 7.63404 31.6843C7.38322 35.3224 7.442 38.9525 8.17006 42.5426C8.30596 43.2128 8.52635 43.8661 8.77219 44.7575C9.29384 44.2751 9.68898 43.9988 9.96904 43.6341C10.6847 42.6941 11.4379 41.7584 12.0209 40.735C14.6552 36.0841 17.1297 31.3807 17.9093 25.9569C18.301 23.2349 21.0006 22.2693 23.2451 23.8728C23.8161 24.2798 24.3288 24.7742 24.824 25.2736C25.7891 26.2512 26.7093 27.2705 27.6744 28.2481C28.3749 28.9696 29.1289 29.6527 29.8649 30.3524Z" fill="#950FAB"/>
</svg>
