<svg width="40" height="30" viewBox="0 0 40 30" fill="none" xmlns="http://www.w3.org/2000/svg">
<path id="Vector" d="M25.4449 17.4951C25.8684 17.7845 26.2739 18.0227 26.6316 18.3169C27.0044 18.6222 27.3964 18.9378 27.6658 19.3277C28.2807 20.2227 28.0217 21.1994 27.1127 21.7946C26.5261 22.1781 25.8984 22.3779 25.2013 22.3975C22.3272 22.4741 19.5119 22.0974 16.7566 21.2795C16.1477 21.0994 15.5404 20.9118 14.8532 20.7043C14.9256 20.9146 14.9552 21.0448 15.0128 21.1636C15.6663 22.4886 16.3111 23.8176 16.9848 25.1316C17.2059 25.5616 17.4908 25.9609 17.7656 26.3618C18.2727 27.0992 18.3191 27.8349 17.8795 28.4455C17.4497 29.0388 16.753 29.2839 15.9158 28.9583C14.9971 28.6026 14.0866 28.1841 13.2509 27.6688C10.9074 26.2241 9.0137 24.2456 7.07124 22.3267C5.23297 20.5116 3.49622 18.6116 2.3475 16.2695C1.76798 15.0865 1.29904 13.8481 0.809105 12.6245C0.697458 12.3445 0.652801 12.0111 0.67533 11.7104C0.703067 11.3167 0.948762 11.027 1.3596 10.9627C1.75008 10.9016 2.04697 11.082 2.20037 11.438C3.25667 13.8769 4.96103 15.8598 6.81859 17.6852C8.66331 19.4978 10.6654 21.1517 12.6017 22.8713C12.754 23.0055 12.9252 23.1166 13.2207 23.3379C13.1205 23.0508 13.0723 22.9164 13.0282 22.781C12.5744 21.3617 12.0874 19.9507 11.6775 18.5197C11.4247 17.6376 12.1005 16.788 13.0485 16.7778C13.595 16.7734 14.1532 16.8911 14.6886 17.0234C16.8163 17.5433 18.9359 18.0907 21.0607 18.6237C21.2555 18.6734 21.4606 18.6862 21.8045 18.7362C21.5122 18.3783 21.3021 18.135 21.1102 17.8802C20.2851 16.7772 20.5808 15.7245 21.8637 15.2291C22.594 14.9484 23.3411 14.7147 24.0675 14.4254C26.6288 13.4022 28.6041 11.6866 29.9788 9.30069C30.6641 8.11221 31.2958 6.89205 31.9477 5.68625C32.0184 5.55515 32.0642 5.41256 32.1776 5.14406C29.7304 5.90476 27.3602 5.96539 24.9178 5.4139C24.9125 5.62048 24.915 5.76611 24.9055 5.91294C24.8752 6.43143 24.8991 6.9621 24.8011 7.46733C24.4197 9.44161 23.1244 10.5242 21.116 10.5467C19.304 10.5683 17.5635 10.1237 15.8378 9.63941C14.5662 9.28272 13.3186 8.84521 12.058 8.4479C11.7594 8.35328 11.4592 8.26613 11.1538 8.19349C9.89607 7.89679 9.6713 8.03243 9.57429 9.33565C9.52384 10.0221 9.56387 10.725 9.6411 11.4108C9.74959 12.3937 9.93451 13.3683 10.0768 14.349C10.1114 14.5881 10.1927 14.8632 10.1131 15.0687C9.99108 15.3843 9.81049 15.7945 9.54384 15.907C9.27905 16.0199 8.86545 15.8523 8.54267 15.7346C8.38854 15.6784 8.25782 15.4745 8.17953 15.308C7.21408 13.2502 6.38326 11.1521 6.58639 8.81039C6.62592 8.34689 6.72526 7.87921 6.87167 7.4378C7.47008 5.62408 8.83735 4.65763 10.7316 4.88977C11.9458 5.03949 13.1289 5.44093 14.3245 5.74326C16.1958 6.2172 18.0601 6.71311 19.9334 7.17772C20.3179 7.27403 20.7261 7.27376 21.1223 7.31783C21.5842 7.36686 21.8804 7.14927 21.9348 6.70677C22.0125 6.0735 22.0548 5.43225 22.0553 4.79337C22.056 4.65045 21.8385 4.46624 21.6793 4.37161C20.9358 3.926 20.1673 3.52181 19.4301 3.06584C19.1718 2.90579 18.9454 2.66472 18.764 2.41612C18.4538 1.98958 18.4296 1.50392 18.6747 1.03376C18.9211 0.557994 19.3448 0.314226 19.8714 0.354316C20.2827 0.384117 20.6916 0.493769 21.0961 0.588687C22.8898 1.00598 24.6673 1.50393 26.4768 1.82482C27.4184 1.99159 28.4181 1.90878 29.3833 1.83977C32.1593 1.64112 34.9143 1.30052 37.5944 0.490285C37.9481 0.383643 38.3585 0.381915 38.7284 0.429851C39.7006 0.556471 40.227 1.47856 39.7269 2.31474C39.4129 2.83802 38.9181 3.35392 38.3779 3.61851C37.547 4.02353 36.6176 4.2476 35.7118 4.4711C35.3004 4.57261 35.1359 4.7022 35.0354 5.14021C33.9994 9.7447 31.8676 13.6557 27.7694 16.2599C27.059 16.7136 26.2773 17.0571 25.4449 17.4951Z" fill="#950FAB"/>
</svg>
